<svg width="640" height="360" viewBox="0 0 640 360" xmlns="http://www.w3.org/2000/svg"><mask id="satori_om-id"><rect x="0" y="0" width="640" height="360" fill="#fff"/></mask><rect x="0" y="0" width="640" height="360" fill="rgba(255,255,255,1)"/><mask id="satori_om-id-0"><rect x="0" y="0" width="640" height="360" fill="#fff"/></mask><mask id="satori_om-id-0-0"><rect x="0" y="0" width="640" height="360" fill="#fff"/></mask><rect x="0" y="0" width="640" height="360" fill="rgba(255,255,255,1)"/><mask id="satori_om-id-0-1"><rect x="0" y="0" width="640" height="0" fill="#fff"/></mask><rect x="0" y="0" width="640" height="0" fill="rgba(0,0,0,1)"/><mask id="satori_om-id-0-2"><rect x="640" y="0" width="0" height="360" fill="#fff"/></mask><rect x="640" y="0" width="0" height="360" fill="rgba(0,0,0,1)"/><mask id="satori_om-id-0-3"><rect x="0" y="360" width="640" height="0" fill="#fff"/></mask><rect x="0" y="360" width="640" height="0" fill="rgba(0,0,0,1)"/><mask id="satori_om-id-0-4"><rect x="0" y="0" width="0" height="360" fill="#fff"/></mask><rect x="0" y="0" width="0" height="360" fill="rgba(0,0,0,1)"/><mask id="satori_om-id-1"><rect x="40" y="145" width="44" height="14" fill="#fff"/></mask><g  ><path fill="rgba(51,51,51,1)" d="M45.5 154.1Q45.5 155.1 45.0 155.6Q44.5 156 43.4 156L43.4 156L41.0 156L41.0 147.6L43.3 147.6Q44.3 147.6 44.8 148.0Q45.3 148.5 45.3 149.5L45.3 149.5L45.3 150.2Q45.3 151.1 44.7 151.5L44.7 151.5Q45.5 152.0 45.5 153.0L45.5 153.0L45.5 154.1ZM44.3 149.4Q44.3 148.9 44.1 148.7Q43.9 148.5 43.4 148.5L43.4 148.5L42.1 148.5L42.1 151.2L43.4 151.2Q43.8 151.2 44.0 150.9Q44.3 150.7 44.3 150.3L44.3 150.3L44.3 149.4ZM44.4 152.9Q44.4 152.5 44.2 152.3Q43.9 152.1 43.5 152.1L43.5 152.1L42.1 152.1L42.1 155.1L43.5 155.1Q44.0 155.1 44.2 154.9Q44.4 154.7 44.4 154.2L44.4 154.2L44.4 152.9ZM51.9 152.5L50.8 152.5L50.8 156L49.7 156L49.7 147.6L52.0 147.6Q53.0 147.6 53.5 148.1Q54.0 148.5 54.0 149.5L54.0 149.5L54.0 150.6Q54.0 152.0 53.0 152.3L53.0 152.3L54.6 156L53.5 156L51.9 152.5ZM53.0 149.4Q53.0 148.9 52.8 148.7Q52.6 148.5 52.1 148.5L52.1 148.5L50.8 148.5L50.8 151.6L52.1 151.6Q52.6 151.6 52.8 151.4Q53.0 151.2 53.0 150.7L53.0 150.7L53.0 149.4ZM62.2 153.9L59.8 153.9L59.4 156L58.3 156L60.3 147.6L61.7 147.6L63.7 156L62.6 156L62.2 153.9ZM60.0 153.0L62.0 153.0L61 148.4L60.0 153.0ZM68.6 148.5L68.6 156L67.6 156L67.6 147.6L69.3 147.6L71.2 155.1L71.2 147.6L72.2 147.6L72.2 156L70.4 156L68.6 148.5ZM81.0 154.1Q81.0 155.1 80.5 155.6Q80.1 156 79.0 156L79.0 156L76.5 156L76.5 147.6L78.8 147.6Q79.9 147.6 80.5 148.0Q81.0 148.5 81.0 149.5L81.0 149.5L81.0 154.1ZM80.0 149.4Q80.0 149.0 79.7 148.7Q79.5 148.5 79.1 148.5L79.1 148.5L77.5 148.5L77.5 155.1L79.1 155.1Q79.5 155.1 79.8 154.9Q80.0 154.7 80.0 154.2L80.0 154.2L80.0 149.4Z "/></g><mask id="satori_om-id-2"><rect x="40" y="169" width="300" height="48" fill="#fff"/></mask><mask id="satori_ms-id-2-0-0" maskUnits="userSpaceOnUse"><rect x="0" y="0" width="640" height="360" fill="#fff"/><rect x="40" y="169" width="300" height="48" fill="#000"  stroke-width="0"/></mask><defs><filter id="satori_s-id-2-0-0" x="0%" y="0%" width="100%" height="100%"><feGaussianBlur stdDeviation="0" result="b"/><feFlood flood-color="rgba(0,0,0,0.12)" in="SourceGraphic" result="f"/><feComposite in="f" in2="b" operator="in"/></filter></defs><g mask="url(#satori_ms-id-2-0-0)" filter="url(#satori_s-id-2-0-0)" opacity="1"><rect x="41" y="170" width="300" height="48" fill="#fff" stroke="#fff" stroke-width="0"/></g><mask id="satori_om-id-2-0"><rect x="40" y="169" width="300" height="48" fill="#fff"/></mask><rect x="40" y="169" width="300" height="48" fill="rgba(255,255,255,1)"/><mask id="satori_om-id-2-1"><rect x="40" y="169" width="300" height="1" fill="#fff"/></mask><rect x="40" y="169" width="300" height="1" fill="rgba(0,0,0,1)"/><mask id="satori_om-id-2-2"><rect x="339" y="169" width="1" height="48" fill="#fff"/></mask><rect x="339" y="169" width="1" height="48" fill="rgba(0,0,0,1)"/><mask id="satori_om-id-2-3"><rect x="40" y="216" width="300" height="1" fill="#fff"/></mask><rect x="40" y="216" width="300" height="1" fill="rgba(0,0,0,1)"/><mask id="satori_om-id-2-4"><rect x="40" y="169" width="1" height="48" fill="#fff"/></mask><rect x="40" y="169" width="1" height="48" fill="rgba(0,0,0,1)"/><mask id="satori_om-id-3"><rect x="53" y="183" width="38" height="20" fill="#fff"/></mask><mask id="satori_om-id-3-0"><rect x="53" y="183" width="38" height="1" fill="#fff"/></mask><rect x="53" y="183" width="38" height="1" fill="rgba(0,0,0,1)"/><mask id="satori_om-id-3-1"><rect x="90" y="183" width="1" height="20" fill="#fff"/></mask><rect x="90" y="183" width="1" height="20" fill="rgba(0,0,0,1)"/><mask id="satori_om-id-3-2"><rect x="53" y="202" width="38" height="1" fill="#fff"/></mask><rect x="53" y="202" width="38" height="1" fill="rgba(0,0,0,1)"/><mask id="satori_om-id-3-3"><rect x="53" y="183" width="1" height="20" fill="#fff"/></mask><rect x="53" y="183" width="1" height="20" fill="rgba(0,0,0,1)"/><mask id="satori_om-id-4"><rect x="103" y="183" width="200" height="20" fill="#fff"/></mask><g  ><path fill="rgba(0,0,0,1)" d="M105.0 198L104.1 198L104.6 195.4L103.5 195.4L103.5 194.6L104.7 194.6L105.2 192.0L103.9 192.0L103.9 191.1L105.3 191.1L105.8 188.5L106.7 188.5L106.3 191.1L108.3 191.1L108.8 188.5L109.7 188.5L109.2 191.1L110.3 191.1L110.3 192.0L109.1 192.0L108.6 194.6L109.9 194.6L109.9 195.4L108.5 195.4L108.0 198L107.1 198L107.5 195.4L105.5 195.4L105.0 198ZM106.1 192.0L105.6 194.6L107.7 194.6L108.2 192.0L106.1 192.0ZM114.7 198.1L114.7 198.1Q113.8 198.1 113.2 197.8Q112.5 197.4 112.2 196.8Q111.8 196.2 111.8 195.3L111.8 195.3L111.8 191.2Q111.8 190.3 112.2 189.7Q112.5 189.1 113.2 188.7Q113.8 188.4 114.7 188.4L114.7 188.4Q115.6 188.4 116.2 188.7Q116.9 189.1 117.2 189.7Q117.6 190.3 117.6 191.2L117.6 191.2L117.6 195.3Q117.6 196.2 117.2 196.8Q116.9 197.4 116.2 197.8Q115.6 198.1 114.7 198.1ZM114.7 197.1L114.7 197.1Q115.5 197.1 116.0 196.6Q116.4 196.1 116.4 195.3L116.4 195.3L116.4 191.2Q116.4 190.4 116.0 189.9Q115.5 189.4 114.7 189.4L114.7 189.4Q113.9 189.4 113.4 189.9Q113.0 190.4 113.0 191.2L113.0 191.2L113.0 195.3Q113.0 196.1 113.4 196.6Q113.9 197.1 114.7 197.1ZM114.7 194.0L114.7 194.0Q114.3 194.0 114.1 193.8Q113.9 193.6 113.9 193.2L113.9 193.2Q113.9 192.9 114.1 192.7Q114.3 192.4 114.7 192.4L114.7 192.4Q115.1 192.4 115.3 192.7Q115.5 192.9 115.5 193.2L115.5 193.2Q115.5 193.6 115.3 193.8Q115.1 194.0 114.7 194.0ZM122.5 198.1L122.5 198.1Q121.6 198.1 121.0 197.8Q120.3 197.4 120.0 196.8Q119.6 196.2 119.6 195.3L119.6 195.3L119.6 191.2Q119.6 190.3 120.0 189.7Q120.3 189.1 121.0 188.7Q121.6 188.4 122.5 188.4L122.5 188.4Q123.4 188.4 124.0 188.7Q124.7 189.1 125.0 189.7Q125.4 190.3 125.4 191.2L125.4 191.2L125.4 195.3Q125.4 196.2 125.0 196.8Q124.7 197.4 124.0 197.8Q123.4 198.1 122.5 198.1ZM122.5 197.1L122.5 197.1Q123.3 197.1 123.8 196.6Q124.2 196.1 124.2 195.3L124.2 195.3L124.2 191.2Q124.2 190.4 123.8 189.9Q123.3 189.4 122.5 189.4L122.5 189.4Q121.7 189.4 121.2 189.9Q120.8 190.4 120.8 191.2L120.8 191.2L120.8 195.3Q120.8 196.1 121.2 196.6Q121.7 197.1 122.5 197.1ZM122.5 194.0L122.5 194.0Q122.1 194.0 121.9 193.8Q121.7 193.6 121.7 193.2L121.7 193.2Q121.7 192.9 121.9 192.7Q122.1 192.4 122.5 192.4L122.5 192.4Q122.9 192.4 123.1 192.7Q123.3 192.9 123.3 193.2L123.3 193.2Q123.3 193.6 123.1 193.8Q122.9 194.0 122.5 194.0ZM130.1 198L128.8 198L132.2 189.6L128.6 189.6L128.6 191.0L127.4 191.0L127.4 188.5L133.4 188.5L133.4 189.7L130.1 198ZM137.9 198L136.6 198L139.3 193.7L139.3 193.6Q139.0 194.0 138.6 194.2Q138.2 194.4 137.6 194.4L137.6 194.4Q136.9 194.4 136.3 194.0Q135.7 193.7 135.4 193.0Q135.1 192.3 135.1 191.4L135.1 191.4Q135.1 190.5 135.5 189.8Q135.8 189.1 136.5 188.8Q137.2 188.4 138.1 188.4L138.1 188.4Q139.0 188.4 139.7 188.8Q140.4 189.1 140.7 189.8Q141.1 190.5 141.1 191.4L141.1 191.4Q141.1 192.2 140.9 192.8Q140.7 193.5 140.3 194.2L140.3 194.2L137.9 198ZM138.1 193.4L138.1 193.4Q138.9 193.4 139.4 192.9Q139.9 192.3 139.9 191.4L139.9 191.4Q139.9 190.5 139.4 190.0Q138.9 189.4 138.1 189.4L138.1 189.4Q137.3 189.4 136.8 190.0Q136.3 190.5 136.3 191.4L136.3 191.4Q136.3 192.3 136.8 192.9Q137.3 193.4 138.1 193.4ZM148.8 198L143.2 198L143.2 196.8L146.1 193.7Q146.8 192.9 147.2 192.3Q147.5 191.7 147.5 191.1L147.5 191.1Q147.5 190.3 147.1 189.9Q146.6 189.4 145.9 189.4L145.9 189.4Q145.1 189.4 144.6 189.9Q144.1 190.4 144.1 191.2L144.1 191.2L142.9 191.2Q143.0 190.3 143.3 189.7Q143.7 189.1 144.4 188.7Q145.0 188.4 145.9 188.4L145.9 188.4Q146.7 188.4 147.4 188.7Q148.0 189.0 148.3 189.7Q148.7 190.3 148.7 191.1L148.7 191.1Q148.7 191.9 148.3 192.7Q147.8 193.5 146.8 194.5L146.8 194.5L144.5 196.9L148.8 196.9L148.8 198ZM156.3 198L155.1 198L155.1 195.9L150.8 195.9L150.8 194.1L154.6 188.5L155.9 188.5L152.0 194.3L152.0 194.9L155.1 194.9L155.1 192.5L156.3 192.5L156.3 198Z "/></g><mask id="satori_om-id-5"><rect x="315" y="187" width="12" height="12" fill="#fff"/></mask><mask id="satori_om-id-5-0"><rect x="315" y="187" width="12" height="12" fill="#fff"/></mask><rect x="315" y="187" width="12" height="12" fill="rgba(51,51,51,1)"/><mask id="satori_om-id-5-1"><rect x="315" y="187" width="12" height="0" fill="#fff"/></mask><rect x="315" y="187" width="12" height="0" fill="rgba(0,0,0,1)"/><mask id="satori_om-id-5-2"><rect x="327" y="187" width="0" height="12" fill="#fff"/></mask><rect x="327" y="187" width="0" height="12" fill="rgba(0,0,0,1)"/><mask id="satori_om-id-5-3"><rect x="315" y="199" width="12" height="0" fill="#fff"/></mask><rect x="315" y="199" width="12" height="0" fill="rgba(0,0,0,1)"/><mask id="satori_om-id-5-4"><rect x="315" y="187" width="0" height="12" fill="#fff"/></mask><rect x="315" y="187" width="0" height="12" fill="rgba(0,0,0,1)"/></svg>