<svg width="640" height="360" viewBox="0 0 640 360" xmlns="http://www.w3.org/2000/svg"><mask id="satori_om-id"><rect x="0" y="0" width="640" height="360" fill="#fff"/></mask><rect x="0" y="0" width="640" height="360" fill="rgba(255,255,255,1)"/><mask id="satori_om-id-0"><rect x="0" y="0" width="640" height="360" fill="#fff"/></mask><mask id="satori_om-id-0-0"><rect x="0" y="0" width="640" height="360" fill="#fff"/></mask><rect x="0" y="0" width="640" height="360" fill="rgba(255,255,255,1)"/><mask id="satori_om-id-0-1"><rect x="0" y="0" width="640" height="0" fill="#fff"/></mask><rect x="0" y="0" width="640" height="0" fill="rgba(0,0,0,1)"/><mask id="satori_om-id-0-2"><rect x="640" y="0" width="0" height="360" fill="#fff"/></mask><rect x="640" y="0" width="0" height="360" fill="rgba(0,0,0,1)"/><mask id="satori_om-id-0-3"><rect x="0" y="360" width="640" height="0" fill="#fff"/></mask><rect x="0" y="360" width="640" height="0" fill="rgba(0,0,0,1)"/><mask id="satori_om-id-0-4"><rect x="0" y="0" width="0" height="360" fill="#fff"/></mask><rect x="0" y="0" width="0" height="360" fill="rgba(0,0,0,1)"/><mask id="satori_om-id-1"><rect x="40" y="86" width="79" height="11" fill="#fff"/></mask><g  ><path fill="rgba(51,51,51,1)" d="M41.1 91.5L44.3 91.5L44.3 92.3L41.1 92.3L41.1 91.5ZM48.3 91.5L51.5 91.5L51.5 92.3L48.3 92.3L48.3 91.5ZM58.9 93.4Q58.9 94.3 58.6 94.6Q58.2 95 57.2 95L57.2 95L55.2 95L55.2 88L57.1 88Q58.0 88 58.4 88.4Q58.8 88.7 58.8 89.6L58.8 89.6L58.8 90.1Q58.8 90.9 58.3 91.3L58.3 91.3Q58.9 91.7 58.9 92.5L58.9 92.5L58.9 93.4ZM58.0 89.5Q58.0 89.1 57.8 88.9Q57.6 88.8 57.2 88.8L57.2 88.8L56.1 88.8L56.1 91.0L57.2 91.0Q57.6 91.0 57.8 90.8Q58.0 90.6 58.0 90.2L58.0 90.2L58.0 89.5ZM58.1 92.4Q58.1 92.1 57.9 91.9Q57.7 91.7 57.3 91.7L57.3 91.7L56.1 91.7L56.1 94.3L57.3 94.3Q57.7 94.3 57.9 94.1Q58.1 93.9 58.1 93.5L58.1 93.5L58.1 92.4ZM64.1 92.1L63.2 92.1L63.2 95L62.3 95L62.3 88L64.2 88Q65.0 88 65.5 88.4Q65.9 88.8 65.9 89.6L65.9 89.6L65.9 90.5Q65.9 91.7 65.0 91.9L65.0 91.9L66.4 95L65.4 95L64.1 92.1ZM65.0 89.5Q65.0 89.1 64.9 88.9Q64.7 88.8 64.3 88.8L64.3 88.8L63.2 88.8L63.2 91.3L64.3 91.3Q64.7 91.3 64.9 91.2Q65.0 91 65.0 90.6L65.0 90.6L65.0 89.5ZM72.5 93.2L70.5 93.2L70.1 95L69.2 95L70.9 88L72.1 88L73.7 95L72.9 95L72.5 93.2ZM70.7 92.5L72.3 92.5L71.5 88.7L70.7 92.5ZM77.6 88.7L77.6 95L76.8 95L76.8 88L78.2 88L79.8 94.3L79.8 88L80.6 88L80.6 95L79.2 95L77.6 88.7ZM87.8 93.4Q87.8 94.3 87.4 94.6Q87.0 95 86.1 95L86.1 95L84.0 95L84.0 88L86.0 88Q86.9 88 87.3 88.4Q87.8 88.7 87.8 89.6L87.8 89.6L87.8 93.4ZM86.9 89.5Q86.9 89.1 86.7 88.9Q86.5 88.8 86.2 88.8L86.2 88.8L84.9 88.8L84.9 94.3L86.2 94.3Q86.5 94.3 86.7 94.1Q86.9 93.9 86.9 93.5L86.9 93.5L86.9 89.5ZM91.5 91.5L94.7 91.5L94.7 92.3L91.5 92.3L91.5 91.5ZM101.3 91.8L99.3 91.8L99.3 95L98.4 95L98.4 88L99.3 88L99.3 91.0L101.3 91.0L101.3 88L102.2 88L102.2 95L101.3 95L101.3 91.8ZM109.4 93.3Q109.4 94.2 109.0 94.6Q108.5 95 107.6 95L107.6 95L107.4 95Q106.5 95 106.0 94.6Q105.6 94.2 105.6 93.3L105.6 93.3L105.6 88L106.4 88L106.4 93.5Q106.4 93.8 106.7 94.0Q106.9 94.2 107.3 94.2L107.3 94.2L107.7 94.2Q108.1 94.2 108.3 94.0Q108.5 93.8 108.5 93.5L108.5 93.5L108.5 88L109.4 88L109.4 93.3ZM113.0 88L116.4 88L116.4 88.7L113.9 88.7L113.9 91.0L116.1 91.0L116.1 91.8L113.9 91.8L113.9 94.3L116.4 94.3L116.4 95L113.0 95L113.0 88Z "/></g><mask id="satori_om-id-2"><rect x="156" y="61" width="140" height="44" fill="#fff"/></mask><mask id="satori_om-id-2-0"><rect x="156" y="61" width="140" height="1" fill="#fff"/></mask><rect x="156" y="61" width="140" height="1" fill="rgba(0,0,0,1)"/><mask id="satori_om-id-2-1"><rect x="295" y="61" width="1" height="44" fill="#fff"/></mask><rect x="295" y="61" width="1" height="44" fill="rgba(0,0,0,1)"/><mask id="satori_om-id-2-2"><rect x="156" y="104" width="140" height="1" fill="#fff"/></mask><rect x="156" y="104" width="140" height="1" fill="rgba(0,0,0,1)"/><mask id="satori_om-id-2-3"><rect x="156" y="61" width="1" height="44" fill="#fff"/></mask><rect x="156" y="61" width="1" height="44" fill="rgba(0,0,0,1)"/><mask id="satori_om-id-3"><rect x="156" y="110" width="15" height="10" fill="#fff"/></mask><g  ><path fill="rgba(51,51,51,1)" d="M156.9 117.2L158.4 115.2Q158.7 114.7 158.8 114.6Q158.9 114.4 158.9 114.2Q159.0 114.0 159.0 113.7L159.0 113.7L159.0 113.1Q159.0 112.8 158.7 112.6Q158.5 112.4 158.2 112.4L158.2 112.4L157.1 112.4L157.1 111.7L158.1 111.7Q158.9 111.7 159.3 112.1Q159.7 112.5 159.7 113.2L159.7 113.2L159.7 113.6Q159.7 114.1 159.7 114.3Q159.6 114.6 159.5 114.8Q159.4 115.0 159.1 115.4L159.1 115.4L157.8 117.3L159.9 117.3L159.9 118L156.9 118L156.9 117.2ZM161.9 117.3L163.0 117.3L163.0 112.4L161.8 112.9L161.8 112.2L163.0 111.7L163.8 111.7L163.8 117.3L164.8 117.3L164.8 118L161.9 118L161.9 117.3ZM169.8 116.5Q169.8 117.2 169.3 117.6Q168.9 118 168.2 118L168.2 118L168.1 118Q167.4 118 167.0 117.6Q166.5 117.2 166.5 116.5L166.5 116.5L166.5 113.2Q166.5 112.5 167.0 112.1Q167.4 111.7 168.1 111.7L168.1 111.7L168.2 111.7Q168.9 111.7 169.3 112.1Q169.8 112.5 169.8 113.2L169.8 113.2L169.8 116.5ZM169.0 113.1Q169.0 112.8 168.8 112.6Q168.6 112.4 168.2 112.4L168.2 112.4L168.1 112.4Q167.7 112.4 167.5 112.6Q167.3 112.8 167.3 113.1L167.3 113.1L167.3 115.5L169.0 113.1ZM167.3 116.6Q167.3 116.9 167.5 117.1Q167.7 117.3 168.1 117.3L168.1 117.3L168.2 117.3Q168.6 117.3 168.8 117.1Q169.0 116.9 169.0 116.6L169.0 116.6L169.0 114.2L167.3 116.6Z "/></g><mask id="satori_om-id-4"><rect x="308" y="61" width="140" height="44" fill="#fff"/></mask><mask id="satori_om-id-4-0"><rect x="308" y="61" width="140" height="1" fill="#fff"/></mask><rect x="308" y="61" width="140" height="1" fill="rgba(0,0,0,1)"/><mask id="satori_om-id-4-1"><rect x="447" y="61" width="1" height="44" fill="#fff"/></mask><rect x="447" y="61" width="1" height="44" fill="rgba(0,0,0,1)"/><mask id="satori_om-id-4-2"><rect x="308" y="104" width="140" height="1" fill="#fff"/></mask><rect x="308" y="104" width="140" height="1" fill="rgba(0,0,0,1)"/><mask id="satori_om-id-4-3"><rect x="308" y="61" width="1" height="44" fill="#fff"/></mask><rect x="308" y="61" width="1" height="44" fill="rgba(0,0,0,1)"/><mask id="satori_om-id-5"><rect x="308" y="110" width="15" height="10" fill="#fff"/></mask><g  ><path fill="rgba(51,51,51,1)" d="M309.0 117.3L310.2 117.3L310.2 112.4L308.9 112.9L308.9 112.2L310.1 111.7L311.0 111.7L311.0 117.3L311.9 117.3L311.9 118L309.0 118L309.0 117.3ZM316.9 116.5Q316.9 117.2 316.5 117.6Q316.1 118 315.4 118L315.4 118L315.2 118Q314.5 118 314.1 117.6Q313.7 117.2 313.7 116.5L313.7 116.5L313.7 113.2Q313.7 112.5 314.1 112.1Q314.5 111.7 315.2 111.7L315.2 111.7L315.4 111.7Q316.1 111.7 316.5 112.1Q316.9 112.5 316.9 113.2L316.9 113.2L316.9 116.5ZM316.1 113.1Q316.1 112.8 315.9 112.6Q315.7 112.4 315.4 112.4L315.4 112.4L315.2 112.4Q314.9 112.4 314.7 112.6Q314.5 112.8 314.5 113.1L314.5 113.1L314.5 115.5L316.1 113.1ZM314.5 116.6Q314.5 116.9 314.7 117.1Q314.9 117.3 315.2 117.3L315.2 117.3L315.4 117.3Q315.7 117.3 315.9 117.1Q316.1 116.9 316.1 116.6L316.1 116.6L316.1 114.2L314.5 116.6ZM318.6 113.2Q318.6 112.5 319.0 112.1Q319.4 111.7 320.0 111.7L320.0 111.7L320.3 111.7Q320.9 111.7 321.3 112.1Q321.7 112.5 321.7 113.2L321.7 113.2L321.7 116.5Q321.7 117.2 321.3 117.6Q320.9 118 320.1 118L320.1 118L319.1 118L319.1 117.3L320.2 117.3Q320.6 117.3 320.8 117.1Q321.0 116.9 321.0 116.6L321.0 116.6L321.0 115.7L320.1 115.7Q319.3 115.7 319.0 115.3Q318.6 115.0 318.6 114.2L318.6 114.2L318.6 113.2ZM321.0 113.1Q321.0 112.8 320.8 112.6Q320.6 112.4 320.3 112.4L320.3 112.4L320.1 112.4Q319.7 112.4 319.5 112.6Q319.3 112.8 319.3 113.1L319.3 113.1L319.3 114.4Q319.3 114.7 319.5 114.8Q319.7 115.0 320.0 115.0L320.0 115.0L321.0 115.0L321.0 113.1Z "/></g><mask id="satori_om-id-6"><rect x="460" y="61" width="140" height="44" fill="#fff"/></mask><mask id="satori_om-id-6-0"><rect x="460" y="61" width="140" height="44" fill="#fff"/></mask><rect x="460" y="61" width="140" height="44" fill="rgba(123,123,123,1)"/><mask id="satori_om-id-6-1"><rect x="460" y="61" width="140" height="1" fill="#fff"/></mask><rect x="460" y="61" width="140" height="1" fill="rgba(0,0,0,1)"/><mask id="satori_om-id-6-2"><rect x="599" y="61" width="1" height="44" fill="#fff"/></mask><rect x="599" y="61" width="1" height="44" fill="rgba(0,0,0,1)"/><mask id="satori_om-id-6-3"><rect x="460" y="104" width="140" height="1" fill="#fff"/></mask><rect x="460" y="104" width="140" height="1" fill="rgba(0,0,0,1)"/><mask id="satori_om-id-6-4"><rect x="460" y="61" width="1" height="44" fill="#fff"/></mask><rect x="460" y="61" width="1" height="44" fill="rgba(0,0,0,1)"/><mask id="satori_om-id-7"><rect x="460" y="110" width="15" height="10" fill="#fff"/></mask><g  ><path fill="rgba(51,51,51,1)" d="M460.9 117.2L462.4 115.2Q462.7 114.7 462.8 114.6Q462.9 114.4 462.9 114.2Q463.0 114.0 463.0 113.7L463.0 113.7L463.0 113.1Q463.0 112.8 462.7 112.6Q462.5 112.4 462.2 112.4L462.2 112.4L461.1 112.4L461.1 111.7L462.1 111.7Q462.9 111.7 463.3 112.1Q463.7 112.5 463.7 113.2L463.7 113.2L463.7 113.6Q463.7 114.1 463.7 114.3Q463.6 114.6 463.5 114.8Q463.4 115.0 463.1 115.4L463.1 115.4L461.8 117.3L463.9 117.3L463.9 118L460.9 118L460.9 117.2ZM468.9 116.5Q468.9 117.2 468.5 117.6Q468.1 118 467.5 118L467.5 118L467.2 118Q466.5 118 466.1 117.6Q465.7 117.2 465.7 116.5L465.7 116.5L465.7 113.2Q465.7 112.5 466.1 112.1Q466.6 111.7 467.3 111.7L467.3 111.7L468.5 111.7L468.5 112.4L467.2 112.4Q466.9 112.4 466.7 112.6Q466.5 112.8 466.5 113.1L466.5 113.1L466.5 114.0L467.4 114.0Q468.2 114.0 468.5 114.4Q468.9 114.7 468.9 115.5L468.9 115.5L468.9 116.5ZM466.5 116.6Q466.5 116.9 466.7 117.1Q466.9 117.3 467.2 117.3L467.2 117.3L467.4 117.3Q467.7 117.3 467.9 117.1Q468.1 116.9 468.1 116.6L468.1 116.6L468.1 115.3Q468.1 115.0 468.0 114.9Q467.8 114.7 467.5 114.7L467.5 114.7L466.5 114.7L466.5 116.6ZM473.8 116.5Q473.8 117.2 473.3 117.6Q472.9 118 472.2 118L472.2 118L472.1 118Q471.4 118 471.0 117.6Q470.5 117.2 470.5 116.5L470.5 116.5L470.5 113.2Q470.5 112.5 471.0 112.1Q471.4 111.7 472.1 111.7L472.1 111.7L472.2 111.7Q472.9 111.7 473.3 112.1Q473.8 112.5 473.8 113.2L473.8 113.2L473.8 116.5ZM473.0 113.1Q473.0 112.8 472.8 112.6Q472.6 112.4 472.2 112.4L472.2 112.4L472.1 112.4Q471.7 112.4 471.5 112.6Q471.3 112.8 471.3 113.1L471.3 113.1L471.3 115.5L473.0 113.1ZM471.3 116.6Q471.3 116.9 471.5 117.1Q471.7 117.3 472.1 117.3L472.1 117.3L472.2 117.3Q472.6 117.3 472.8 117.1Q473.0 116.9 473.0 116.6L473.0 116.6L473.0 114.2L471.3 116.6Z "/></g><mask id="satori_om-id-8"><rect x="40" y="175" width="43" height="11" fill="#fff"/></mask><g  ><path fill="rgba(51,51,51,1)" d="M43.1 184L42.3 184L42.3 177.8L40.7 177.8L40.7 177L44.7 177L44.7 177.8L43.1 177.8L43.1 184ZM51.9 182.3Q51.9 183.2 51.4 183.6Q51.0 184 50.1 184L50.1 184L49.7 184Q48.8 184 48.4 183.6Q47.9 183.2 47.9 182.3L47.9 182.3L47.9 178.7Q47.9 177.8 48.4 177.4Q48.8 177 49.7 177L49.7 177L50.1 177Q51.0 177 51.4 177.4Q51.9 177.8 51.9 178.7L51.9 178.7L51.9 182.3ZM51.0 178.5Q51.0 178.2 50.8 178.0Q50.6 177.8 50.2 177.8L50.2 177.8L49.6 177.8Q49.2 177.8 49.0 178.0Q48.8 178.2 48.8 178.5L48.8 178.5L48.8 182.5Q48.8 182.8 49.0 183.0Q49.2 183.2 49.6 183.2L49.6 183.2L50.2 183.2Q50.6 183.2 50.8 183.0Q51.0 182.8 51.0 182.5L51.0 182.5L51.0 178.5ZM56.5 180.8L56.1 181.4L56.1 184L55.2 184L55.2 177L56.1 177L56.1 180.0L58.0 177L58.9 177L57.0 180.1L59.0 184L58.0 184L56.5 180.8ZM62.6 177L66.0 177L66.0 177.7L63.5 177.7L63.5 180.0L65.7 180.0L65.7 180.8L63.5 180.8L63.5 183.3L66.0 183.3L66.0 184L62.6 184L62.6 177ZM70.4 177.7L70.4 184L69.6 184L69.6 177L71.0 177L72.6 183.3L72.6 177L73.4 177L73.4 184L72.0 184L70.4 177.7ZM80.4 182.3Q80.4 183.2 79.9 183.6Q79.5 184 78.6 184L78.6 184L77.2 184L77.2 183.2L78.7 183.2Q79.1 183.2 79.3 183.0Q79.5 182.8 79.5 182.5L79.5 182.5L79.5 181.4Q79.5 181.2 79.4 181.0Q79.2 180.8 78.9 180.8L78.9 180.8L78.6 180.8Q77.9 180.8 77.4 180.3Q77.0 179.9 77.0 179.1L77.0 179.1L77.0 178.7Q77.0 177.8 77.5 177.4Q77.9 177 78.8 177L78.8 177L80.2 177L80.2 177.8L78.7 177.8Q78.3 177.8 78.1 178.0Q77.9 178.2 77.9 178.5L77.9 178.5L77.9 179.3Q77.9 179.6 78.1 179.8Q78.3 180.0 78.6 180.0L78.6 180.0L78.9 180.0Q79.6 180.0 80.0 180.4Q80.4 180.8 80.4 181.6L80.4 181.6L80.4 182.3Z "/></g><mask id="satori_om-id-9"><rect x="156" y="150" width="64" height="44" fill="#fff"/></mask><mask id="satori_om-id-9-0"><rect x="156" y="150" width="64" height="44" fill="#fff"/></mask><rect x="156" y="150" width="64" height="44" fill="rgba(94,94,94,1)"/><mask id="satori_om-id-9-1"><rect x="156" y="150" width="64" height="1" fill="#fff"/></mask><rect x="156" y="150" width="64" height="1" fill="rgba(0,0,0,1)"/><mask id="satori_om-id-9-2"><rect x="219" y="150" width="1" height="44" fill="#fff"/></mask><rect x="219" y="150" width="1" height="44" fill="rgba(0,0,0,1)"/><mask id="satori_om-id-9-3"><rect x="156" y="193" width="64" height="1" fill="#fff"/></mask><rect x="156" y="193" width="64" height="1" fill="rgba(0,0,0,1)"/><mask id="satori_om-id-9-4"><rect x="156" y="150" width="1" height="44" fill="#fff"/></mask><rect x="156" y="150" width="1" height="44" fill="rgba(0,0,0,1)"/><mask id="satori_om-id-10"><rect x="156" y="199" width="34" height="10" fill="#fff"/></mask><g  ><path fill="rgba(51,51,51,1)" d="M156.8 202.5L157.5 202.5L157.5 202.7Q157.8 202.5 158.2 202.5L158.2 202.5L158.5 202.5Q159.3 202.5 159.7 202.8Q160.1 203.2 160.1 203.9L160.1 203.9L160.1 205.6Q160.1 206.3 159.7 206.7Q159.3 207 158.5 207L158.5 207L157.5 207L157.5 208.5L156.8 208.5L156.8 202.5ZM158.1 203.2Q157.8 203.2 157.7 203.3Q157.5 203.5 157.5 203.7L157.5 203.7L157.5 206.3L158.6 206.3Q159.0 206.3 159.1 206.2Q159.3 206.0 159.3 205.7L159.3 205.7L159.3 203.8Q159.3 203.5 159.1 203.3Q159.0 203.2 158.6 203.2L158.6 203.2L158.1 203.2ZM161.8 206.3L162.4 206.3L162.4 203.2L161.8 203.2L161.8 202.5L163.1 202.5L163.1 202.7Q163.4 202.5 163.9 202.5L163.9 202.5L164.8 202.5L164.8 203.2L163.8 203.2Q163.5 203.2 163.3 203.4Q163.2 203.6 163.2 203.8L163.2 203.8L163.2 206.3L164.2 206.3L164.2 207L161.8 207L161.8 206.3ZM167.7 200.7L168.6 200.7L168.6 201.5L167.7 201.5L167.7 200.7ZM167.8 203.2L166.4 203.2L166.4 202.5L168.5 202.5L168.5 206.3L169.9 206.3L169.9 207L167.8 207L167.8 203.2ZM171.0 202.5L171.6 202.5L171.6 202.7Q171.9 202.5 172.2 202.5L172.2 202.5L172.3 202.5Q172.9 202.5 173.1 202.9L173.1 202.9Q173.4 202.5 173.9 202.5L173.9 202.5L174.0 202.5Q174.5 202.5 174.8 202.8Q175.1 203.1 175.1 203.8L175.1 203.8L175.1 207L174.3 207L174.3 203.8Q174.3 203.4 174.3 203.2Q174.2 203.1 173.9 203.1L173.9 203.1L173.9 203.1Q173.6 203.1 173.5 203.3Q173.4 203.5 173.4 203.7L173.4 203.7L173.4 207L172.7 207L172.7 203.8Q172.7 203.4 172.6 203.2Q172.5 203.1 172.2 203.1L172.2 203.1L172.2 203.1Q171.9 203.1 171.8 203.3Q171.7 203.4 171.7 203.6L171.7 203.6L171.7 207L171.0 207L171.0 202.5ZM179.2 207Q179.1 207 178.9 206.9Q178.8 206.9 178.7 206.7L178.7 206.7Q178.5 207 178.1 207L178.1 207L177.3 207Q176.7 207 176.4 206.7Q176.0 206.5 176.0 205.8L176.0 205.8L176.0 205.6Q176.0 204.2 177.4 204.2L177.4 204.2L178.5 204.2L178.5 203.8Q178.5 203.5 178.3 203.3Q178.1 203.2 177.8 203.2L177.8 203.2L176.4 203.2L176.4 202.5L177.7 202.5Q178.5 202.5 178.9 202.8Q179.2 203.2 179.2 203.9L179.2 203.9L179.2 206.1Q179.2 206.2 179.3 206.3Q179.4 206.4 179.7 206.4L179.7 206.4L179.7 207L179.2 207ZM178.1 206.3Q178.3 206.3 178.4 206.2Q178.5 206.1 178.5 205.9L178.5 205.9L178.5 204.9L177.3 204.9Q177.1 204.9 177.0 205.0Q176.8 205.2 176.8 205.4L176.8 205.4L176.8 205.9Q176.8 206.1 176.9 206.2Q177.0 206.3 177.3 206.3L177.3 206.3L178.1 206.3ZM181.2 206.3L181.9 206.3L181.9 203.2L181.2 203.2L181.2 202.5L182.6 202.5L182.6 202.7Q182.9 202.5 183.3 202.5L183.3 202.5L184.2 202.5L184.2 203.2L183.2 203.2Q182.9 203.2 182.8 203.4Q182.6 203.6 182.6 203.8L182.6 203.8L182.6 206.3L183.6 206.3L183.6 207L181.2 207L181.2 206.3ZM186.8 207.9Q187.0 207.9 187.1 207.8Q187.2 207.7 187.3 207.5L187.3 207.5L187.4 207L187.2 207L185.7 202.5L186.6 202.5L187.7 206.3L188.7 202.5L189.4 202.5L188.0 207.5Q187.9 207.9 187.8 208.2Q187.6 208.4 187.4 208.5Q187.2 208.5 186.8 208.5L186.8 208.5L186.4 208.5L186.4 207.9L186.8 207.9Z "/></g><mask id="satori_om-id-11"><rect x="232" y="150" width="64" height="44" fill="#fff"/></mask><mask id="satori_om-id-11-0"><rect x="232" y="150" width="64" height="44" fill="#fff"/></mask><rect x="232" y="150" width="64" height="44" fill="rgba(237,237,237,1)"/><mask id="satori_om-id-11-1"><rect x="232" y="150" width="64" height="1" fill="#fff"/></mask><rect x="232" y="150" width="64" height="1" fill="rgba(0,0,0,1)"/><mask id="satori_om-id-11-2"><rect x="295" y="150" width="1" height="44" fill="#fff"/></mask><rect x="295" y="150" width="1" height="44" fill="rgba(0,0,0,1)"/><mask id="satori_om-id-11-3"><rect x="232" y="193" width="64" height="1" fill="#fff"/></mask><rect x="232" y="193" width="64" height="1" fill="rgba(0,0,0,1)"/><mask id="satori_om-id-11-4"><rect x="232" y="150" width="1" height="44" fill="#fff"/></mask><rect x="232" y="150" width="1" height="44" fill="rgba(0,0,0,1)"/><mask id="satori_om-id-12"><rect x="232" y="199" width="44" height="10" fill="#fff"/></mask><g  ><path fill="rgba(51,51,51,1)" d="M235.8 205.9Q235.8 206.4 235.5 206.7Q235.1 207 234.4 207L234.4 207L233.1 207L233.1 206.3L234.5 206.3Q234.8 206.3 234.9 206.2Q235.0 206.1 235.0 205.9L235.0 205.9L235.0 205.4Q235.0 205.0 234.6 205.0L234.6 205.0L234.3 205.0Q233.7 205.0 233.4 204.8Q233.1 204.5 233.1 203.9L233.1 203.9L233.1 203.6Q233.1 203.0 233.4 202.8Q233.7 202.5 234.4 202.5L234.4 202.5L235.6 202.5L235.6 203.2L234.3 203.2Q234.1 203.2 234.0 203.3Q233.8 203.4 233.8 203.6L233.8 203.6L233.8 203.9Q233.8 204.1 233.9 204.2Q234.1 204.3 234.3 204.3L234.3 204.3L234.6 204.3Q235.2 204.3 235.5 204.6Q235.8 204.9 235.8 205.5L235.8 205.5L235.8 205.9ZM239.2 207Q238.4 207 238.1 206.7Q237.7 206.3 237.7 205.6L237.7 205.6L237.7 203.9Q237.7 203.2 238.0 202.8Q238.4 202.5 239.1 202.5L239.1 202.5L239.6 202.5Q240.2 202.5 240.5 202.9Q240.9 203.2 240.9 203.9L240.9 203.9L240.9 205.1L238.5 205.1L238.5 205.7Q238.5 206.0 238.6 206.2Q238.8 206.3 239.1 206.3L239.1 206.3L240.6 206.3L240.6 207L239.2 207ZM240.1 204.4L240.1 203.7Q240.1 203.5 240.0 203.3Q239.8 203.2 239.6 203.2L239.6 203.2L239.1 203.2Q238.7 203.2 238.6 203.3Q238.5 203.5 238.5 203.8L238.5 203.8L238.5 204.4L240.1 204.4ZM244.3 207Q243.5 207 243.2 206.7Q242.8 206.3 242.8 205.6L242.8 205.6L242.8 203.9Q242.8 203.2 243.2 202.8Q243.5 202.5 244.3 202.5L244.3 202.5L245.5 202.5L245.5 203.2L244.2 203.2Q243.9 203.2 243.7 203.3Q243.6 203.5 243.6 203.8L243.6 203.8L243.6 205.7Q243.6 206.0 243.7 206.2Q243.9 206.3 244.2 206.3L244.2 206.3L245.5 206.3L245.5 207L244.3 207ZM250.7 205.6Q250.7 206.3 250.3 206.7Q249.9 207 249.2 207L249.2 207L248.9 207Q248.1 207 247.7 206.7Q247.3 206.3 247.3 205.6L247.3 205.6L247.3 203.9Q247.3 203.2 247.7 202.8Q248.1 202.5 248.9 202.5L248.9 202.5L249.2 202.5Q249.9 202.5 250.3 202.8Q250.7 203.2 250.7 203.9L250.7 203.9L250.7 205.6ZM249.9 203.8Q249.9 203.5 249.7 203.3Q249.6 203.2 249.2 203.2L249.2 203.2L248.8 203.2Q248.4 203.2 248.3 203.3Q248.1 203.5 248.1 203.8L248.1 203.8L248.1 205.7Q248.1 206.0 248.3 206.2Q248.4 206.3 248.8 206.3L248.8 206.3L249.2 206.3Q249.6 206.3 249.7 206.2Q249.9 206.0 249.9 205.7L249.9 205.7L249.9 203.8ZM252.2 202.5L252.9 202.5L252.9 202.7Q253.2 202.5 253.7 202.5L253.7 202.5L254.1 202.5Q254.8 202.5 255.2 202.8Q255.5 203.2 255.5 203.9L255.5 203.9L255.5 207L254.8 207L254.8 203.8Q254.8 203.5 254.6 203.3Q254.4 203.2 254.2 203.2L254.2 203.2L253.6 203.2Q253.3 203.2 253.1 203.3Q253.0 203.5 253.0 203.7L253.0 203.7L253.0 207L252.2 207L252.2 202.5ZM259.7 206.8Q259.4 207 259.0 207L259.0 207L258.6 207Q257.8 207 257.4 206.7Q257.1 206.3 257.1 205.6L257.1 205.6L257.1 203.9Q257.1 203.2 257.4 202.8Q257.8 202.5 258.6 202.5L258.6 202.5L259.6 202.5L259.6 200.7L260.4 200.7L260.4 207L259.7 207L259.7 206.8ZM259.0 206.3Q259.3 206.3 259.5 206.2Q259.6 206.0 259.6 205.8L259.6 205.8L259.6 203.2L258.5 203.2Q258.2 203.2 258.0 203.3Q257.8 203.5 257.8 203.8L257.8 203.8L257.8 205.7Q257.8 206.0 258.0 206.2Q258.2 206.3 258.5 206.3L258.5 206.3L259.0 206.3ZM264.9 207Q264.8 207 264.7 206.9Q264.5 206.9 264.4 206.7L264.4 206.7Q264.2 207 263.9 207L263.9 207L263.1 207Q262.4 207 262.1 206.7Q261.8 206.5 261.8 205.8L261.8 205.8L261.8 205.6Q261.8 204.2 263.1 204.2L263.1 204.2L264.2 204.2L264.2 203.8Q264.2 203.5 264.0 203.3Q263.9 203.2 263.5 203.2L263.5 203.2L262.1 203.2L262.1 202.5L263.4 202.5Q264.2 202.5 264.6 202.8Q265.0 203.2 265.0 203.9L265.0 203.9L265.0 206.1Q265.0 206.2 265.1 206.3Q265.2 206.4 265.4 206.4L265.4 206.4L265.4 207L264.9 207ZM263.8 206.3Q264.0 206.3 264.1 206.2Q264.2 206.1 264.2 205.9L264.2 205.9L264.2 204.9L263.1 204.9Q262.8 204.9 262.7 205.0Q262.5 205.2 262.5 205.4L262.5 205.4L262.5 205.9Q262.5 206.1 262.6 206.2Q262.7 206.3 263.0 206.3L263.0 206.3L263.8 206.3ZM266.9 206.3L267.6 206.3L267.6 203.2L266.9 203.2L266.9 202.5L268.3 202.5L268.3 202.7Q268.6 202.5 269.0 202.5L269.0 202.5L269.9 202.5L269.9 203.2L268.9 203.2Q268.6 203.2 268.5 203.4Q268.4 203.6 268.3 203.8L268.3 203.8L268.3 206.3L269.3 206.3L269.3 207L266.9 207L266.9 206.3ZM272.5 207.9Q272.7 207.9 272.8 207.8Q272.9 207.7 273.0 207.5L273.0 207.5L273.1 207L272.9 207L271.4 202.5L272.3 202.5L273.4 206.3L274.4 202.5L275.2 202.5L273.8 207.5Q273.7 207.9 273.5 208.2Q273.3 208.4 273.1 208.5Q272.9 208.5 272.6 208.5L272.6 208.5L272.1 208.5L272.1 207.9L272.5 207.9Z "/></g><mask id="satori_om-id-13"><rect x="308" y="150" width="64" height="44" fill="#fff"/></mask><mask id="satori_om-id-13-0"><rect x="308" y="150" width="64" height="1" fill="#fff"/></mask><rect x="308" y="150" width="64" height="1" fill="rgba(0,0,0,1)"/><mask id="satori_om-id-13-1"><rect x="371" y="150" width="1" height="44" fill="#fff"/></mask><rect x="371" y="150" width="1" height="44" fill="rgba(0,0,0,1)"/><mask id="satori_om-id-13-2"><rect x="308" y="193" width="64" height="1" fill="#fff"/></mask><rect x="308" y="193" width="64" height="1" fill="rgba(0,0,0,1)"/><mask id="satori_om-id-13-3"><rect x="308" y="150" width="1" height="44" fill="#fff"/></mask><rect x="308" y="150" width="1" height="44" fill="rgba(0,0,0,1)"/><mask id="satori_om-id-14"><rect x="308" y="199" width="29" height="10" fill="#fff"/></mask><g  ><path fill="rgba(51,51,51,1)" d="M311.8 207Q311.6 207 311.5 206.9Q311.4 206.9 311.3 206.7L311.3 206.7Q311.1 207 310.7 207L310.7 207L309.9 207Q309.2 207 308.9 206.7Q308.6 206.5 308.6 205.8L308.6 205.8L308.6 205.6Q308.6 204.2 309.9 204.2L309.9 204.2L311.0 204.2L311.0 203.8Q311.0 203.5 310.9 203.3Q310.7 203.2 310.4 203.2L310.4 203.2L309.0 203.2L309.0 202.5L310.3 202.5Q311.1 202.5 311.4 202.8Q311.8 203.2 311.8 203.9L311.8 203.9L311.8 206.1Q311.8 206.2 311.9 206.3Q312.0 206.4 312.2 206.4L312.2 206.4L312.2 207L311.8 207ZM310.6 206.3Q310.9 206.3 311.0 206.2Q311.0 206.1 311.0 205.9L311.0 205.9L311.0 204.9L309.9 204.9Q309.7 204.9 309.5 205.0Q309.4 205.2 309.4 205.4L309.4 205.4L309.4 205.9Q309.4 206.1 309.5 206.2Q309.6 206.3 309.8 206.3L309.8 206.3L310.6 206.3ZM315.5 207Q314.7 207 314.3 206.7Q313.9 206.3 313.9 205.6L313.9 205.6L313.9 203.9Q313.9 203.2 314.3 202.8Q314.7 202.5 315.5 202.5L315.5 202.5L316.6 202.5L316.6 203.2L315.4 203.2Q315.0 203.2 314.9 203.3Q314.7 203.5 314.7 203.8L314.7 203.8L314.7 205.7Q314.7 206.0 314.9 206.2Q315.0 206.3 315.4 206.3L315.4 206.3L316.6 206.3L316.6 207L315.5 207ZM320.3 207Q319.5 207 319.2 206.7Q318.8 206.3 318.8 205.6L318.8 205.6L318.8 203.9Q318.8 203.2 319.2 202.8Q319.5 202.5 320.3 202.5L320.3 202.5L321.5 202.5L321.5 203.2L320.2 203.2Q319.9 203.2 319.7 203.3Q319.6 203.5 319.6 203.8L319.6 203.8L319.6 205.7Q319.6 206.0 319.7 206.2Q319.9 206.3 320.2 206.3L320.2 206.3L321.5 206.3L321.5 207L320.3 207ZM325.0 207Q324.2 207 323.8 206.7Q323.4 206.3 323.4 205.6L323.4 205.6L323.4 203.9Q323.4 203.2 323.8 202.8Q324.1 202.5 324.9 202.5L324.9 202.5L325.3 202.5Q325.9 202.5 326.3 202.9Q326.6 203.2 326.6 203.9L326.6 203.9L326.6 205.1L324.2 205.1L324.2 205.7Q324.2 206.0 324.4 206.2Q324.5 206.3 324.9 206.3L324.9 206.3L326.3 206.3L326.3 207L325.0 207ZM325.8 204.4L325.8 203.7Q325.8 203.5 325.7 203.3Q325.5 203.2 325.3 203.2L325.3 203.2L324.8 203.2Q324.5 203.2 324.3 203.3Q324.2 203.5 324.2 203.8L324.2 203.8L324.2 204.4L325.8 204.4ZM328.2 202.5L328.9 202.5L328.9 202.7Q329.2 202.5 329.7 202.5L329.7 202.5L330.1 202.5Q330.8 202.5 331.2 202.8Q331.5 203.2 331.5 203.9L331.5 203.9L331.5 207L330.8 207L330.8 203.8Q330.8 203.5 330.6 203.3Q330.4 203.2 330.2 203.2L330.2 203.2L329.6 203.2Q329.3 203.2 329.1 203.3Q329.0 203.5 329.0 203.7L329.0 203.7L329.0 207L328.2 207L328.2 202.5ZM335.1 207Q334.6 207 334.4 206.7Q334.1 206.4 334.1 205.9L334.1 205.9L334.1 203.2L333.3 203.2L333.3 202.5L334.1 202.5L334.1 201.4L334.9 201.4L334.9 202.5L336.2 202.5L336.2 203.2L334.9 203.2L334.9 206.0Q334.9 206.2 335.0 206.2Q335.1 206.3 335.3 206.3L335.3 206.3L336.2 206.3L336.2 207L335.1 207Z "/></g><mask id="satori_om-id-15"><rect x="384" y="150" width="64" height="44" fill="#fff"/></mask><mask id="satori_om-id-15-0"><rect x="384" y="150" width="64" height="44" fill="#fff"/></mask><rect x="384" y="150" width="64" height="44" fill="rgba(240,240,240,1)"/><mask id="satori_om-id-15-1"><rect x="384" y="150" width="64" height="1" fill="#fff"/></mask><rect x="384" y="150" width="64" height="1" fill="rgba(0,0,0,1)"/><mask id="satori_om-id-15-2"><rect x="447" y="150" width="1" height="44" fill="#fff"/></mask><rect x="447" y="150" width="1" height="44" fill="rgba(0,0,0,1)"/><mask id="satori_om-id-15-3"><rect x="384" y="193" width="64" height="1" fill="#fff"/></mask><rect x="384" y="193" width="64" height="1" fill="rgba(0,0,0,1)"/><mask id="satori_om-id-15-4"><rect x="384" y="150" width="1" height="44" fill="#fff"/></mask><rect x="384" y="150" width="1" height="44" fill="rgba(0,0,0,1)"/><mask id="satori_om-id-16"><rect x="384" y="199" width="24" height="10" fill="#fff"/></mask><g  ><path fill="rgba(51,51,51,1)" d="M384.4 202.5L385.1 202.5L385.1 202.7Q385.3 202.5 385.6 202.5L385.6 202.5L385.7 202.5Q386.3 202.5 386.6 202.9L386.6 202.9Q386.9 202.5 387.3 202.5L387.3 202.5L387.4 202.5Q388.0 202.5 388.2 202.8Q388.5 203.1 388.5 203.8L388.5 203.8L388.5 207L387.8 207L387.8 203.8Q387.8 203.4 387.7 203.2Q387.6 203.1 387.3 203.1L387.3 203.1L387.3 203.1Q387.0 203.1 386.9 203.3Q386.8 203.5 386.8 203.7L386.8 203.7L386.8 207L386.1 207L386.1 203.8Q386.1 203.4 386.0 203.2Q385.9 203.1 385.7 203.1L385.7 203.1L385.6 203.1Q385.3 203.1 385.2 203.3Q385.1 203.4 385.1 203.6L385.1 203.6L385.1 207L384.4 207L384.4 202.5ZM392.2 206.8Q391.9 207 391.4 207L391.4 207L391.1 207Q390.4 207 390.1 206.7Q389.7 206.3 389.7 205.6L389.7 205.6L389.7 202.5L390.5 202.5L390.5 205.7Q390.5 206.0 390.6 206.2Q390.8 206.3 391.0 206.3L391.0 206.3L391.5 206.3Q391.8 206.3 392.0 206.2Q392.1 206.0 392.1 205.9L392.1 205.9L392.1 202.5L392.9 202.5L392.9 207L392.2 207L392.2 206.8ZM396.5 207Q396.0 207 395.8 206.7Q395.5 206.4 395.5 205.9L395.5 205.9L395.5 203.2L394.7 203.2L394.7 202.5L395.5 202.5L395.5 201.4L396.3 201.4L396.3 202.5L397.6 202.5L397.6 203.2L396.3 203.2L396.3 206.0Q396.3 206.2 396.4 206.2Q396.5 206.3 396.7 206.3L396.7 206.3L397.6 206.3L397.6 207L396.5 207ZM401.0 207Q400.2 207 399.8 206.7Q399.4 206.3 399.4 205.6L399.4 205.6L399.4 203.9Q399.4 203.2 399.8 202.8Q400.1 202.5 400.9 202.5L400.9 202.5L401.3 202.5Q401.9 202.5 402.3 202.9Q402.6 203.2 402.6 203.9L402.6 203.9L402.6 205.1L400.2 205.1L400.2 205.7Q400.2 206.0 400.4 206.2Q400.5 206.3 400.9 206.3L400.9 206.3L402.3 206.3L402.3 207L401.0 207ZM401.8 204.4L401.8 203.7Q401.8 203.5 401.7 203.3Q401.5 203.2 401.3 203.2L401.3 203.2L400.8 203.2Q400.5 203.2 400.3 203.3Q400.2 203.5 400.2 203.8L400.2 203.8L400.2 204.4L401.8 204.4ZM406.8 206.8Q406.5 207 406.1 207L406.1 207L405.7 207Q404.9 207 404.6 206.7Q404.2 206.3 404.2 205.6L404.2 205.6L404.2 203.9Q404.2 203.2 404.6 202.8Q404.9 202.5 405.7 202.5L405.7 202.5L406.8 202.5L406.8 200.7L407.5 200.7L407.5 207L406.8 207L406.8 206.8ZM406.2 206.3Q406.5 206.3 406.6 206.2Q406.8 206.0 406.8 205.8L406.8 205.8L406.8 203.2L405.6 203.2Q405.3 203.2 405.1 203.3Q405.0 203.5 405.0 203.8L405.0 203.8L405.0 205.7Q405.0 206.0 405.1 206.2Q405.3 206.3 405.6 206.3L405.6 206.3L406.2 206.3Z "/></g><mask id="satori_om-id-17"><rect x="460" y="150" width="64" height="44" fill="#fff"/></mask><mask id="satori_om-id-17-0"><rect x="460" y="150" width="64" height="44" fill="#fff"/></mask><rect x="460" y="150" width="64" height="44" fill="rgba(0,0,0,1)"/><mask id="satori_om-id-17-1"><rect x="460" y="150" width="64" height="1" fill="#fff"/></mask><rect x="460" y="150" width="64" height="1" fill="rgba(0,0,0,1)"/><mask id="satori_om-id-17-2"><rect x="523" y="150" width="1" height="44" fill="#fff"/></mask><rect x="523" y="150" width="1" height="44" fill="rgba(0,0,0,1)"/><mask id="satori_om-id-17-3"><rect x="460" y="193" width="64" height="1" fill="#fff"/></mask><rect x="460" y="193" width="64" height="1" fill="rgba(0,0,0,1)"/><mask id="satori_om-id-17-4"><rect x="460" y="150" width="1" height="44" fill="#fff"/></mask><rect x="460" y="150" width="1" height="44" fill="rgba(0,0,0,1)"/><mask id="satori_om-id-18"><rect x="460" y="199" width="29" height="10" fill="#fff"/></mask><g  ><path fill="rgba(51,51,51,1)" d="M464.1 205.6Q464.1 206.3 463.7 206.7Q463.3 207 462.5 207L462.5 207L460.8 207L460.8 200.7L461.5 200.7L461.5 202.7Q461.8 202.5 462.2 202.5L462.2 202.5L462.5 202.5Q463.3 202.5 463.7 202.8Q464.1 203.2 464.1 203.9L464.1 203.9L464.1 205.6ZM462.1 203.2Q461.8 203.2 461.7 203.3Q461.5 203.5 461.5 203.7L461.5 203.7L461.5 206.3L462.6 206.3Q463.0 206.3 463.1 206.2Q463.3 206.0 463.3 205.7L463.3 205.7L463.3 203.8Q463.3 203.5 463.1 203.3Q463.0 203.2 462.6 203.2L462.6 203.2L462.1 203.2ZM469.0 205.6Q469.0 206.3 468.6 206.7Q468.2 207 467.4 207L467.4 207L467.1 207Q466.4 207 466.0 206.7Q465.6 206.3 465.6 205.6L465.6 205.6L465.6 203.9Q465.6 203.2 466.0 202.8Q466.4 202.5 467.1 202.5L467.1 202.5L467.4 202.5Q468.2 202.5 468.6 202.8Q469.0 203.2 469.0 203.9L469.0 203.9L469.0 205.6ZM468.2 203.8Q468.2 203.5 468.0 203.3Q467.9 203.2 467.5 203.2L467.5 203.2L467.0 203.2Q466.7 203.2 466.5 203.3Q466.4 203.5 466.4 203.8L466.4 203.8L466.4 205.7Q466.4 206.0 466.5 206.2Q466.7 206.3 467.0 206.3L467.0 206.3L467.5 206.3Q467.9 206.3 468.0 206.2Q468.2 206.0 468.2 205.7L468.2 205.7L468.2 203.8ZM470.6 206.3L471.3 206.3L471.3 203.2L470.6 203.2L470.6 202.5L472.0 202.5L472.0 202.7Q472.3 202.5 472.7 202.5L472.7 202.5L473.6 202.5L473.6 203.2L472.6 203.2Q472.3 203.2 472.2 203.4Q472.1 203.6 472.0 203.8L472.0 203.8L472.0 206.3L473.0 206.3L473.0 207L470.6 207L470.6 206.3ZM478.0 206.8Q477.7 207 477.2 207L477.2 207L476.9 207Q476.1 207 475.7 206.7Q475.3 206.3 475.3 205.6L475.3 205.6L475.3 203.9Q475.3 203.2 475.7 202.8Q476.1 202.5 476.9 202.5L476.9 202.5L477.9 202.5L477.9 200.7L478.7 200.7L478.7 207L478.0 207L478.0 206.8ZM477.3 206.3Q477.6 206.3 477.8 206.2Q477.9 206.0 477.9 205.8L477.9 205.8L477.9 203.2L476.8 203.2Q476.4 203.2 476.3 203.3Q476.1 203.5 476.1 203.8L476.1 203.8L476.1 205.7Q476.1 206.0 476.3 206.2Q476.4 206.3 476.8 206.3L476.8 206.3L477.3 206.3ZM481.8 207Q481.0 207 480.7 206.7Q480.3 206.3 480.3 205.6L480.3 205.6L480.3 203.9Q480.3 203.2 480.6 202.8Q481.0 202.5 481.7 202.5L481.7 202.5L482.1 202.5Q482.8 202.5 483.1 202.9Q483.4 203.2 483.4 203.9L483.4 203.9L483.4 205.1L481.1 205.1L481.1 205.7Q481.1 206.0 481.2 206.2Q481.4 206.3 481.7 206.3L481.7 206.3L483.2 206.3L483.2 207L481.8 207ZM482.7 204.4L482.7 203.7Q482.7 203.5 482.5 203.3Q482.4 203.2 482.2 203.2L482.2 203.2L481.6 203.2Q481.3 203.2 481.2 203.3Q481.1 203.5 481.1 203.8L481.1 203.8L481.1 204.4L482.7 204.4ZM485.2 206.3L485.9 206.3L485.9 203.2L485.2 203.2L485.2 202.5L486.6 202.5L486.6 202.7Q486.9 202.5 487.3 202.5L487.3 202.5L488.2 202.5L488.2 203.2L487.2 203.2Q486.9 203.2 486.8 203.4Q486.6 203.6 486.6 203.8L486.6 203.8L486.6 206.3L487.6 206.3L487.6 207L485.2 207L485.2 206.3Z "/></g><mask id="satori_om-id-19"><rect x="536" y="150" width="64" height="44" fill="#fff"/></mask><mask id="satori_om-id-19-0"><rect x="536" y="150" width="64" height="44" fill="#fff"/></mask><rect x="536" y="150" width="64" height="44" fill="rgba(255,255,255,1)"/><mask id="satori_om-id-19-1"><rect x="536" y="150" width="64" height="1" fill="#fff"/></mask><rect x="536" y="150" width="64" height="1" fill="rgba(0,0,0,1)"/><mask id="satori_om-id-19-2"><rect x="599" y="150" width="1" height="44" fill="#fff"/></mask><rect x="599" y="150" width="1" height="44" fill="rgba(0,0,0,1)"/><mask id="satori_om-id-19-3"><rect x="536" y="193" width="64" height="1" fill="#fff"/></mask><rect x="536" y="193" width="64" height="1" fill="rgba(0,0,0,1)"/><mask id="satori_om-id-19-4"><rect x="536" y="150" width="1" height="44" fill="#fff"/></mask><rect x="536" y="150" width="1" height="44" fill="rgba(0,0,0,1)"/><mask id="satori_om-id-20"><rect x="536" y="199" width="20" height="10" fill="#fff"/></mask><g  ><path fill="rgba(51,51,51,1)" d="M538.6 207Q537.8 207 537.4 206.7Q537.1 206.3 537.1 205.6L537.1 205.6L537.1 203.9Q537.1 203.2 537.5 202.8Q537.8 202.5 538.6 202.5L538.6 202.5L539.8 202.5L539.8 203.2L538.5 203.2Q538.2 203.2 538.0 203.3Q537.8 203.5 537.8 203.8L537.8 203.8L537.8 205.7Q537.8 206.0 538.0 206.2Q538.2 206.3 538.5 206.3L538.5 206.3L539.8 206.3L539.8 207L538.6 207ZM544.6 207Q544.5 207 544.4 206.9Q544.2 206.9 544.1 206.7L544.1 206.7Q543.9 207 543.6 207L543.6 207L542.8 207Q542.1 207 541.8 206.7Q541.5 206.5 541.5 205.8L541.5 205.8L541.5 205.6Q541.5 204.2 542.8 204.2L542.8 204.2L543.9 204.2L543.9 203.8Q543.9 203.5 543.7 203.3Q543.6 203.2 543.2 203.2L543.2 203.2L541.8 203.2L541.8 202.5L543.1 202.5Q543.9 202.5 544.3 202.8Q544.7 203.2 544.7 203.9L544.7 203.9L544.7 206.1Q544.7 206.2 544.8 206.3Q544.9 206.4 545.1 206.4L545.1 206.4L545.1 207L544.6 207ZM543.5 206.3Q543.7 206.3 543.8 206.2Q543.9 206.1 543.9 205.9L543.9 205.9L543.9 204.9L542.8 204.9Q542.5 204.9 542.4 205.0Q542.2 205.2 542.2 205.4L542.2 205.4L542.2 205.9Q542.2 206.1 542.3 206.2Q542.4 206.3 542.7 206.3L542.7 206.3L543.5 206.3ZM546.6 206.3L547.3 206.3L547.3 203.2L546.6 203.2L546.6 202.5L548.0 202.5L548.0 202.7Q548.3 202.5 548.7 202.5L548.7 202.5L549.6 202.5L549.6 203.2L548.6 203.2Q548.3 203.2 548.2 203.4Q548.1 203.6 548.0 203.8L548.0 203.8L548.0 206.3L549.0 206.3L549.0 207L546.6 207L546.6 206.3ZM554.0 206.8Q553.7 207 553.2 207L553.2 207L552.9 207Q552.1 207 551.7 206.7Q551.3 206.3 551.3 205.6L551.3 205.6L551.3 203.9Q551.3 203.2 551.7 202.8Q552.1 202.5 552.9 202.5L552.9 202.5L553.9 202.5L553.9 200.7L554.7 200.7L554.7 207L554.0 207L554.0 206.8ZM553.3 206.3Q553.6 206.3 553.8 206.2Q553.9 206.0 553.9 205.8L553.9 205.8L553.9 203.2L552.8 203.2Q552.4 203.2 552.3 203.3Q552.1 203.5 552.1 203.8L552.1 203.8L552.1 205.7Q552.1 206.0 552.3 206.2Q552.4 206.3 552.8 206.3L552.8 206.3L553.3 206.3Z "/></g><mask id="satori_om-id-21"><rect x="40" y="264" width="50" height="11" fill="#fff"/></mask><g  ><path fill="rgba(51,51,51,1)" d="M43.1 273L42.3 273L42.3 266.8L40.7 266.8L40.7 266L44.7 266L44.7 266.8L43.1 266.8L43.1 273ZM50.9 269.8L48.9 269.8L48.9 273L48.0 273L48.0 266L48.9 266L48.9 269.0L50.9 269.0L50.9 266L51.8 266L51.8 273L50.9 273L50.9 269.8ZM55.4 266L58.8 266L58.8 266.7L56.3 266.7L56.3 269.0L58.5 269.0L58.5 269.8L56.3 269.8L56.3 272.3L58.8 272.3L58.8 273L55.4 273L55.4 266Z M68.2 266L69.0 266L69.0 272.2L71.3 272.2L71.3 273L68.2 273L68.2 266ZM77.9 271.2L75.9 271.2L75.5 273L74.7 273L76.3 266L77.5 266L79.2 273L78.3 273L77.9 271.2ZM76.1 270.5L77.7 270.5L76.9 266.7L76.1 270.5ZM84.7 273L84.1 270.2L83.5 273L82.3 273L81.9 266L82.7 266L83.0 272.3L83.8 268.9L84.4 268.9L85.3 272.3L85.6 266L86.3 266L85.9 273L84.7 273Z "/></g><mask id="satori_om-id-22"><rect x="156" y="242" width="442" height="15" fill="#fff"/></mask><g  ><path fill="rgba(51,51,51,1)" d="M159.4 254.1L159.4 254.1Q158.7 254.1 158.1 253.8Q157.6 253.5 157.3 253.0Q157.0 252.4 157.0 251.7L157.0 251.7L157.0 250.0Q157.0 249.2 157.3 248.7Q157.6 248.2 158.1 247.9Q158.7 247.6 159.4 247.6L159.4 247.6Q160.2 247.6 160.8 247.9Q161.3 248.2 161.6 248.7Q161.9 249.2 161.9 250.0L161.9 250.0L161.9 251.7Q161.9 252.4 161.6 253.0Q161.3 253.5 160.8 253.8Q160.2 254.1 159.4 254.1ZM159.4 253.2L159.4 253.2Q160.1 253.2 160.5 252.8Q160.9 252.4 160.9 251.7L160.9 251.7L160.9 250.0Q160.9 249.3 160.5 248.9Q160.1 248.5 159.4 248.5L159.4 248.5Q158.8 248.5 158.4 248.9Q158.0 249.3 158.0 250.0L158.0 250.0L158.0 251.7Q158.0 252.4 158.4 252.8Q158.8 253.2 159.4 253.2ZM165.0 254L164.0 254L164.0 247.7L165.0 247.7L165.0 248.9L165.0 248.9Q165.1 248.3 165.4 248.0L165.4 248.0Q165.9 247.6 166.7 247.6L166.7 247.6Q167.6 247.6 168.2 248.1Q168.8 248.7 168.8 249.7L168.8 249.7L168.8 254L167.7 254L167.7 249.9Q167.7 249.2 167.4 248.8Q167.0 248.5 166.4 248.5L166.4 248.5Q165.7 248.5 165.4 248.8Q165.0 249.2 165.0 250.0L165.0 250.0L165.0 254ZM173.3 254.1L173.3 254.1Q172.5 254.1 171.9 253.8Q171.4 253.5 171.1 253.0Q170.8 252.4 170.8 251.7L170.8 251.7L170.8 250.0Q170.8 249.2 171.1 248.7Q171.4 248.2 171.9 247.9Q172.5 247.6 173.3 247.6Q174.0 247.6 174.6 247.9Q175.1 248.2 175.4 248.7Q175.7 249.2 175.7 250.0L175.7 250.0L175.7 251.1L171.8 251.1L171.8 251.7Q171.8 252.4 172.2 252.8Q172.5 253.2 173.3 253.2L173.3 253.2Q173.8 253.2 174.2 253.0Q174.6 252.8 174.7 252.4L174.7 252.4L175.7 252.4Q175.6 253.2 174.9 253.6Q174.3 254.1 173.3 254.1ZM171.8 250.3L174.7 250.3L174.7 250.0Q174.7 249.2 174.3 248.8Q174.0 248.4 173.3 248.4L173.3 248.4Q172.5 248.4 172.2 248.8Q171.8 249.2 171.8 250.0L171.8 250.0L171.8 250.3Z M185.7 254L184.7 254L184.7 245.6L185.7 245.6L185.7 248.9L185.7 248.9Q185.8 248.3 186.1 248.0L186.1 248.0Q186.6 247.6 187.4 247.6L187.4 247.6Q188.3 247.6 188.9 248.1Q189.5 248.7 189.5 249.7L189.5 249.7L189.5 254L188.4 254L188.4 249.9Q188.4 249.2 188.1 248.8Q187.7 248.4 187.1 248.4L187.1 248.4Q186.4 248.4 186.1 248.8Q185.7 249.2 185.7 250.0L185.7 250.0L185.7 254ZM193.9 254.1L193.9 254.1Q192.8 254.1 192.2 253.5Q191.5 252.8 191.5 251.7L191.5 251.7L191.5 247.7L192.6 247.7L192.6 251.7Q192.6 252.4 192.9 252.8Q193.3 253.2 193.9 253.2L193.9 253.2Q194.6 253.2 195.0 252.8Q195.3 252.4 195.3 251.7L195.3 251.7L195.3 247.7L196.4 247.7L196.4 251.7Q196.4 252.8 195.7 253.5Q195.0 254.1 193.9 254.1ZM200.8 254.1L200.8 254.1Q200.1 254.1 199.5 253.8Q199.0 253.5 198.7 253.0Q198.4 252.4 198.4 251.7L198.4 251.7L198.4 250.0Q198.4 249.2 198.7 248.7Q199.0 248.2 199.5 247.9Q200.1 247.6 200.8 247.6Q201.6 247.6 202.2 247.9Q202.7 248.2 203.0 248.7Q203.3 249.2 203.3 250.0L203.3 250.0L203.3 251.1L199.4 251.1L199.4 251.7Q199.4 252.4 199.8 252.8Q200.1 253.2 200.8 253.2L200.8 253.2Q201.4 253.2 201.8 253.0Q202.2 252.8 202.3 252.4L202.3 252.4L203.3 252.4Q203.2 253.2 202.5 253.6Q201.9 254.1 200.8 254.1ZM199.4 250.3L202.3 250.3L202.3 250.0Q202.3 249.2 201.9 248.8Q201.6 248.4 200.8 248.4L200.8 248.4Q200.1 248.4 199.8 248.8Q199.4 249.2 199.4 250.0L199.4 250.0L199.4 250.3Z M217.6 254L212.2 254L212.2 253.1L214.4 253.1L214.4 248.6L212.5 248.6L212.5 247.7L215.5 247.7L215.5 253.1L217.6 253.1L217.6 254ZM214.8 246.5L214.8 246.5Q214.4 246.5 214.2 246.3Q214.0 246.1 214.0 245.8L214.0 245.8Q214.0 245.5 214.2 245.3Q214.4 245.1 214.8 245.1L214.8 245.1Q215.2 245.1 215.4 245.3Q215.6 245.5 215.6 245.8L215.6 245.8Q215.6 246.1 215.4 246.3Q215.2 246.5 214.8 246.5ZM221.8 254.1L221.4 254.1Q220.7 254.1 220.2 253.9Q219.8 253.7 219.5 253.3Q219.2 253.0 219.1 252.4L219.1 252.4L220.2 252.4Q220.2 252.8 220.5 253.0Q220.8 253.2 221.4 253.2L221.4 253.2L221.8 253.2Q222.4 253.2 222.7 252.9Q223.0 252.7 223.0 252.3L223.0 252.3Q223.0 251.9 222.8 251.6Q222.5 251.4 222.0 251.3L222.0 251.3L221.1 251.2Q220.2 251.0 219.7 250.6Q219.3 250.2 219.3 249.4L219.3 249.4Q219.3 248.5 219.8 248.0Q220.4 247.6 221.4 247.6L221.4 247.6L221.9 247.6Q222.8 247.6 223.3 248.0Q223.9 248.4 224.0 249.2L224.0 249.2L223.0 249.2Q222.9 248.9 222.6 248.7Q222.4 248.5 221.9 248.5L221.9 248.5L221.4 248.5Q220.9 248.5 220.6 248.7Q220.3 248.9 220.3 249.4L220.3 249.4Q220.3 249.8 220.5 250.0Q220.8 250.1 221.3 250.2L221.3 250.2L222.1 250.4Q223.1 250.5 223.6 251.0Q224.1 251.4 224.1 252.2L224.1 252.2Q224.1 253.1 223.5 253.6Q223.0 254.1 221.8 254.1L221.8 254.1Z M237.8 254L236.0 254Q235.2 254 234.8 253.6Q234.3 253.1 234.3 252.3L234.3 252.3L234.3 248.6L232.5 248.6L232.5 247.7L234.3 247.7L234.3 245.9L235.3 245.9L235.3 247.7L237.9 247.7L237.9 248.6L235.3 248.6L235.3 252.3Q235.3 253.1 236.0 253.1L236.0 253.1L237.8 253.1L237.8 254ZM240.9 254L239.9 254L239.9 245.6L240.9 245.6L240.9 248.9L240.9 248.9Q241.0 248.3 241.3 248.0L241.3 248.0Q241.8 247.6 242.6 247.6L242.6 247.6Q243.5 247.6 244.1 248.1Q244.7 248.7 244.7 249.7L244.7 249.7L244.7 254L243.6 254L243.6 249.9Q243.6 249.2 243.3 248.8Q242.9 248.4 242.3 248.4L242.3 248.4Q241.6 248.4 241.3 248.8Q240.9 249.2 240.9 250.0L240.9 250.0L240.9 254ZM249.1 254.1L249.1 254.1Q248.4 254.1 247.8 253.8Q247.3 253.5 247.0 253.0Q246.7 252.4 246.7 251.7L246.7 251.7L246.7 250.0Q246.7 249.2 247.0 248.7Q247.3 248.2 247.8 247.9Q248.4 247.6 249.1 247.6Q249.9 247.6 250.5 247.9Q251.0 248.2 251.3 248.7Q251.6 249.2 251.6 250.0L251.6 250.0L251.6 251.1L247.7 251.1L247.7 251.7Q247.7 252.4 248.1 252.8Q248.4 253.2 249.1 253.2L249.1 253.2Q249.7 253.2 250.1 253.0Q250.5 252.8 250.6 252.4L250.6 252.4L251.6 252.4Q251.5 253.2 250.8 253.6Q250.2 254.1 249.1 254.1ZM247.7 250.3L250.6 250.3L250.6 250.0Q250.6 249.2 250.2 248.8Q249.9 248.4 249.1 248.4L249.1 248.4Q248.4 248.4 248.1 248.8Q247.7 249.2 247.7 250.0L247.7 250.0L247.7 250.3Z M262.1 254L260.9 254L259.9 247.7L260.8 247.7L261.5 252.2Q261.5 252.4 261.5 252.7Q261.6 253.0 261.6 253.2L261.6 253.2Q261.6 253.0 261.7 252.7Q261.7 252.4 261.8 252.2L261.8 252.2L262.5 247.7L263.4 247.7L264.1 252.2Q264.2 252.4 264.2 252.7Q264.3 253.0 264.3 253.2L264.3 253.2Q264.3 253.0 264.4 252.7Q264.4 252.4 264.5 252.2L264.5 252.2L265.1 247.7L266.0 247.7L264.9 254L263.8 254L263.1 249.6Q263.1 249.3 263.0 249.0Q263.0 248.7 262.9 248.5L262.9 248.5Q262.9 248.7 262.9 249.0Q262.8 249.3 262.8 249.6L262.8 249.6L262.1 254ZM268.5 254L267.5 254L267.5 245.6L268.5 245.6L268.5 248.9L268.5 248.9Q268.6 248.3 268.9 248.0L268.9 248.0Q269.4 247.6 270.2 247.6L270.2 247.6Q271.1 247.6 271.7 248.1Q272.3 248.7 272.3 249.7L272.3 249.7L272.3 254L271.2 254L271.2 249.9Q271.2 249.2 270.9 248.8Q270.5 248.4 269.9 248.4L269.9 248.4Q269.2 248.4 268.9 248.8Q268.5 249.2 268.5 250.0L268.5 250.0L268.5 254ZM276.7 254.1L276.7 254.1Q276.0 254.1 275.4 253.8Q274.9 253.5 274.6 253.0Q274.3 252.4 274.3 251.7L274.3 251.7L274.3 250.0Q274.3 249.2 274.6 248.7Q274.9 248.2 275.4 247.9Q276.0 247.6 276.7 247.6L276.7 247.6Q277.5 247.6 278.1 247.9Q278.6 248.2 278.9 248.7Q279.2 249.2 279.2 250.0L279.2 250.0L279.2 251.7Q279.2 252.4 278.9 253.0Q278.6 253.5 278.1 253.8Q277.5 254.1 276.7 254.1ZM276.7 253.2L276.7 253.2Q277.4 253.2 277.8 252.8Q278.2 252.4 278.2 251.7L278.2 251.7L278.2 250.0Q278.2 249.3 277.8 248.9Q277.4 248.5 276.7 248.5L276.7 248.5Q276.1 248.5 275.7 248.9Q275.3 249.3 275.3 250.0L275.3 250.0L275.3 251.7Q275.3 252.4 275.7 252.8Q276.1 253.2 276.7 253.2ZM286.5 254L284.5 254Q284.0 254 283.5 253.8Q283.1 253.6 282.9 253.2Q282.7 252.8 282.7 252.2L282.7 252.2L282.7 246.5L280.5 246.5L280.5 245.6L283.7 245.6L283.7 252.2Q283.7 252.6 283.9 252.8Q284.1 253.1 284.5 253.1L284.5 253.1L286.5 253.1L286.5 254ZM290.5 254.1L290.5 254.1Q289.8 254.1 289.2 253.8Q288.7 253.5 288.4 253.0Q288.1 252.4 288.1 251.7L288.1 251.7L288.1 250.0Q288.1 249.2 288.4 248.7Q288.7 248.2 289.2 247.9Q289.8 247.6 290.5 247.6Q291.3 247.6 291.9 247.9Q292.4 248.2 292.7 248.7Q293.0 249.2 293.0 250.0L293.0 250.0L293.0 251.1L289.1 251.1L289.1 251.7Q289.1 252.4 289.5 252.8Q289.8 253.2 290.5 253.2L290.5 253.2Q291.1 253.2 291.5 253.0Q291.9 252.8 292.0 252.4L292.0 252.4L293.0 252.4Q292.9 253.2 292.2 253.6Q291.6 254.1 290.5 254.1ZM289.1 250.3L292.0 250.3L292.0 250.0Q292.0 249.2 291.6 248.8Q291.3 248.4 290.5 248.4L290.5 248.4Q289.8 248.4 289.5 248.8Q289.1 249.2 289.1 250.0L289.1 250.0L289.1 250.3Z M307.3 254L301.9 254L301.9 253.1L304.1 253.1L304.1 248.6L302.2 248.6L302.2 247.7L305.2 247.7L305.2 253.1L307.3 253.1L307.3 254ZM304.5 246.5L304.5 246.5Q304.1 246.5 303.9 246.3Q303.7 246.1 303.7 245.8L303.7 245.8Q303.7 245.5 303.9 245.3Q304.1 245.1 304.5 245.1L304.5 245.1Q304.9 245.1 305.1 245.3Q305.3 245.5 305.3 245.8L305.3 245.8Q305.3 246.1 305.1 246.3Q304.9 246.5 304.5 246.5ZM310.9 254.1L310.9 254.1Q309.9 254.1 309.4 253.5Q308.8 252.8 308.8 251.8L308.8 251.8L308.8 249.9Q308.8 248.8 309.4 248.2Q309.9 247.6 310.9 247.6L310.9 247.6Q311.7 247.6 312.1 248.0L312.1 248.0Q312.5 248.3 312.6 248.9L312.6 248.9L312.6 248.9L312.6 247.4L312.6 245.6L313.6 245.6L313.6 254L312.6 254L312.6 252.8L312.6 252.8Q312.5 253.3 312.1 253.7L312.1 253.7Q311.7 254.1 310.9 254.1ZM311.2 253.2L311.2 253.2Q311.9 253.2 312.2 252.8Q312.6 252.4 312.6 251.7L312.6 251.7L312.6 250.0Q312.6 249.3 312.2 248.9Q311.9 248.5 311.2 248.5L311.2 248.5Q310.6 248.5 310.2 248.8Q309.8 249.2 309.8 250.0L309.8 250.0L309.8 251.7Q309.8 252.4 310.2 252.8Q310.6 253.2 311.2 253.2ZM318.1 254.1L318.1 254.1Q317.4 254.1 316.8 253.8Q316.3 253.5 316.0 253.0Q315.7 252.4 315.7 251.7L315.7 251.7L315.7 250.0Q315.7 249.2 316.0 248.7Q316.3 248.2 316.8 247.9Q317.4 247.6 318.1 247.6Q318.9 247.6 319.5 247.9Q320.0 248.2 320.3 248.7Q320.6 249.2 320.6 250.0L320.6 250.0L320.6 251.1L316.7 251.1L316.7 251.7Q316.7 252.4 317.1 252.8Q317.4 253.2 318.1 253.2L318.1 253.2Q318.7 253.2 319.1 253.0Q319.5 252.8 319.6 252.4L319.6 252.4L320.6 252.4Q320.5 253.2 319.8 253.6Q319.2 254.1 318.1 254.1ZM316.7 250.3L319.6 250.3L319.6 250.0Q319.6 249.2 319.2 248.8Q318.9 248.4 318.1 248.4L318.1 248.4Q317.4 248.4 317.1 248.8Q316.7 249.2 316.7 250.0L316.7 250.0L316.7 250.3ZM323.7 254L322.7 254L322.7 247.7L323.7 247.7L323.7 248.9L323.7 248.9Q323.8 248.3 324.1 248.0L324.1 248.0Q324.6 247.6 325.4 247.6L325.4 247.6Q326.3 247.6 326.9 248.1Q327.5 248.7 327.5 249.7L327.5 249.7L327.5 254L326.4 254L326.4 249.9Q326.4 249.2 326.1 248.8Q325.7 248.5 325.1 248.5L325.1 248.5Q324.4 248.5 324.1 248.8Q323.7 249.2 323.7 250.0L323.7 250.0L323.7 254ZM334.4 254L332.6 254Q331.8 254 331.4 253.6Q330.9 253.1 330.9 252.3L330.9 252.3L330.9 248.6L329.1 248.6L329.1 247.7L330.9 247.7L330.9 245.9L331.9 245.9L331.9 247.7L334.5 247.7L334.5 248.6L331.9 248.6L331.9 252.3Q331.9 253.1 332.6 253.1L332.6 253.1L334.4 253.1L334.4 254ZM341.8 254L336.4 254L336.4 253.1L338.6 253.1L338.6 248.6L336.7 248.6L336.7 247.7L339.7 247.7L339.7 253.1L341.8 253.1L341.8 254ZM339.0 246.5L339.0 246.5Q338.6 246.5 338.4 246.3Q338.2 246.1 338.2 245.8L338.2 245.8Q338.2 245.5 338.4 245.3Q338.6 245.1 339.0 245.1L339.0 245.1Q339.4 245.1 339.6 245.3Q339.8 245.5 339.8 245.8L339.8 245.8Q339.8 246.1 339.6 246.3Q339.4 246.5 339.0 246.5ZM348.2 254L346.4 254Q345.6 254 345.2 253.6Q344.7 253.1 344.7 252.3L344.7 252.3L344.7 248.6L342.9 248.6L342.9 247.7L344.7 247.7L344.7 245.9L345.7 245.9L345.7 247.7L348.3 247.7L348.3 248.6L345.7 248.6L345.7 252.3Q345.7 253.1 346.4 253.1L346.4 253.1L348.2 253.1L348.2 254ZM352.4 256.1L351.2 256.1L352.2 253.6L349.8 247.7L351.0 247.7L352.5 251.6Q352.5 251.8 352.6 252.1Q352.7 252.3 352.7 252.5L352.7 252.5Q352.8 252.3 352.8 252.1Q352.9 251.8 353.0 251.6L353.0 251.6L354.4 247.7L355.5 247.7L352.4 256.1Z M369.9 250.7L363 250.7L363 249.7L369.9 249.7L369.9 250.7Z M380.2 254.1L380.2 254.1Q379.5 254.1 378.9 253.8Q378.4 253.5 378.1 253.0Q377.8 252.4 377.8 251.7L377.8 251.7L377.8 247.9Q377.8 247.1 378.1 246.6Q378.4 246.1 378.9 245.8Q379.5 245.5 380.2 245.5L380.2 245.5Q381.0 245.5 381.6 245.8Q382.1 246.1 382.4 246.6Q382.7 247.1 382.7 247.9L382.7 247.9L382.7 251.7Q382.7 252.4 382.4 253.0Q382.1 253.5 381.6 253.8Q381.0 254.1 380.2 254.1ZM380.2 253.2L380.2 253.2Q380.9 253.2 381.3 252.8Q381.7 252.4 381.7 251.7L381.7 251.7L381.7 247.9Q381.7 247.2 381.3 246.8Q380.9 246.4 380.2 246.4L380.2 246.4Q379.6 246.4 379.2 246.8Q378.8 247.2 378.8 247.9L378.8 247.9L378.8 251.7Q378.8 252.4 379.2 252.8Q379.6 253.2 380.2 253.2ZM385.8 254L384.8 254L384.8 245.6L385.8 245.6L385.8 249.2L387.0 249.2L388.9 245.6L390.0 245.6L387.9 249.6L390.1 254L389.0 254L387.0 250.1L385.8 250.1L385.8 254ZM396.8 254L391.9 254L391.9 245.6L393.0 245.6L393.0 253.1L396.8 253.1L396.8 254ZM401.0 254.1L401.0 254.1Q400.2 254.1 399.7 253.8Q399.1 253.5 398.8 253.0Q398.5 252.4 398.5 251.7L398.5 251.7L398.5 247.9Q398.5 247.1 398.8 246.6Q399.1 246.1 399.7 245.8Q400.2 245.5 401.0 245.5L401.0 245.5Q401.8 245.5 402.3 245.8Q402.9 246.1 403.2 246.6Q403.5 247.2 403.5 247.9L403.5 247.9L402.4 247.9Q402.4 247.2 402.0 246.8Q401.7 246.4 401.0 246.4L401.0 246.4Q400.3 246.4 399.9 246.8Q399.5 247.2 399.5 247.9L399.5 247.9L399.5 251.7Q399.5 252.4 399.9 252.8Q400.3 253.2 401.0 253.2L401.0 253.2Q401.7 253.2 402.0 252.8Q402.4 252.4 402.4 251.7L402.4 251.7L403.5 251.7Q403.5 252.4 403.2 253.0Q402.9 253.5 402.3 253.8Q401.8 254.1 401.0 254.1ZM406.5 254L405.5 254L405.5 245.6L406.5 245.6L406.5 249.2L409.2 249.2L409.2 245.6L410.2 245.6L410.2 254L409.2 254L409.2 250.1L406.5 250.1L406.5 254Z M421.6 254.1L421.6 254.1Q420.9 254.1 420.3 253.8Q419.8 253.5 419.5 253.0Q419.2 252.4 419.2 251.7L419.2 251.7L419.2 250.0Q419.2 249.2 419.5 248.7Q419.8 248.2 420.3 247.9Q420.9 247.6 421.6 247.6Q422.4 247.6 423.0 247.9Q423.5 248.2 423.8 248.7Q424.1 249.2 424.1 250.0L424.1 250.0L424.1 251.1L420.2 251.1L420.2 251.7Q420.2 252.4 420.6 252.8Q420.9 253.2 421.6 253.2L421.6 253.2Q422.2 253.2 422.6 253.0Q423.0 252.8 423.1 252.4L423.1 252.4L424.1 252.4Q424.0 253.2 423.3 253.6Q422.7 254.1 421.6 254.1ZM420.2 250.3L423.1 250.3L423.1 250.0Q423.1 249.2 422.7 248.8Q422.4 248.4 421.6 248.4L421.6 248.4Q420.9 248.4 420.6 248.8Q420.2 249.2 420.2 250.0L420.2 250.0L420.2 250.3ZM429.3 254L427.8 254L425.7 247.7L426.8 247.7L428.2 251.9Q428.3 252.3 428.4 252.7Q428.5 253.0 428.6 253.2L428.6 253.2Q428.6 253.0 428.7 252.7Q428.8 252.3 429.0 251.9L429.0 251.9L430.3 247.7L431.4 247.7L429.3 254ZM435.4 254.1L435.4 254.1Q434.7 254.1 434.1 253.8Q433.6 253.5 433.3 253.0Q433.0 252.4 433.0 251.7L433.0 251.7L433.0 250.0Q433.0 249.2 433.3 248.7Q433.6 248.2 434.1 247.9Q434.7 247.6 435.4 247.6Q436.2 247.6 436.8 247.9Q437.3 248.2 437.6 248.7Q437.9 249.2 437.9 250.0L437.9 250.0L437.9 251.1L434.0 251.1L434.0 251.7Q434.0 252.4 434.4 252.8Q434.7 253.2 435.4 253.2L435.4 253.2Q436.0 253.2 436.4 253.0Q436.8 252.8 436.9 252.4L436.9 252.4L437.9 252.4Q437.8 253.2 437.1 253.6Q436.5 254.1 435.4 254.1ZM434.0 250.3L436.9 250.3L436.9 250.0Q436.9 249.2 436.5 248.8Q436.2 248.4 435.4 248.4L435.4 248.4Q434.7 248.4 434.4 248.8Q434.0 249.2 434.0 250.0L434.0 250.0L434.0 250.3ZM441.2 254L440.2 254L440.2 247.7L441.2 247.7L441.2 248.8Q441.3 248.4 441.5 248.1L441.5 248.1Q442.0 247.6 442.9 247.6L442.9 247.6Q443.9 247.6 444.4 248.2Q445.0 248.8 445.0 249.9L445.0 249.9L445.0 250.3L444.0 250.3L444.0 250.0Q444.0 249.2 443.6 248.8Q443.3 248.4 442.6 248.4L442.6 248.4Q442.0 248.4 441.6 248.8Q441.2 249.2 441.2 250.0L441.2 250.0L441.2 254ZM449.0 256.1L447.8 256.1L448.8 253.6L446.4 247.7L447.6 247.7L449.1 251.6Q449.1 251.8 449.2 252.1Q449.3 252.3 449.3 252.5L449.3 252.5Q449.4 252.3 449.4 252.1Q449.5 251.8 449.6 251.6L449.6 251.6L451.0 247.7L452.1 247.7L449.0 256.1ZM455.3 254L454.1 254L453.1 247.7L454.0 247.7L454.7 252.2Q454.7 252.4 454.7 252.7Q454.8 253.0 454.8 253.2L454.8 253.2Q454.8 253.0 454.9 252.7Q454.9 252.4 455.0 252.2L455.0 252.2L455.7 247.7L456.6 247.7L457.3 252.2Q457.4 252.4 457.4 252.7Q457.5 253.0 457.5 253.2L457.5 253.2Q457.5 253.0 457.6 252.7Q457.6 252.4 457.7 252.2L457.7 252.2L458.3 247.7L459.2 247.7L458.1 254L457.0 254L456.3 249.6Q456.3 249.3 456.2 249.0Q456.2 248.7 456.1 248.5L456.1 248.5Q456.1 248.7 456.1 249.0Q456.0 249.3 456.0 249.6L456.0 249.6L455.3 254ZM461.7 254L460.7 254L460.7 245.6L461.7 245.6L461.7 248.9L461.7 248.9Q461.8 248.3 462.1 248.0L462.1 248.0Q462.6 247.6 463.4 247.6L463.4 247.6Q464.3 247.6 464.9 248.1Q465.5 248.7 465.5 249.7L465.5 249.7L465.5 254L464.4 254L464.4 249.9Q464.4 249.2 464.1 248.8Q463.7 248.4 463.1 248.4L463.1 248.4Q462.4 248.4 462.1 248.8Q461.7 249.2 461.7 250.0L461.7 250.0L461.7 254ZM469.9 254.1L469.9 254.1Q469.2 254.1 468.6 253.8Q468.1 253.5 467.8 253.0Q467.5 252.4 467.5 251.7L467.5 251.7L467.5 250.0Q467.5 249.2 467.8 248.7Q468.1 248.2 468.6 247.9Q469.2 247.6 469.9 247.6Q470.7 247.6 471.3 247.9Q471.8 248.2 472.1 248.7Q472.4 249.2 472.4 250.0L472.4 250.0L472.4 251.1L468.5 251.1L468.5 251.7Q468.5 252.4 468.9 252.8Q469.2 253.2 469.9 253.2L469.9 253.2Q470.5 253.2 470.9 253.0Q471.3 252.8 471.4 252.4L471.4 252.4L472.4 252.4Q472.3 253.2 471.6 253.6Q471.0 254.1 469.9 254.1ZM468.5 250.3L471.4 250.3L471.4 250.0Q471.4 249.2 471.0 248.8Q470.7 248.4 469.9 248.4L469.9 248.4Q469.2 248.4 468.9 248.8Q468.5 249.2 468.5 250.0L468.5 250.0L468.5 250.3ZM475.7 254L474.7 254L474.7 247.7L475.7 247.7L475.7 248.8Q475.8 248.4 476.0 248.1L476.0 248.1Q476.5 247.6 477.4 247.6L477.4 247.6Q478.4 247.6 478.9 248.2Q479.5 248.8 479.5 249.9L479.5 249.9L479.5 250.3L478.5 250.3L478.5 250.0Q478.5 249.2 478.1 248.8Q477.8 248.4 477.1 248.4L477.1 248.4Q476.5 248.4 476.1 248.8Q475.7 249.2 475.7 250.0L475.7 250.0L475.7 254ZM483.7 254.1L483.7 254.1Q483.0 254.1 482.4 253.8Q481.9 253.5 481.6 253.0Q481.3 252.4 481.3 251.7L481.3 251.7L481.3 250.0Q481.3 249.2 481.6 248.7Q481.9 248.2 482.4 247.9Q483.0 247.6 483.7 247.6Q484.5 247.6 485.1 247.9Q485.6 248.2 485.9 248.7Q486.2 249.2 486.2 250.0L486.2 250.0L486.2 251.1L482.3 251.1L482.3 251.7Q482.3 252.4 482.7 252.8Q483.0 253.2 483.7 253.2L483.7 253.2Q484.3 253.2 484.7 253.0Q485.1 252.8 485.2 252.4L485.2 252.4L486.2 252.4Q486.1 253.2 485.4 253.6Q484.8 254.1 483.7 254.1ZM482.3 250.3L485.2 250.3L485.2 250.0Q485.2 249.2 484.8 248.8Q484.5 248.4 483.7 248.4L483.7 248.4Q483.0 248.4 482.7 248.8Q482.3 249.2 482.3 250.0L482.3 250.0L482.3 250.3ZM490.0 255.8L489.1 255.8L490.0 252.3L491.5 252.3L490.0 255.8Z M503.3 254L502.3 254L502.3 247.7L503.3 247.7L503.3 248.8Q503.4 248.4 503.6 248.1L503.6 248.1Q504.1 247.6 505.0 247.6L505.0 247.6Q506.0 247.6 506.5 248.2Q507.1 248.8 507.1 249.9L507.1 249.9L507.1 250.3L506.1 250.3L506.1 250.0Q506.1 249.2 505.7 248.8Q505.4 248.4 504.7 248.4L504.7 248.4Q504.1 248.4 503.7 248.8Q503.3 249.2 503.3 250.0L503.3 250.0L503.3 254ZM510.8 254.1L510.8 254.1Q509.8 254.1 509.2 253.6Q508.6 253.1 508.6 252.2L508.6 252.2Q508.6 251.3 509.2 250.8Q509.8 250.3 510.8 250.3L510.8 250.3L512.7 250.3L512.7 249.7Q512.7 249.1 512.4 248.8Q512.0 248.5 511.4 248.5L511.4 248.5Q510.8 248.5 510.4 248.7Q510.1 248.9 510.0 249.3L510.0 249.3L509.0 249.3Q509.1 248.5 509.7 248.0Q510.4 247.6 511.4 247.6L511.4 247.6Q512.5 247.6 513.1 248.1Q513.8 248.7 513.8 249.7L513.8 249.7L513.8 254L512.8 254L512.8 252.8L512.7 252.8Q512.7 253.4 512.2 253.7L512.2 253.7Q511.7 254.1 510.8 254.1ZM511.1 253.3L511.1 253.3Q511.8 253.3 512.3 252.9Q512.7 252.6 512.7 252.0L512.7 252.0L512.7 251.1L510.8 251.1Q510.3 251.1 510.0 251.4Q509.7 251.7 509.7 252.2L509.7 252.2Q509.7 252.7 510.0 253.0Q510.4 253.3 511.1 253.3ZM517.9 254.1L517.9 254.1Q516.9 254.1 516.4 253.5Q515.8 252.8 515.8 251.8L515.8 251.8L515.8 249.9Q515.8 248.8 516.4 248.2Q516.9 247.6 517.9 247.6L517.9 247.6Q518.7 247.6 519.1 248.0L519.1 248.0Q519.5 248.3 519.6 248.9L519.6 248.9L519.6 248.9L519.6 247.4L519.6 245.6L520.6 245.6L520.6 254L519.6 254L519.6 252.8L519.6 252.8Q519.5 253.3 519.1 253.7L519.1 253.7Q518.7 254.1 517.9 254.1ZM518.2 253.2L518.2 253.2Q518.9 253.2 519.2 252.8Q519.6 252.4 519.6 251.7L519.6 251.7L519.6 250.0Q519.6 249.3 519.2 248.9Q518.9 248.5 518.2 248.5L518.2 248.5Q517.6 248.5 517.2 248.8Q516.8 249.2 516.8 250.0L516.8 250.0L516.8 251.7Q516.8 252.4 517.2 252.8Q517.6 253.2 518.2 253.2ZM528.1 254L522.7 254L522.7 253.1L524.9 253.1L524.9 248.6L523.0 248.6L523.0 247.7L526.0 247.7L526.0 253.1L528.1 253.1L528.1 254ZM525.3 246.5L525.3 246.5Q524.9 246.5 524.7 246.3Q524.5 246.1 524.5 245.8L524.5 245.8Q524.5 245.5 524.7 245.3Q524.9 245.1 525.3 245.1L525.3 245.1Q525.7 245.1 525.9 245.3Q526.1 245.5 526.1 245.8L526.1 245.8Q526.1 246.1 525.9 246.3Q525.7 246.5 525.3 246.5ZM532.0 254.1L532.0 254.1Q530.9 254.1 530.3 253.5Q529.6 252.8 529.6 251.7L529.6 251.7L529.6 247.7L530.7 247.7L530.7 251.7Q530.7 252.4 531.0 252.8Q531.4 253.2 532.0 253.2L532.0 253.2Q532.7 253.2 533.1 252.8Q533.4 252.4 533.4 251.7L533.4 251.7L533.4 247.7L534.5 247.7L534.5 251.7Q534.5 252.8 533.8 253.5Q533.1 254.1 532.0 254.1ZM539.2 254.1L538.8 254.1Q538.1 254.1 537.6 253.9Q537.2 253.7 536.9 253.3Q536.6 253.0 536.5 252.4L536.5 252.4L537.6 252.4Q537.6 252.8 537.9 253.0Q538.2 253.2 538.8 253.2L538.8 253.2L539.2 253.2Q539.8 253.2 540.1 252.9Q540.4 252.7 540.4 252.3L540.4 252.3Q540.4 251.9 540.2 251.6Q539.9 251.4 539.4 251.3L539.4 251.3L538.5 251.2Q537.6 251.0 537.1 250.6Q536.7 250.2 536.7 249.4L536.7 249.4Q536.7 248.5 537.2 248.0Q537.8 247.6 538.8 247.6L538.8 247.6L539.3 247.6Q540.2 247.6 540.7 248.0Q541.3 248.4 541.4 249.2L541.4 249.2L540.4 249.2Q540.3 248.9 540.0 248.7Q539.8 248.5 539.3 248.5L539.3 248.5L538.8 248.5Q538.3 248.5 538.0 248.7Q537.7 248.9 537.7 249.4L537.7 249.4Q537.7 249.8 537.9 250.0Q538.2 250.1 538.7 250.2L538.7 250.2L539.5 250.4Q540.5 250.5 541.0 251.0Q541.5 251.4 541.5 252.2L541.5 252.2Q541.5 253.1 540.9 253.6Q540.4 254.1 539.2 254.1L539.2 254.1Z M552.8 254.1L552.8 254.1Q552.0 254.1 551.4 253.8Q550.8 253.5 550.5 252.9Q550.2 252.4 550.2 251.6L550.2 251.6L550.2 248.0Q550.2 247.2 550.5 246.7Q550.8 246.1 551.4 245.8Q552.0 245.5 552.8 245.5L552.8 245.5Q553.5 245.5 554.1 245.8Q554.7 246.1 555.0 246.7Q555.3 247.2 555.3 248.0L555.3 248.0L555.3 251.6Q555.3 252.4 555.0 252.9Q554.7 253.5 554.1 253.8Q553.5 254.1 552.8 254.1ZM552.8 253.2L552.8 253.2Q553.4 253.2 553.9 252.8Q554.3 252.3 554.3 251.6L554.3 251.6L554.3 248.0Q554.3 247.3 553.9 246.8Q553.4 246.4 552.8 246.4L552.8 246.4Q552.1 246.4 551.6 246.8Q551.2 247.3 551.2 248.0L551.2 248.0L551.2 251.6Q551.2 252.3 551.6 252.8Q552.1 253.2 552.8 253.2ZM552.8 250.5L552.8 250.5Q552.4 250.5 552.2 250.3Q552.1 250.1 552.1 249.8L552.1 249.8Q552.1 249.5 552.2 249.3Q552.4 249.1 552.8 249.1L552.8 249.1Q553.1 249.1 553.3 249.3Q553.4 249.5 553.4 249.8L553.4 249.8Q553.4 250.1 553.3 250.3Q553.1 250.5 552.8 250.5ZM559.0 255.8L558.1 255.8L559.0 252.3L560.5 252.3L559.0 255.8Z M572.1 254L571.1 254L571.1 245.6L572.1 245.6L572.1 248.9L572.1 248.9Q572.2 248.3 572.5 248.0L572.5 248.0Q573.0 247.6 573.8 247.6L573.8 247.6Q574.7 247.6 575.3 248.1Q575.9 248.7 575.9 249.7L575.9 249.7L575.9 254L574.8 254L574.8 249.9Q574.8 249.2 574.5 248.8Q574.1 248.4 573.5 248.4L573.5 248.4Q572.8 248.4 572.5 248.8Q572.1 249.2 572.1 250.0L572.1 250.0L572.1 254ZM579.8 254.1L579.8 254.1Q578.8 254.1 578.2 253.6Q577.6 253.1 577.6 252.2L577.6 252.2Q577.6 251.3 578.2 250.8Q578.8 250.3 579.8 250.3L579.8 250.3L581.7 250.3L581.7 249.7Q581.7 249.1 581.4 248.8Q581.0 248.5 580.4 248.5L580.4 248.5Q579.8 248.5 579.4 248.7Q579.1 248.9 579.0 249.3L579.0 249.3L578.0 249.3Q578.1 248.5 578.7 248.0Q579.4 247.6 580.4 247.6L580.4 247.6Q581.5 247.6 582.1 248.1Q582.8 248.7 582.8 249.7L582.8 249.7L582.8 254L581.8 254L581.8 252.8L581.7 252.8Q581.7 253.4 581.2 253.7L581.2 253.7Q580.7 254.1 579.8 254.1ZM580.1 253.3L580.1 253.3Q580.8 253.3 581.3 252.9Q581.7 252.6 581.7 252.0L581.7 252.0L581.7 251.1L579.8 251.1Q579.3 251.1 579.0 251.4Q578.7 251.7 578.7 252.2L578.7 252.2Q578.7 252.7 579.0 253.0Q579.4 253.3 580.1 253.3ZM586.1 254L585.1 254L585.1 247.7L586.1 247.7L586.1 248.8Q586.2 248.4 586.4 248.1L586.4 248.1Q586.9 247.6 587.8 247.6L587.8 247.6Q588.8 247.6 589.3 248.2Q589.9 248.8 589.9 249.9L589.9 249.9L589.9 250.3L588.9 250.3L588.9 250.0Q588.9 249.2 588.5 248.8Q588.2 248.4 587.5 248.4L587.5 248.4Q586.9 248.4 586.5 248.8Q586.1 249.2 586.1 250.0L586.1 250.0L586.1 254ZM593.8 254.1L593.8 254.1Q592.8 254.1 592.3 253.5Q591.7 252.8 591.7 251.8L591.7 251.8L591.7 249.9Q591.7 248.8 592.3 248.2Q592.8 247.6 593.8 247.6L593.8 247.6Q594.6 247.6 595.0 248.0L595.0 248.0Q595.4 248.3 595.5 248.9L595.5 248.9L595.5 248.9L595.5 247.4L595.5 245.6L596.5 245.6L596.5 254L595.5 254L595.5 252.8L595.5 252.8Q595.4 253.3 595.0 253.7L595.0 253.7Q594.6 254.1 593.8 254.1ZM594.1 253.2L594.1 253.2Q594.8 253.2 595.1 252.8Q595.5 252.4 595.5 251.7L595.5 251.7L595.5 250.0Q595.5 249.3 595.1 248.9Q594.8 248.5 594.1 248.5L594.1 248.5Q593.5 248.5 593.1 248.8Q592.7 249.2 592.7 250.0L592.7 250.0L592.7 251.7Q592.7 252.4 593.1 252.8Q593.5 253.2 594.1 253.2Z "/></g><mask id="satori_om-id-23"><rect x="156" y="262" width="414" height="15" fill="#fff"/></mask><g  ><path fill="rgba(51,51,51,1)" d="M159.4 274.1L159.4 274.1Q158.7 274.1 158.1 273.8Q157.6 273.5 157.3 273.0Q157.0 272.4 157.0 271.7L157.0 271.7L157.0 270.0Q157.0 269.2 157.3 268.7Q157.6 268.2 158.1 267.9Q158.7 267.6 159.4 267.6L159.4 267.6Q160.2 267.6 160.8 267.9Q161.3 268.2 161.6 268.7Q161.9 269.2 161.9 270.0L161.9 270.0L161.9 271.7Q161.9 272.4 161.6 273.0Q161.3 273.5 160.8 273.8Q160.2 274.1 159.4 274.1ZM159.4 273.2L159.4 273.2Q160.1 273.2 160.5 272.8Q160.9 272.4 160.9 271.7L160.9 271.7L160.9 270.0Q160.9 269.3 160.5 268.9Q160.1 268.5 159.4 268.5L159.4 268.5Q158.8 268.5 158.4 268.9Q158.0 269.3 158.0 270.0L158.0 270.0L158.0 271.7Q158.0 272.4 158.4 272.8Q158.8 273.2 159.4 273.2ZM166.5 274L165.4 274L165.4 269.3L163.6 269.3L163.6 268.3L165.4 268.3L165.4 267.2Q165.4 266.5 165.9 266.0Q166.4 265.6 167.2 265.6L167.2 265.6L169.1 265.6L169.1 266.5L167.2 266.5Q166.8 266.5 166.7 266.7Q166.5 266.9 166.5 267.2L166.5 267.2L166.5 268.3L169.1 268.3L169.1 269.3L166.5 269.3L166.5 274ZM173.4 274L172.3 274L172.3 269.3L170.5 269.3L170.5 268.3L172.3 268.3L172.3 267.2Q172.3 266.5 172.8 266.0Q173.3 265.6 174.1 265.6L174.1 265.6L176.0 265.6L176.0 266.5L174.1 266.5Q173.7 266.5 173.6 266.7Q173.4 266.9 173.4 267.2L173.4 267.2L173.4 268.3L176.0 268.3L176.0 269.3L173.4 269.3L173.4 274ZM180.4 274.1L180.0 274.1Q179.3 274.1 178.8 273.9Q178.4 273.7 178.1 273.3Q177.8 273.0 177.7 272.4L177.7 272.4L178.8 272.4Q178.8 272.8 179.1 273.0Q179.4 273.2 180.0 273.2L180.0 273.2L180.4 273.2Q181.0 273.2 181.3 272.9Q181.6 272.7 181.6 272.3L181.6 272.3Q181.6 271.9 181.4 271.6Q181.1 271.4 180.6 271.3L180.6 271.3L179.7 271.2Q178.8 271.0 178.3 270.6Q177.9 270.2 177.9 269.4L177.9 269.4Q177.9 268.5 178.4 268.0Q179.0 267.6 180.0 267.6L180.0 267.6L180.5 267.6Q181.4 267.6 181.9 268.0Q182.5 268.4 182.6 269.2L182.6 269.2L181.6 269.2Q181.5 268.9 181.2 268.7Q181.0 268.5 180.5 268.5L180.5 268.5L180.0 268.5Q179.5 268.5 179.2 268.7Q178.9 268.9 178.9 269.4L178.9 269.4Q178.9 269.8 179.1 270.0Q179.4 270.1 179.9 270.2L179.9 270.2L180.7 270.4Q181.7 270.5 182.2 271.0Q182.7 271.4 182.7 272.2L182.7 272.2Q182.7 273.1 182.1 273.6Q181.6 274.1 180.4 274.1L180.4 274.1ZM187.1 274.1L187.1 274.1Q186.3 274.1 185.7 273.8Q185.2 273.5 184.9 273.0Q184.6 272.4 184.6 271.7L184.6 271.7L184.6 270.0Q184.6 269.2 184.9 268.7Q185.2 268.2 185.7 267.9Q186.3 267.6 187.1 267.6Q187.8 267.6 188.4 267.9Q188.9 268.2 189.2 268.7Q189.5 269.2 189.5 270.0L189.5 270.0L189.5 271.1L185.6 271.1L185.6 271.7Q185.6 272.4 186.0 272.8Q186.3 273.2 187.1 273.2L187.1 273.2Q187.6 273.2 188.0 273.0Q188.4 272.8 188.5 272.4L188.5 272.4L189.5 272.4Q189.4 273.2 188.7 273.6Q188.1 274.1 187.1 274.1ZM185.6 270.3L188.5 270.3L188.5 270.0Q188.5 269.2 188.1 268.8Q187.8 268.4 187.1 268.4L187.1 268.4Q186.3 268.4 186.0 268.8Q185.6 269.2 185.6 270.0L185.6 270.0L185.6 270.3ZM196.4 274L194.6 274Q193.8 274 193.4 273.6Q192.9 273.1 192.9 272.3L192.9 272.3L192.9 268.6L191.1 268.6L191.1 267.7L192.9 267.7L192.9 265.9L194.0 265.9L194.0 267.7L196.5 267.7L196.5 268.6L194.0 268.6L194.0 272.3Q194.0 273.1 194.6 273.1L194.6 273.1L196.4 273.1L196.4 274Z M208.0 274.1L207.6 274.1Q206.9 274.1 206.4 273.9Q206.0 273.7 205.7 273.3Q205.4 273.0 205.3 272.4L205.3 272.4L206.4 272.4Q206.4 272.8 206.7 273.0Q207.0 273.2 207.6 273.2L207.6 273.2L208.0 273.2Q208.6 273.2 208.9 272.9Q209.2 272.7 209.2 272.3L209.2 272.3Q209.2 271.9 209.0 271.6Q208.7 271.4 208.2 271.3L208.2 271.3L207.3 271.2Q206.4 271.0 205.9 270.6Q205.5 270.2 205.5 269.4L205.5 269.4Q205.5 268.5 206.0 268.0Q206.6 267.6 207.6 267.6L207.6 267.6L208.1 267.6Q209.0 267.6 209.5 268.0Q210.1 268.4 210.2 269.2L210.2 269.2L209.2 269.2Q209.1 268.9 208.8 268.7Q208.6 268.5 208.1 268.5L208.1 268.5L207.6 268.5Q207.1 268.5 206.8 268.7Q206.5 268.9 206.5 269.4L206.5 269.4Q206.5 269.8 206.7 270.0Q207.0 270.1 207.5 270.2L207.5 270.2L208.3 270.4Q209.3 270.5 209.8 271.0Q210.3 271.4 210.3 272.2L210.3 272.2Q210.3 273.1 209.7 273.6Q209.2 274.1 208.0 274.1L208.0 274.1ZM213.3 274L212.3 274L212.3 265.6L213.3 265.6L213.3 268.9L213.3 268.9Q213.4 268.3 213.7 268.0L213.7 268.0Q214.2 267.6 215.0 267.6L215.0 267.6Q215.9 267.6 216.5 268.1Q217.1 268.7 217.1 269.7L217.1 269.7L217.1 274L216.0 274L216.0 269.9Q216.0 269.2 215.7 268.8Q215.3 268.4 214.7 268.4L214.7 268.4Q214.0 268.4 213.7 268.8Q213.3 269.2 213.3 270.0L213.3 270.0L213.3 274ZM221.0 274.1L221.0 274.1Q220.0 274.1 219.4 273.6Q218.8 273.1 218.8 272.2L218.8 272.2Q218.8 271.3 219.4 270.8Q220.0 270.3 221.0 270.3L221.0 270.3L222.9 270.3L222.9 269.7Q222.9 269.1 222.6 268.8Q222.2 268.5 221.6 268.5L221.6 268.5Q221.0 268.5 220.6 268.7Q220.3 268.9 220.2 269.3L220.2 269.3L219.2 269.3Q219.3 268.5 219.9 268.0Q220.6 267.6 221.6 267.6L221.6 267.6Q222.7 267.6 223.3 268.1Q224.0 268.7 224.0 269.7L224.0 269.7L224.0 274L223.0 274L223.0 272.8L222.9 272.8Q222.9 273.4 222.4 273.7L222.4 273.7Q221.9 274.1 221.0 274.1ZM221.3 273.3L221.3 273.3Q222.0 273.3 222.5 272.9Q222.9 272.6 222.9 272.0L222.9 272.0L222.9 271.1L221.0 271.1Q220.5 271.1 220.2 271.4Q219.9 271.7 219.9 272.2L219.9 272.2Q219.9 272.7 220.2 273.0Q220.6 273.3 221.3 273.3ZM228.1 274.1L228.1 274.1Q227.1 274.1 226.6 273.5Q226.0 272.9 226.0 271.8L226.0 271.8L226.0 269.9Q226.0 268.8 226.6 268.2Q227.1 267.6 228.1 267.6L228.1 267.6Q228.9 267.6 229.3 268.0L229.3 268.0Q229.7 268.3 229.8 268.9L229.8 268.9L229.8 268.9L229.8 267.4L229.8 265.6L230.8 265.6L230.8 274L229.8 274L229.8 272.8L229.8 272.8Q229.7 273.3 229.3 273.7L229.3 273.7Q228.9 274.1 228.1 274.1ZM228.4 273.2L228.4 273.2Q229.1 273.2 229.4 272.8Q229.8 272.4 229.8 271.7L229.8 271.7L229.8 270.0Q229.8 269.3 229.4 268.9Q229.1 268.5 228.4 268.5L228.4 268.5Q227.8 268.5 227.4 268.8Q227.0 269.2 227.0 270.0L227.0 270.0L227.0 271.7Q227.0 272.4 227.4 272.8Q227.8 273.2 228.4 273.2ZM235.4 274.1L235.4 274.1Q234.6 274.1 234.0 273.8Q233.5 273.5 233.2 273.0Q232.9 272.4 232.9 271.7L232.9 271.7L232.9 270.0Q232.9 269.2 233.2 268.7Q233.5 268.2 234.0 267.9Q234.6 267.6 235.4 267.6L235.4 267.6Q236.1 267.6 236.7 267.9Q237.2 268.2 237.5 268.7Q237.8 269.2 237.8 270.0L237.8 270.0L237.8 271.7Q237.8 272.4 237.5 273.0Q237.2 273.5 236.7 273.8Q236.1 274.1 235.4 274.1ZM235.4 273.2L235.4 273.2Q236.0 273.2 236.4 272.8Q236.8 272.4 236.8 271.7L236.8 271.7L236.8 270.0Q236.8 269.3 236.4 268.9Q236.0 268.5 235.4 268.5L235.4 268.5Q234.7 268.5 234.3 268.9Q233.9 269.3 233.9 270.0L233.9 270.0L233.9 271.7Q233.9 272.4 234.3 272.8Q234.7 273.2 235.4 273.2ZM241.4 274L240.2 274L239.2 267.7L240.1 267.7L240.8 272.2Q240.8 272.4 240.8 272.7Q240.9 273.0 240.9 273.2L240.9 273.2Q240.9 273.0 241.0 272.7Q241.0 272.4 241.1 272.2L241.1 272.2L241.8 267.7L242.7 267.7L243.4 272.2Q243.5 272.4 243.5 272.7Q243.6 273.0 243.6 273.2L243.6 273.2Q243.6 273.0 243.7 272.7Q243.7 272.4 243.8 272.2L243.8 272.2L244.4 267.7L245.3 267.7L244.2 274L243.1 274L242.4 269.6Q242.4 269.3 242.3 269.0Q242.3 268.7 242.2 268.5L242.2 268.5Q242.2 268.7 242.2 269.0Q242.1 269.3 242.1 269.6L242.1 269.6L241.4 274ZM249.4 274.1L249.0 274.1Q248.3 274.1 247.8 273.9Q247.4 273.7 247.1 273.3Q246.8 273.0 246.7 272.4L246.7 272.4L247.8 272.4Q247.8 272.8 248.1 273.0Q248.4 273.2 249.0 273.2L249.0 273.2L249.4 273.2Q250.0 273.2 250.3 272.9Q250.6 272.7 250.6 272.3L250.6 272.3Q250.6 271.9 250.4 271.6Q250.1 271.4 249.6 271.3L249.6 271.3L248.7 271.2Q247.8 271.0 247.3 270.6Q246.9 270.2 246.9 269.4L246.9 269.4Q246.9 268.5 247.4 268.0Q248.0 267.6 249.0 267.6L249.0 267.6L249.5 267.6Q250.4 267.6 250.9 268.0Q251.5 268.4 251.6 269.2L251.6 269.2L250.6 269.2Q250.5 268.9 250.2 268.7Q250.0 268.5 249.5 268.5L249.5 268.5L249.0 268.5Q248.5 268.5 248.2 268.7Q247.9 268.9 247.9 269.4L247.9 269.4Q247.9 269.8 248.1 270.0Q248.4 270.1 248.9 270.2L248.9 270.2L249.7 270.4Q250.7 270.5 251.2 271.0Q251.7 271.4 251.7 272.2L251.7 272.2Q251.7 273.1 251.1 273.6Q250.6 274.1 249.4 274.1L249.4 274.1ZM255.5 275.8L254.6 275.8L255.5 272.3L257.0 272.3L255.5 275.8ZM256.2 269.3L255.9 269.3Q255.6 269.3 255.3 269.0Q255.1 268.8 255.1 268.4L255.1 268.4Q255.1 268.1 255.3 267.8Q255.6 267.6 255.9 267.6L255.9 267.6L256.2 267.6Q256.5 267.6 256.8 267.8Q257.0 268.1 257.0 268.4L257.0 268.4Q257.0 268.8 256.8 269.0Q256.5 269.3 256.2 269.3L256.2 269.3Z M272.3 274L270.5 274Q269.7 274 269.3 273.6Q268.8 273.1 268.8 272.3L268.8 272.3L268.8 268.6L267.0 268.6L267.0 267.7L268.8 267.7L268.8 265.9L269.8 265.9L269.8 267.7L272.4 267.7L272.4 268.6L269.8 268.6L269.8 272.3Q269.8 273.1 270.5 273.1L270.5 273.1L272.3 273.1L272.3 274ZM275.4 274L274.4 274L274.4 265.6L275.4 265.6L275.4 268.9L275.4 268.9Q275.5 268.3 275.8 268.0L275.8 268.0Q276.3 267.6 277.1 267.6L277.1 267.6Q278.0 267.6 278.6 268.1Q279.2 268.7 279.2 269.7L279.2 269.7L279.2 274L278.1 274L278.1 269.9Q278.1 269.2 277.8 268.8Q277.4 268.4 276.8 268.4L276.8 268.4Q276.1 268.4 275.8 268.8Q275.4 269.2 275.4 270.0L275.4 270.0L275.4 274ZM283.6 274.1L283.6 274.1Q282.9 274.1 282.3 273.8Q281.8 273.5 281.5 273.0Q281.2 272.4 281.2 271.7L281.2 271.7L281.2 270.0Q281.2 269.2 281.5 268.7Q281.8 268.2 282.3 267.9Q282.9 267.6 283.6 267.6Q284.4 267.6 285.0 267.9Q285.5 268.2 285.8 268.7Q286.1 269.2 286.1 270.0L286.1 270.0L286.1 271.1L282.2 271.1L282.2 271.7Q282.2 272.4 282.6 272.8Q282.9 273.2 283.6 273.2L283.6 273.2Q284.2 273.2 284.6 273.0Q285.0 272.8 285.1 272.4L285.1 272.4L286.1 272.4Q286.0 273.2 285.3 273.6Q284.7 274.1 283.6 274.1ZM282.2 270.3L285.1 270.3L285.1 270.0Q285.1 269.2 284.7 268.8Q284.4 268.4 283.6 268.4L283.6 268.4Q282.9 268.4 282.6 268.8Q282.2 269.2 282.2 270.0L282.2 270.0L282.2 270.3Z M297.7 274.1L297.3 274.1Q296.6 274.1 296.1 273.9Q295.7 273.7 295.4 273.3Q295.1 273.0 295.0 272.4L295.0 272.4L296.1 272.4Q296.1 272.8 296.4 273.0Q296.7 273.2 297.3 273.2L297.3 273.2L297.7 273.2Q298.3 273.2 298.6 272.9Q298.9 272.7 298.9 272.3L298.9 272.3Q298.9 271.9 298.7 271.6Q298.4 271.4 297.9 271.3L297.9 271.3L297.0 271.2Q296.1 271.0 295.6 270.6Q295.2 270.2 295.2 269.4L295.2 269.4Q295.2 268.5 295.7 268.0Q296.3 267.6 297.3 267.6L297.3 267.6L297.8 267.6Q298.7 267.6 299.2 268.0Q299.8 268.4 299.9 269.2L299.9 269.2L298.9 269.2Q298.8 268.9 298.5 268.7Q298.3 268.5 297.8 268.5L297.8 268.5L297.3 268.5Q296.8 268.5 296.5 268.7Q296.2 268.9 296.2 269.4L296.2 269.4Q296.2 269.8 296.4 270.0Q296.7 270.1 297.2 270.2L297.2 270.2L298.0 270.4Q299.0 270.5 299.5 271.0Q300.0 271.4 300.0 272.2L300.0 272.2Q300.0 273.1 299.4 273.6Q298.9 274.1 297.7 274.1L297.7 274.1ZM303.0 274L302.0 274L302.0 265.6L303.0 265.6L303.0 268.9L303.0 268.9Q303.1 268.3 303.4 268.0L303.4 268.0Q303.9 267.6 304.7 267.6L304.7 267.6Q305.6 267.6 306.2 268.1Q306.8 268.7 306.8 269.7L306.8 269.7L306.8 274L305.7 274L305.7 269.9Q305.7 269.2 305.4 268.8Q305.0 268.4 304.4 268.4L304.4 268.4Q303.7 268.4 303.4 268.8Q303.0 269.2 303.0 270.0L303.0 270.0L303.0 274ZM311.2 274.1L311.2 274.1Q310.5 274.1 309.9 273.8Q309.4 273.5 309.1 273.0Q308.8 272.4 308.8 271.7L308.8 271.7L308.8 270.0Q308.8 269.2 309.1 268.7Q309.4 268.2 309.9 267.9Q310.5 267.6 311.2 267.6Q312.0 267.6 312.6 267.9Q313.1 268.2 313.4 268.7Q313.7 269.2 313.7 270.0L313.7 270.0L313.7 271.1L309.8 271.1L309.8 271.7Q309.8 272.4 310.2 272.8Q310.5 273.2 311.2 273.2L311.2 273.2Q311.8 273.2 312.2 273.0Q312.6 272.8 312.7 272.4L312.7 272.4L313.7 272.4Q313.6 273.2 312.9 273.6Q312.3 274.1 311.2 274.1ZM309.8 270.3L312.7 270.3L312.7 270.0Q312.7 269.2 312.3 268.8Q312.0 268.4 311.2 268.4L311.2 268.4Q310.5 268.4 310.2 268.8Q309.8 269.2 309.8 270.0L309.8 270.0L309.8 270.3ZM318.1 274.1L318.1 274.1Q317.4 274.1 316.8 273.8Q316.3 273.5 316.0 273.0Q315.7 272.4 315.7 271.7L315.7 271.7L315.7 270.0Q315.7 269.2 316.0 268.7Q316.3 268.2 316.8 267.9Q317.4 267.6 318.1 267.6Q318.9 267.6 319.5 267.9Q320.0 268.2 320.3 268.7Q320.6 269.2 320.6 270.0L320.6 270.0L320.6 271.1L316.7 271.1L316.7 271.7Q316.7 272.4 317.1 272.8Q317.4 273.2 318.1 273.2L318.1 273.2Q318.7 273.2 319.1 273.0Q319.5 272.8 319.6 272.4L319.6 272.4L320.6 272.4Q320.5 273.2 319.8 273.6Q319.2 274.1 318.1 274.1ZM316.7 270.3L319.6 270.3L319.6 270.0Q319.6 269.2 319.2 268.8Q318.9 268.4 318.1 268.4L318.1 268.4Q317.4 268.4 317.1 268.8Q316.7 269.2 316.7 270.0L316.7 270.0L316.7 270.3ZM327.5 274L325.7 274Q324.9 274 324.5 273.6Q324.0 273.1 324.0 272.3L324.0 272.3L324.0 268.6L322.2 268.6L322.2 267.7L324.0 267.7L324.0 265.9L325.0 265.9L325.0 267.7L327.6 267.7L327.6 268.6L325.0 268.6L325.0 272.3Q325.0 273.1 325.7 273.1L325.7 273.1L327.5 273.1L327.5 274Z M341.8 274L336.4 274L336.4 273.1L338.6 273.1L338.6 268.6L336.7 268.6L336.7 267.7L339.7 267.7L339.7 273.1L341.8 273.1L341.8 274ZM339.0 266.5L339.0 266.5Q338.6 266.5 338.4 266.3Q338.2 266.1 338.2 265.8L338.2 265.8Q338.2 265.5 338.4 265.3Q338.6 265.1 339.0 265.1L339.0 265.1Q339.4 265.1 339.6 265.3Q339.8 265.5 339.8 265.8L339.8 265.8Q339.8 266.1 339.6 266.3Q339.4 266.5 339.0 266.5ZM346.0 274.1L345.6 274.1Q344.9 274.1 344.4 273.9Q344.0 273.7 343.7 273.3Q343.4 273.0 343.3 272.4L343.3 272.4L344.4 272.4Q344.4 272.8 344.7 273.0Q345.0 273.2 345.6 273.2L345.6 273.2L346.0 273.2Q346.6 273.2 346.9 272.9Q347.2 272.7 347.2 272.3L347.2 272.3Q347.2 271.9 347.0 271.6Q346.7 271.4 346.2 271.3L346.2 271.3L345.3 271.2Q344.4 271.0 343.9 270.6Q343.5 270.2 343.5 269.4L343.5 269.4Q343.5 268.5 344.0 268.0Q344.6 267.6 345.6 267.6L345.6 267.6L346.1 267.6Q347.0 267.6 347.5 268.0Q348.1 268.4 348.2 269.2L348.2 269.2L347.2 269.2Q347.1 268.9 346.8 268.7Q346.6 268.5 346.1 268.5L346.1 268.5L345.6 268.5Q345.1 268.5 344.8 268.7Q344.5 268.9 344.5 269.4L344.5 269.4Q344.5 269.8 344.7 270.0Q345.0 270.1 345.5 270.2L345.5 270.2L346.3 270.4Q347.3 270.5 347.8 271.0Q348.3 271.4 348.3 272.2L348.3 272.2Q348.3 273.1 347.7 273.6Q347.2 274.1 346.0 274.1L346.0 274.1Z M358.2 276.1L357.2 276.1L357.2 267.7L358.2 267.7L358.2 268.9L358.2 268.9Q358.3 268.3 358.7 268.0L358.7 268.0Q359.1 267.6 359.9 267.6L359.9 267.6Q360.9 267.6 361.5 268.2Q362.0 268.8 362.0 269.9L362.0 269.9L362.0 271.8Q362.0 272.5 361.8 273.0Q361.5 273.5 361.0 273.8Q360.6 274.1 359.9 274.1L359.9 274.1Q359.2 274.1 358.7 273.7L358.7 273.7Q358.3 273.3 358.2 272.8L358.2 272.8L358.2 272.8L358.2 274.2L358.2 276.1ZM359.6 273.2L359.6 273.2Q360.2 273.2 360.6 272.8Q361.0 272.4 361.0 271.7L361.0 271.7L361.0 270.0Q361.0 269.2 360.6 268.8Q360.2 268.5 359.6 268.5L359.6 268.5Q359.0 268.5 358.6 268.9Q358.2 269.3 358.2 270.0L358.2 270.0L358.2 271.7Q358.2 272.4 358.6 272.8Q359.0 273.2 359.6 273.2ZM369.3 274L367.3 274Q366.8 274 366.3 273.8Q365.9 273.6 365.7 273.2Q365.5 272.8 365.5 272.2L365.5 272.2L365.5 266.5L363.3 266.5L363.3 265.6L366.5 265.6L366.5 272.2Q366.5 272.6 366.7 272.8Q366.9 273.1 367.3 273.1L367.3 273.1L369.3 273.1L369.3 274ZM372.8 274.1L372.8 274.1Q371.8 274.1 371.2 273.6Q370.6 273.1 370.6 272.2L370.6 272.2Q370.6 271.3 371.2 270.8Q371.8 270.3 372.8 270.3L372.8 270.3L374.7 270.3L374.7 269.7Q374.7 269.1 374.4 268.8Q374.0 268.5 373.4 268.5L373.4 268.5Q372.8 268.5 372.4 268.7Q372.1 268.9 372.0 269.3L372.0 269.3L371.0 269.3Q371.1 268.5 371.7 268.0Q372.4 267.6 373.4 267.6L373.4 267.6Q374.5 267.6 375.1 268.1Q375.8 268.7 375.8 269.7L375.8 269.7L375.8 274L374.8 274L374.8 272.8L374.7 272.8Q374.7 273.4 374.2 273.7L374.2 273.7Q373.7 274.1 372.8 274.1ZM373.1 273.3L373.1 273.3Q373.8 273.3 374.3 272.9Q374.7 272.6 374.7 272.0L374.7 272.0L374.7 271.1L372.8 271.1Q372.3 271.1 372.0 271.4Q371.7 271.7 371.7 272.2L371.7 272.2Q371.7 272.7 372.0 273.0Q372.4 273.3 373.1 273.3ZM383.2 274L377.8 274L377.8 273.1L380.0 273.1L380.0 268.6L378.1 268.6L378.1 267.7L381.1 267.7L381.1 273.1L383.2 273.1L383.2 274ZM380.4 266.5L380.4 266.5Q380.0 266.5 379.8 266.3Q379.6 266.1 379.6 265.8L379.6 265.8Q379.6 265.5 379.8 265.3Q380.0 265.1 380.4 265.1L380.4 265.1Q380.8 265.1 381.0 265.3Q381.2 265.5 381.2 265.8L381.2 265.8Q381.2 266.1 381.0 266.3Q380.8 266.5 380.4 266.5ZM385.8 274L384.8 274L384.8 267.7L385.8 267.7L385.8 268.9L385.8 268.9Q385.9 268.3 386.2 268.0L386.2 268.0Q386.7 267.6 387.5 267.6L387.5 267.6Q388.4 267.6 389.0 268.1Q389.6 268.7 389.6 269.7L389.6 269.7L389.6 274L388.5 274L388.5 269.9Q388.5 269.2 388.2 268.8Q387.8 268.5 387.2 268.5L387.2 268.5Q386.5 268.5 386.2 268.8Q385.8 269.2 385.8 270.0L385.8 270.0L385.8 274Z M401.0 274.1L401.0 274.1Q400.2 274.1 399.7 273.8Q399.1 273.5 398.8 273.0Q398.5 272.4 398.5 271.7L398.5 271.7L398.5 267.9Q398.5 267.1 398.8 266.6Q399.1 266.1 399.7 265.8Q400.2 265.5 401.0 265.5L401.0 265.5Q401.8 265.5 402.3 265.8Q402.9 266.1 403.2 266.6Q403.5 267.2 403.5 267.9L403.5 267.9L402.4 267.9Q402.4 267.2 402.0 266.8Q401.7 266.4 401.0 266.4L401.0 266.4Q400.3 266.4 399.9 266.8Q399.5 267.2 399.5 267.9L399.5 267.9L399.5 271.7Q399.5 272.4 399.9 272.8Q400.3 273.2 401.0 273.2L401.0 273.2Q401.7 273.2 402.0 272.8Q402.4 272.4 402.4 271.7L402.4 271.7L403.5 271.7Q403.5 272.4 403.2 273.0Q402.9 273.5 402.3 273.8Q401.8 274.1 401.0 274.1ZM407.9 274.1L407.9 274.1Q407.1 274.1 406.5 273.8Q405.9 273.6 405.6 273.0Q405.2 272.5 405.2 271.8L405.2 271.8L406.3 271.8Q406.3 272.4 406.7 272.8Q407.1 273.2 407.9 273.2L407.9 273.2Q408.6 273.2 409.0 272.8Q409.4 272.5 409.4 271.8L409.4 271.8Q409.4 271.3 409.2 271.0Q408.9 270.6 408.4 270.4L408.4 270.4L407.3 270.1Q406.4 269.8 405.9 269.2Q405.5 268.6 405.5 267.7L405.5 267.7Q405.5 267.0 405.8 266.5Q406.1 266.0 406.6 265.8Q407.2 265.5 407.9 265.5L407.9 265.5Q409.0 265.5 409.7 266.1Q410.4 266.7 410.4 267.7L410.4 267.7L409.3 267.7Q409.3 267.1 409.0 266.8Q408.6 266.4 407.9 266.4L407.9 266.4Q407.2 266.4 406.9 266.7Q406.5 267.1 406.5 267.6L406.5 267.6Q406.5 268.1 406.8 268.5Q407.0 268.9 407.6 269.1L407.6 269.1L408.7 269.4Q409.6 269.7 410.0 270.3Q410.5 271.0 410.5 271.8L410.5 271.8Q410.5 272.5 410.1 273.0Q409.8 273.5 409.2 273.8Q408.7 274.1 407.9 274.1ZM414.8 274.1L414.8 274.1Q414.0 274.1 413.4 273.8Q412.8 273.6 412.5 273.0Q412.1 272.5 412.1 271.8L412.1 271.8L413.2 271.8Q413.2 272.4 413.6 272.8Q414.0 273.2 414.8 273.2L414.8 273.2Q415.5 273.2 415.9 272.8Q416.3 272.5 416.3 271.8L416.3 271.8Q416.3 271.3 416.1 271.0Q415.8 270.6 415.3 270.4L415.3 270.4L414.2 270.1Q413.3 269.8 412.8 269.2Q412.4 268.6 412.4 267.7L412.4 267.7Q412.4 267.0 412.7 266.5Q413.0 266.0 413.5 265.8Q414.1 265.5 414.8 265.5L414.8 265.5Q415.9 265.5 416.6 266.1Q417.3 266.7 417.3 267.7L417.3 267.7L416.2 267.7Q416.2 267.1 415.9 266.8Q415.5 266.4 414.8 266.4L414.8 266.4Q414.1 266.4 413.8 266.7Q413.4 267.1 413.4 267.6L413.4 267.6Q413.4 268.1 413.7 268.5Q413.9 268.9 414.5 269.1L414.5 269.1L415.6 269.4Q416.5 269.7 416.9 270.3Q417.4 271.0 417.4 271.8L417.4 271.8Q417.4 272.5 417.0 273.0Q416.7 273.5 416.1 273.8Q415.6 274.1 414.8 274.1Z M429.3 274L427.8 274L425.7 267.7L426.8 267.7L428.2 271.9Q428.3 272.3 428.4 272.7Q428.5 273.0 428.6 273.2L428.6 273.2Q428.6 273.0 428.7 272.7Q428.8 272.3 429.0 271.9L429.0 271.9L430.3 267.7L431.4 267.7L429.3 274ZM434.9 274.1L434.9 274.1Q433.9 274.1 433.3 273.6Q432.7 273.1 432.7 272.2L432.7 272.2Q432.7 271.3 433.3 270.8Q433.9 270.3 434.9 270.3L434.9 270.3L436.8 270.3L436.8 269.7Q436.8 269.1 436.5 268.8Q436.1 268.5 435.5 268.5L435.5 268.5Q434.9 268.5 434.5 268.7Q434.2 268.9 434.1 269.3L434.1 269.3L433.1 269.3Q433.2 268.5 433.8 268.0Q434.5 267.6 435.5 267.6L435.5 267.6Q436.6 267.6 437.2 268.1Q437.9 268.7 437.9 269.7L437.9 269.7L437.9 274L436.9 274L436.9 272.8L436.8 272.8Q436.8 273.4 436.3 273.7L436.3 273.7Q435.8 274.1 434.9 274.1ZM435.2 273.3L435.2 273.3Q435.9 273.3 436.4 272.9Q436.8 272.6 436.8 272.0L436.8 272.0L436.8 271.1L434.9 271.1Q434.4 271.1 434.1 271.4Q433.8 271.7 433.8 272.2L433.8 272.2Q433.8 272.7 434.1 273.0Q434.5 273.3 435.2 273.3ZM441.2 274L440.2 274L440.2 267.7L441.2 267.7L441.2 268.8Q441.3 268.4 441.5 268.1L441.5 268.1Q442.0 267.6 442.9 267.6L442.9 267.6Q443.9 267.6 444.4 268.2Q445.0 268.8 445.0 269.9L445.0 269.9L445.0 270.3L444.0 270.3L444.0 270.0Q444.0 269.2 443.6 268.8Q443.3 268.4 442.6 268.4L442.6 268.4Q442.0 268.4 441.6 268.8Q441.2 269.2 441.2 270.0L441.2 270.0L441.2 274ZM452.2 274L446.8 274L446.8 273.1L449.0 273.1L449.0 268.6L447.1 268.6L447.1 267.7L450.1 267.7L450.1 273.1L452.2 273.1L452.2 274ZM449.4 266.5L449.4 266.5Q449.0 266.5 448.8 266.3Q448.6 266.1 448.6 265.8L448.6 265.8Q448.6 265.5 448.8 265.3Q449.0 265.1 449.4 265.1L449.4 265.1Q449.8 265.1 450.0 265.3Q450.2 265.5 450.2 265.8L450.2 265.8Q450.2 266.1 450.0 266.3Q449.8 266.5 449.4 266.5ZM455.6 274.1L455.6 274.1Q454.6 274.1 454.0 273.6Q453.4 273.1 453.4 272.2L453.4 272.2Q453.4 271.3 454.0 270.8Q454.6 270.3 455.6 270.3L455.6 270.3L457.5 270.3L457.5 269.7Q457.5 269.1 457.2 268.8Q456.8 268.5 456.2 268.5L456.2 268.5Q455.6 268.5 455.2 268.7Q454.9 268.9 454.8 269.3L454.8 269.3L453.8 269.3Q453.9 268.5 454.5 268.0Q455.2 267.6 456.2 267.6L456.2 267.6Q457.3 267.6 457.9 268.1Q458.6 268.7 458.6 269.7L458.6 269.7L458.6 274L457.6 274L457.6 272.8L457.5 272.8Q457.5 273.4 457.0 273.7L457.0 273.7Q456.5 274.1 455.6 274.1ZM455.9 273.3L455.9 273.3Q456.6 273.3 457.1 272.9Q457.5 272.6 457.5 272.0L457.5 272.0L457.5 271.1L455.6 271.1Q455.1 271.1 454.8 271.4Q454.5 271.7 454.5 272.2L454.5 272.2Q454.5 272.7 454.8 273.0Q455.2 273.3 455.9 273.3ZM463.4 274.1L463.4 274.1Q462.6 274.1 462.2 273.7L462.2 273.7Q461.8 273.3 461.7 272.8L461.7 272.8L461.7 272.8L461.7 274L460.7 274L460.7 265.6L461.7 265.6L461.7 267.4L461.7 268.9L461.7 268.9Q461.8 268.3 462.2 268.0L462.2 268.0Q462.6 267.6 463.4 267.6L463.4 267.6Q464.4 267.6 464.9 268.2Q465.5 268.8 465.5 269.9L465.5 269.9L465.5 271.8Q465.5 272.9 464.9 273.5Q464.4 274.1 463.4 274.1ZM463.1 273.2L463.1 273.2Q463.7 273.2 464.1 272.8Q464.5 272.4 464.5 271.7L464.5 271.7L464.5 270.0Q464.5 269.2 464.1 268.8Q463.7 268.5 463.1 268.5L463.1 268.5Q462.4 268.5 462.1 268.9Q461.7 269.3 461.7 270.0L461.7 270.0L461.7 271.7Q461.7 272.4 462.1 272.8Q462.4 273.2 463.1 273.2ZM472.8 274L470.8 274Q470.3 274 469.8 273.8Q469.4 273.6 469.2 273.2Q469.0 272.8 469.0 272.2L469.0 272.2L469.0 266.5L466.8 266.5L466.8 265.6L470.0 265.6L470.0 272.2Q470.0 272.6 470.2 272.8Q470.4 273.1 470.8 273.1L470.8 273.1L472.8 273.1L472.8 274ZM476.8 274.1L476.8 274.1Q476.1 274.1 475.5 273.8Q475.0 273.5 474.7 273.0Q474.4 272.4 474.4 271.7L474.4 271.7L474.4 270.0Q474.4 269.2 474.7 268.7Q475.0 268.2 475.5 267.9Q476.1 267.6 476.8 267.6Q477.6 267.6 478.2 267.9Q478.7 268.2 479.0 268.7Q479.3 269.2 479.3 270.0L479.3 270.0L479.3 271.1L475.4 271.1L475.4 271.7Q475.4 272.4 475.8 272.8Q476.1 273.2 476.8 273.2L476.8 273.2Q477.4 273.2 477.8 273.0Q478.2 272.8 478.3 272.4L478.3 272.4L479.3 272.4Q479.2 273.2 478.5 273.6Q477.9 274.1 476.8 274.1ZM475.4 270.3L478.3 270.3L478.3 270.0Q478.3 269.2 477.9 268.8Q477.6 268.4 476.8 268.4L476.8 268.4Q476.1 268.4 475.8 268.8Q475.4 269.2 475.4 270.0L475.4 270.0L475.4 270.3ZM484.0 274.1L483.6 274.1Q482.9 274.1 482.4 273.9Q482.0 273.7 481.7 273.3Q481.4 273.0 481.3 272.4L481.3 272.4L482.4 272.4Q482.4 272.8 482.7 273.0Q483.0 273.2 483.6 273.2L483.6 273.2L484.0 273.2Q484.6 273.2 484.9 272.9Q485.2 272.7 485.2 272.3L485.2 272.3Q485.2 271.9 485.0 271.6Q484.7 271.4 484.2 271.3L484.2 271.3L483.3 271.2Q482.4 271.0 481.9 270.6Q481.5 270.2 481.5 269.4L481.5 269.4Q481.5 268.5 482.0 268.0Q482.6 267.6 483.6 267.6L483.6 267.6L484.1 267.6Q485.0 267.6 485.5 268.0Q486.1 268.4 486.2 269.2L486.2 269.2L485.2 269.2Q485.1 268.9 484.8 268.7Q484.6 268.5 484.1 268.5L484.1 268.5L483.6 268.5Q483.1 268.5 482.8 268.7Q482.5 268.9 482.5 269.4L482.5 269.4Q482.5 269.8 482.7 270.0Q483.0 270.1 483.5 270.2L483.5 270.2L484.3 270.4Q485.3 270.5 485.8 271.0Q486.3 271.4 486.3 272.2L486.3 272.2Q486.3 273.1 485.7 273.6Q485.2 274.1 484.0 274.1L484.0 274.1ZM490.0 275.8L489.1 275.8L490.0 272.3L491.5 272.3L490.0 275.8Z M503.1 274L502.1 274L502.1 267.7L503.1 267.7L503.1 268.9L503.1 268.9Q503.2 268.3 503.5 268.0L503.5 268.0Q504.0 267.6 504.8 267.6L504.8 267.6Q505.7 267.6 506.3 268.1Q506.9 268.7 506.9 269.7L506.9 269.7L506.9 274L505.8 274L505.8 269.9Q505.8 269.2 505.5 268.8Q505.1 268.5 504.5 268.5L504.5 268.5Q503.8 268.5 503.5 268.8Q503.1 269.2 503.1 270.0L503.1 270.0L503.1 274ZM511.3 274.1L511.3 274.1Q510.6 274.1 510.0 273.8Q509.5 273.5 509.2 273.0Q508.9 272.4 508.9 271.7L508.9 271.7L508.9 270.0Q508.9 269.2 509.2 268.7Q509.5 268.2 510.0 267.9Q510.6 267.6 511.3 267.6L511.3 267.6Q512.1 267.6 512.7 267.9Q513.2 268.2 513.5 268.7Q513.8 269.2 513.8 270.0L513.8 270.0L513.8 271.7Q513.8 272.4 513.5 273.0Q513.2 273.5 512.7 273.8Q512.1 274.1 511.3 274.1ZM511.3 273.2L511.3 273.2Q512.0 273.2 512.4 272.8Q512.8 272.4 512.8 271.7L512.8 271.7L512.8 270.0Q512.8 269.3 512.4 268.9Q512.0 268.5 511.3 268.5L511.3 268.5Q510.7 268.5 510.3 268.9Q509.9 269.3 509.9 270.0L509.9 270.0L509.9 271.7Q509.9 272.4 510.3 272.8Q510.7 273.2 511.3 273.2ZM520.7 274L518.9 274Q518.1 274 517.7 273.6Q517.2 273.1 517.2 272.3L517.2 272.3L517.2 268.6L515.4 268.6L515.4 267.7L517.2 267.7L517.2 265.9L518.3 265.9L518.3 267.7L520.8 267.7L520.8 268.6L518.3 268.6L518.3 272.3Q518.3 273.1 518.9 273.1L518.9 273.1L520.7 273.1L520.7 274ZM523.8 274L522.8 274L522.8 265.6L523.8 265.6L523.8 268.9L523.8 268.9Q523.9 268.3 524.2 268.0L524.2 268.0Q524.7 267.6 525.5 267.6L525.5 267.6Q526.4 267.6 527.0 268.1Q527.6 268.7 527.6 269.7L527.6 269.7L527.6 274L526.5 274L526.5 269.9Q526.5 269.2 526.2 268.8Q525.8 268.4 525.2 268.4L525.2 268.4Q524.5 268.4 524.2 268.8Q523.8 269.2 523.8 270.0L523.8 270.0L523.8 274ZM535.0 274L529.6 274L529.6 273.1L531.8 273.1L531.8 268.6L529.9 268.6L529.9 267.7L532.9 267.7L532.9 273.1L535.0 273.1L535.0 274ZM532.2 266.5L532.2 266.5Q531.8 266.5 531.6 266.3Q531.4 266.1 531.4 265.8L531.4 265.8Q531.4 265.5 531.6 265.3Q531.8 265.1 532.2 265.1L532.2 265.1Q532.6 265.1 532.8 265.3Q533.0 265.5 533.0 265.8L533.0 265.8Q533.0 266.1 532.8 266.3Q532.6 266.5 532.2 266.5ZM537.6 274L536.6 274L536.6 267.7L537.6 267.7L537.6 268.9L537.6 268.9Q537.7 268.3 538.0 268.0L538.0 268.0Q538.5 267.6 539.3 267.6L539.3 267.6Q540.2 267.6 540.8 268.1Q541.4 268.7 541.4 269.7L541.4 269.7L541.4 274L540.3 274L540.3 269.9Q540.3 269.2 540.0 268.8Q539.6 268.5 539.0 268.5L539.0 268.5Q538.3 268.5 538.0 268.8Q537.6 269.2 537.6 270.0L537.6 270.0L537.6 274ZM546.3 276.1L544.3 276.1L544.3 275.1L546.3 275.1Q546.7 275.1 547.0 274.9Q547.2 274.7 547.2 274.2L547.2 274.2L547.2 273.4L547.2 272.3L547.2 272.3Q547.1 272.8 546.7 273.2L546.7 273.2Q546.3 273.6 545.5 273.6L545.5 273.6Q544.5 273.6 544.0 273.0Q543.4 272.3 543.4 271.2L543.4 271.2L543.4 269.9Q543.4 268.8 544.0 268.2Q544.5 267.6 545.5 267.6L545.5 267.6Q546.3 267.6 546.7 268.0L546.7 268.0Q547.1 268.3 547.2 268.9L547.2 268.9L547.2 268.9L547.2 267.7L548.2 267.7L548.2 274.2Q548.2 275.1 547.7 275.6Q547.2 276.1 546.3 276.1L546.3 276.1ZM545.8 272.7L545.8 272.7Q546.5 272.7 546.8 272.3Q547.2 271.9 547.2 271.2L547.2 271.2L547.2 270.0Q547.2 269.3 546.8 268.9Q546.5 268.5 545.8 268.5L545.8 268.5Q545.2 268.5 544.8 268.8Q544.4 269.2 544.4 270.0L544.4 270.0L544.4 271.2Q544.4 271.9 544.8 272.3Q545.2 272.7 545.8 272.7Z M562.1 274L560.3 274Q559.5 274 559.1 273.6Q558.6 273.1 558.6 272.3L558.6 272.3L558.6 268.6L556.8 268.6L556.8 267.7L558.6 267.7L558.6 265.9L559.7 265.9L559.7 267.7L562.2 267.7L562.2 268.6L559.7 268.6L559.7 272.3Q559.7 273.1 560.3 273.1L560.3 273.1L562.1 273.1L562.1 274ZM566.6 274.1L566.6 274.1Q565.8 274.1 565.2 273.8Q564.7 273.5 564.4 273.0Q564.1 272.4 564.1 271.7L564.1 271.7L564.1 270.0Q564.1 269.2 564.4 268.7Q564.7 268.2 565.2 267.9Q565.8 267.6 566.6 267.6L566.6 267.6Q567.3 267.6 567.9 267.9Q568.4 268.2 568.7 268.7Q569.0 269.2 569.0 270.0L569.0 270.0L569.0 271.7Q569.0 272.4 568.7 273.0Q568.4 273.5 567.9 273.8Q567.3 274.1 566.6 274.1ZM566.6 273.2L566.6 273.2Q567.2 273.2 567.6 272.8Q568.0 272.4 568.0 271.7L568.0 271.7L568.0 270.0Q568.0 269.3 567.6 268.9Q567.2 268.5 566.6 268.5L566.6 268.5Q565.9 268.5 565.5 268.9Q565.1 269.3 565.1 270.0L565.1 270.0L565.1 271.7Q565.1 272.4 565.5 272.8Q565.9 273.2 566.6 273.2Z "/></g><mask id="satori_om-id-24"><rect x="156" y="282" width="55" height="15" fill="#fff"/></mask><g  ><path fill="rgba(51,51,51,1)" d="M158.1 294L157.1 294L157.1 285.6L158.1 285.6L158.1 288.9L158.1 288.9Q158.2 288.3 158.5 288.0L158.5 288.0Q159.0 287.6 159.8 287.6L159.8 287.6Q160.7 287.6 161.3 288.1Q161.9 288.7 161.9 289.7L161.9 289.7L161.9 294L160.8 294L160.8 289.9Q160.8 289.2 160.5 288.8Q160.1 288.4 159.5 288.4L159.5 288.4Q158.8 288.4 158.5 288.8Q158.1 289.2 158.1 290.0L158.1 290.0L158.1 294ZM166.1 296.1L164.9 296.1L165.9 293.6L163.5 287.7L164.7 287.7L166.2 291.6Q166.2 291.8 166.3 292.1Q166.4 292.3 166.4 292.5L166.4 292.5Q166.5 292.3 166.5 292.1Q166.6 291.8 166.7 291.6L166.7 291.6L168.1 287.7L169.2 287.7L166.1 296.1ZM172.9 294.1L172.9 294.1Q171.9 294.1 171.4 293.5Q170.8 292.9 170.8 291.8L170.8 291.8L170.8 289.9Q170.8 288.8 171.4 288.2Q171.9 287.6 172.9 287.6L172.9 287.6Q173.7 287.6 174.1 288.0L174.1 288.0Q174.5 288.3 174.6 288.9L174.6 288.9L174.6 288.9L174.6 287.4L174.6 285.6L175.6 285.6L175.6 294L174.6 294L174.6 292.8L174.6 292.8Q174.5 293.3 174.1 293.7L174.1 293.7Q173.7 294.1 172.9 294.1ZM173.2 293.2L173.2 293.2Q173.9 293.2 174.2 292.8Q174.6 292.4 174.6 291.7L174.6 291.7L174.6 290.0Q174.6 289.3 174.2 288.9Q173.9 288.5 173.2 288.5L173.2 288.5Q172.6 288.5 172.2 288.8Q171.8 289.2 171.8 290.0L171.8 290.0L171.8 291.7Q171.8 292.4 172.2 292.8Q172.6 293.2 173.2 293.2ZM179.0 294L178.0 294L178.0 287.7L179.0 287.7L179.0 288.8Q179.1 288.4 179.3 288.1L179.3 288.1Q179.8 287.6 180.7 287.6L180.7 287.6Q181.7 287.6 182.2 288.2Q182.8 288.8 182.8 289.9L182.8 289.9L182.8 290.3L181.8 290.3L181.8 290.0Q181.8 289.2 181.4 288.8Q181.1 288.4 180.4 288.4L180.4 288.4Q179.8 288.4 179.4 288.8Q179.0 289.2 179.0 290.0L179.0 290.0L179.0 294ZM186.5 294.1L186.5 294.1Q185.5 294.1 184.9 293.6Q184.3 293.1 184.3 292.2L184.3 292.2Q184.3 291.3 184.9 290.8Q185.5 290.3 186.5 290.3L186.5 290.3L188.4 290.3L188.4 289.7Q188.4 289.1 188.1 288.8Q187.7 288.5 187.1 288.5L187.1 288.5Q186.5 288.5 186.1 288.7Q185.8 288.9 185.7 289.3L185.7 289.3L184.7 289.3Q184.8 288.5 185.4 288.0Q186.1 287.6 187.1 287.6L187.1 287.6Q188.2 287.6 188.8 288.1Q189.5 288.7 189.5 289.7L189.5 289.7L189.5 294L188.5 294L188.5 292.8L188.4 292.8Q188.4 293.4 187.9 293.7L187.9 293.7Q187.4 294.1 186.5 294.1ZM186.8 293.3L186.8 293.3Q187.5 293.3 188.0 292.9Q188.4 292.6 188.4 292.0L188.4 292.0L188.4 291.1L186.5 291.1Q186.0 291.1 185.7 291.4Q185.4 291.7 185.4 292.2L185.4 292.2Q185.4 292.7 185.7 293.0Q186.1 293.3 186.8 293.3ZM196.4 294L194.6 294Q193.8 294 193.4 293.6Q192.9 293.1 192.9 292.3L192.9 292.3L192.9 288.6L191.1 288.6L191.1 287.7L192.9 287.7L192.9 285.9L194.0 285.9L194.0 287.7L196.5 287.7L196.5 288.6L194.0 288.6L194.0 292.3Q194.0 293.1 194.6 293.1L194.6 293.1L196.4 293.1L196.4 294ZM200.9 294.1L200.9 294.1Q200.1 294.1 199.5 293.8Q199.0 293.5 198.7 293.0Q198.4 292.4 198.4 291.7L198.4 291.7L198.4 290.0Q198.4 289.2 198.7 288.7Q199.0 288.2 199.5 287.9Q200.1 287.6 200.9 287.6Q201.6 287.6 202.2 287.9Q202.7 288.2 203.0 288.7Q203.3 289.2 203.3 290.0L203.3 290.0L203.3 291.1L199.4 291.1L199.4 291.7Q199.4 292.4 199.8 292.8Q200.1 293.2 200.9 293.2L200.9 293.2Q201.4 293.2 201.8 293.0Q202.2 292.8 202.3 292.4L202.3 292.4L203.3 292.4Q203.2 293.2 202.5 293.6Q201.9 294.1 200.9 294.1ZM199.4 290.3L202.3 290.3L202.3 290.0Q202.3 289.2 201.9 288.8Q201.6 288.4 200.9 288.4L200.9 288.4Q200.1 288.4 199.8 288.8Q199.4 289.2 199.4 290.0L199.4 290.0L199.4 290.3ZM207.8 294.1L207.8 294.1Q207.3 294.1 207.1 293.9Q206.8 293.6 206.8 293.2L206.8 293.2Q206.8 292.7 207.1 292.5Q207.3 292.2 207.8 292.2L207.8 292.2Q208.2 292.2 208.4 292.5Q208.7 292.7 208.7 293.2L208.7 293.2Q208.7 293.6 208.4 293.9Q208.2 294.1 207.8 294.1Z "/></g></svg>