<svg width="640" height="360" viewBox="0 0 640 360" xmlns="http://www.w3.org/2000/svg"><mask id="satori_om-id"><rect x="0" y="0" width="640" height="360" fill="#fff"/></mask><rect x="0" y="0" width="640" height="360" fill="rgba(255,255,255,1)"/><mask id="satori_om-id-0"><rect x="0" y="0" width="640" height="360" fill="#fff"/></mask><mask id="satori_om-id-0-0"><rect x="0" y="0" width="640" height="360" fill="#fff"/></mask><rect x="0" y="0" width="640" height="360" fill="rgba(255,255,255,1)"/><mask id="satori_om-id-0-1"><rect x="0" y="0" width="640" height="0" fill="#fff"/></mask><rect x="0" y="0" width="640" height="0" fill="rgba(0,0,0,1)"/><mask id="satori_om-id-0-2"><rect x="640" y="0" width="0" height="360" fill="#fff"/></mask><rect x="640" y="0" width="0" height="360" fill="rgba(0,0,0,1)"/><mask id="satori_om-id-0-3"><rect x="0" y="360" width="640" height="0" fill="#fff"/></mask><rect x="0" y="360" width="640" height="0" fill="rgba(0,0,0,1)"/><mask id="satori_om-id-0-4"><rect x="0" y="0" width="0" height="360" fill="#fff"/></mask><rect x="0" y="0" width="0" height="360" fill="rgba(0,0,0,1)"/><mask id="satori_om-id-1"><rect x="40" y="129" width="373" height="12" fill="#fff"/></mask><g opacity="0.6"></g><mask id="satori_om-id-1-0"><rect x="40" y="129" width="373" height="12" fill="#fff"/></mask><rect x="40" y="129" width="373" height="12" fill="rgba(240,240,240,1)" fill-opacity="0.6"/><mask id="satori_om-id-1-1"><rect x="40" y="129" width="373" height="0" fill="#fff"/></mask><rect x="40" y="129" width="373" height="0" fill="rgba(0,0,0,1)" fill-opacity="0.6"/><mask id="satori_om-id-1-2"><rect x="413" y="129" width="0" height="12" fill="#fff"/></mask><rect x="413" y="129" width="0" height="12" fill="rgba(0,0,0,1)" fill-opacity="0.6"/><mask id="satori_om-id-1-3"><rect x="40" y="141" width="373" height="0" fill="#fff"/></mask><rect x="40" y="141" width="373" height="0" fill="rgba(0,0,0,1)" fill-opacity="0.6"/><mask id="satori_om-id-1-4"><rect x="40" y="129" width="0" height="12" fill="#fff"/></mask><rect x="40" y="129" width="0" height="12" fill="rgba(0,0,0,1)" fill-opacity="0.6"/><mask id="satori_om-id-2"><rect x="40" y="153" width="280" height="12" fill="#fff"/></mask><g opacity="0.6"></g><mask id="satori_om-id-2-0"><rect x="40" y="153" width="280" height="12" fill="#fff"/></mask><rect x="40" y="153" width="280" height="12" fill="rgba(240,240,240,1)" fill-opacity="0.6"/><mask id="satori_om-id-2-1"><rect x="40" y="153" width="280" height="0" fill="#fff"/></mask><rect x="40" y="153" width="280" height="0" fill="rgba(0,0,0,1)" fill-opacity="0.6"/><mask id="satori_om-id-2-2"><rect x="320" y="153" width="0" height="12" fill="#fff"/></mask><rect x="320" y="153" width="0" height="12" fill="rgba(0,0,0,1)" fill-opacity="0.6"/><mask id="satori_om-id-2-3"><rect x="40" y="165" width="280" height="0" fill="#fff"/></mask><rect x="40" y="165" width="280" height="0" fill="rgba(0,0,0,1)" fill-opacity="0.6"/><mask id="satori_om-id-2-4"><rect x="40" y="153" width="0" height="12" fill="#fff"/></mask><rect x="40" y="153" width="0" height="12" fill="rgba(0,0,0,1)" fill-opacity="0.6"/><mask id="satori_om-id-3"><rect x="40" y="197" width="180" height="34" fill="#fff"/></mask><mask id="satori_ms-id-3-0-0" maskUnits="userSpaceOnUse"><rect x="0" y="0" width="640" height="360" fill="#fff"/><rect x="40" y="197" width="180" height="34" fill="#000"  stroke-width="0"/></mask><defs><filter id="satori_s-id-3-0-0" x="0%" y="0%" width="100%" height="100%"><feGaussianBlur stdDeviation="0" result="b"/><feFlood flood-color="rgba(0,0,0,0.5)" in="SourceGraphic" result="f"/><feComposite in="f" in2="b" operator="in"/></filter></defs><g mask="url(#satori_ms-id-3-0-0)" filter="url(#satori_s-id-3-0-0)" opacity="1"><rect x="41" y="198" width="180" height="34" fill="#fff" stroke="#fff" stroke-width="0"/></g><mask id="satori_om-id-3-0"><rect x="40" y="197" width="180" height="34" fill="#fff"/></mask><rect x="40" y="197" width="180" height="34" fill="rgba(255,255,255,1)"/><mask id="satori_om-id-3-1"><rect x="40" y="197" width="180" height="1" fill="#fff"/></mask><rect x="40" y="197" width="180" height="1" fill="rgba(0,0,0,1)"/><mask id="satori_om-id-3-2"><rect x="219" y="197" width="1" height="34" fill="#fff"/></mask><rect x="219" y="197" width="1" height="34" fill="rgba(0,0,0,1)"/><mask id="satori_om-id-3-3"><rect x="40" y="230" width="180" height="1" fill="#fff"/></mask><rect x="40" y="230" width="180" height="1" fill="rgba(0,0,0,1)"/><mask id="satori_om-id-3-4"><rect x="40" y="197" width="1" height="34" fill="#fff"/></mask><rect x="40" y="197" width="1" height="34" fill="rgba(0,0,0,1)"/><mask id="satori_om-id-4"><rect x="41" y="198" width="60" height="32" fill="#fff"/></mask><mask id="satori_om-id-4-0"><rect x="41" y="198" width="60" height="32" fill="#fff"/></mask><rect x="41" y="198" width="60" height="32" fill="rgba(240,240,240,1)"/><mask id="satori_om-id-4-1"><rect x="41" y="198" width="60" height="0" fill="#fff"/></mask><rect x="41" y="198" width="60" height="0" fill="rgba(0,0,0,1)"/><mask id="satori_om-id-4-2"><rect x="100" y="198" width="1" height="32" fill="#fff"/></mask><rect x="100" y="198" width="1" height="32" fill="rgba(0,0,0,1)"/><mask id="satori_om-id-4-3"><rect x="41" y="230" width="60" height="0" fill="#fff"/></mask><rect x="41" y="230" width="60" height="0" fill="rgba(0,0,0,1)"/><mask id="satori_om-id-4-4"><rect x="41" y="198" width="0" height="32" fill="#fff"/></mask><rect x="41" y="198" width="0" height="32" fill="rgba(0,0,0,1)"/><mask id="satori_om-id-5"><rect x="55" y="207" width="31" height="14" fill="#fff"/></mask><g  ><path fill="rgba(0,0,0,1)" d="M57.3 213.3L60.0 213.3L60.0 214.2L57.3 214.2L57.3 218L56.3 218L56.3 209.6L60.3 209.6L60.3 210.5L57.3 210.5L57.3 213.3ZM64.3 217.1L65.4 217.1L65.4 210.5L64.3 210.5L64.3 209.6L67.5 209.6L67.5 210.5L66.4 210.5L66.4 217.1L67.5 217.1L67.5 218L64.3 218L64.3 217.1ZM71.7 209.6L72.8 209.6L72.8 217.1L75.5 217.1L75.5 218L71.7 218L71.7 209.6ZM79.3 209.6L83.3 209.6L83.3 210.5L80.3 210.5L80.3 213.2L83.0 213.2L83.0 214.1L80.3 214.1L80.3 217.1L83.3 217.1L83.3 218L79.3 218L79.3 209.6Z "/></g><mask id="satori_om-id-6"><rect x="101" y="198" width="59" height="32" fill="#fff"/></mask><mask id="satori_om-id-6-0"><rect x="101" y="198" width="59" height="0" fill="#fff"/></mask><rect x="101" y="198" width="59" height="0" fill="rgba(51,51,51,1)"/><mask id="satori_om-id-6-1"><rect x="160" y="198" width="1" height="32" fill="#fff"/></mask><rect x="160" y="198" width="1" height="32" fill="rgba(0,0,0,1)"/><mask id="satori_om-id-6-2"><rect x="101" y="230" width="59" height="0" fill="#fff"/></mask><rect x="101" y="230" width="59" height="0" fill="rgba(51,51,51,1)"/><mask id="satori_om-id-6-3"><rect x="101" y="198" width="0" height="32" fill="#fff"/></mask><rect x="101" y="198" width="0" height="32" fill="rgba(51,51,51,1)"/><mask id="satori_om-id-7"><rect x="115" y="207" width="30" height="14" fill="#fff"/></mask><g  ><path fill="rgba(51,51,51,1)" d="M116.2 209.6L120.2 209.6L120.2 210.5L117.3 210.5L117.3 213.2L119.9 213.2L119.9 214.1L117.3 214.1L117.3 217.1L120.2 217.1L120.2 218L116.2 218L116.2 209.6ZM128.2 216.1Q128.2 217.1 127.7 217.6Q127.2 218 126.1 218L126.1 218L123.7 218L123.7 209.6L126.0 209.6Q127.1 209.6 127.6 210.0Q128.2 210.5 128.2 211.5L128.2 211.5L128.2 216.1ZM127.1 211.4Q127.1 211.0 126.9 210.7Q126.7 210.5 126.3 210.5L126.3 210.5L124.7 210.5L124.7 217.1L126.2 217.1Q126.7 217.1 126.9 216.9Q127.1 216.7 127.1 216.2L127.1 216.2L127.1 211.4ZM132.0 217.1L133.1 217.1L133.1 210.5L132.0 210.5L132.0 209.6L135.2 209.6L135.2 210.5L134.1 210.5L134.1 217.1L135.2 217.1L135.2 218L132.0 218L132.0 217.1ZM141.8 218L140.8 218L140.8 210.5L138.8 210.5L138.8 209.6L143.7 209.6L143.7 210.5L141.8 210.5L141.8 218Z "/></g><mask id="satori_om-id-8"><rect x="175" y="207" width="30" height="14" fill="#fff"/></mask><g  ><path fill="rgba(51,51,51,1)" d="M177.4 218L175.7 209.6L176.7 209.6L178.2 216.9L179.7 209.6L180.7 209.6L178.9 218L177.4 218ZM184.3 217.1L185.4 217.1L185.4 210.5L184.3 210.5L184.3 209.6L187.5 209.6L187.5 210.5L186.4 210.5L186.4 217.1L187.5 217.1L187.5 218L184.3 218L184.3 217.1ZM191.6 209.6L195.6 209.6L195.6 210.5L192.6 210.5L192.6 213.2L195.3 213.2L195.3 214.1L192.6 214.1L192.6 217.1L195.6 217.1L195.6 218L191.6 218L191.6 209.6ZM201.9 218L201.3 214.6L200.5 218L199.1 218L198.7 209.6L199.5 209.6L199.9 217.1L200.9 213.1L201.6 213.1L202.7 217.1L203.0 209.6L203.9 209.6L203.5 218L201.9 218Z "/></g><mask id="satori_om-id-9"><rect x="49" y="130" width="170" height="92" fill="#fff"/></mask><mask id="satori_ms-id-9-0-0" maskUnits="userSpaceOnUse"><rect x="0" y="0" width="640" height="360" fill="#fff"/><rect x="49" y="130" width="170" height="92" fill="#000"  stroke-width="0"/></mask><defs><filter id="satori_s-id-9-0-0" x="0%" y="0%" width="100%" height="100%"><feGaussianBlur stdDeviation="0" result="b"/><feFlood flood-color="rgba(0,0,0,1)" in="SourceGraphic" result="f"/><feComposite in="f" in2="b" operator="in"/></filter></defs><g mask="url(#satori_ms-id-9-0-0)" filter="url(#satori_s-id-9-0-0)" opacity="1"><rect x="53" y="134" width="170" height="92" fill="#fff" stroke="#fff" stroke-width="0"/></g><mask id="satori_om-id-9-0"><rect x="49" y="130" width="170" height="92" fill="#fff"/></mask><rect x="49" y="130" width="170" height="92" fill="rgba(255,255,255,1)"/><mask id="satori_om-id-9-1"><rect x="49" y="130" width="170" height="1" fill="#fff"/></mask><rect x="49" y="130" width="170" height="1" fill="rgba(0,0,0,1)"/><mask id="satori_om-id-9-2"><rect x="218" y="130" width="1" height="92" fill="#fff"/></mask><rect x="218" y="130" width="1" height="92" fill="rgba(0,0,0,1)"/><mask id="satori_om-id-9-3"><rect x="49" y="222" width="170" height="1" fill="#fff"/></mask><rect x="49" y="222" width="170" height="1" fill="rgba(0,0,0,1)"/><mask id="satori_om-id-9-4"><rect x="49" y="130" width="1" height="92" fill="#fff"/></mask><rect x="49" y="130" width="1" height="92" fill="rgba(0,0,0,1)"/><mask id="satori_om-id-10"><rect x="64" y="140" width="101" height="17" fill="#fff"/></mask><g  ><path fill="rgba(0,0,0,1)" d="M66.4 153L65.2 153L65.2 145.8L66.4 145.8L66.4 147.2L66.4 147.2Q66.5 146.6 66.9 146.2L66.9 146.2Q67.4 145.7 68.3 145.7L68.3 145.7Q69.4 145.7 70.0 146.4Q70.6 147.0 70.6 148.2L70.6 148.2L70.6 153L69.5 153L69.5 148.3Q69.5 147.6 69.1 147.1Q68.6 146.7 67.9 146.7L67.9 146.7Q67.2 146.7 66.8 147.2Q66.4 147.6 66.4 148.4L66.4 148.4L66.4 153ZM75.7 153.1L75.7 153.1Q74.9 153.1 74.2 152.8Q73.6 152.5 73.2 151.8Q72.9 151.2 72.9 150.4L72.9 150.4L72.9 148.4Q72.9 147.6 73.2 147.0Q73.6 146.4 74.2 146.1Q74.9 145.7 75.7 145.7Q76.5 145.7 77.2 146.1Q77.8 146.4 78.2 147.0Q78.5 147.6 78.5 148.4L78.5 148.4L78.5 149.7L74.0 149.7L74.0 150.4Q74.0 151.2 74.5 151.7Q74.9 152.1 75.7 152.1L75.7 152.1Q76.4 152.1 76.8 151.9Q77.2 151.7 77.3 151.2L77.3 151.2L78.5 151.2Q78.4 152.1 77.6 152.6Q76.8 153.1 75.7 153.1ZM74.0 148.8L77.4 148.8L77.4 148.4Q77.4 147.6 76.9 147.2Q76.5 146.7 75.7 146.7L75.7 146.7Q74.9 146.7 74.5 147.2Q74.0 147.6 74.0 148.4L74.0 148.4L74.0 148.8ZM82.5 153L81.2 153L80.1 145.8L81.1 145.8L81.8 150.9Q81.8 151.2 81.9 151.5Q81.9 151.9 82.0 152.1L82.0 152.1Q82.0 151.9 82.1 151.5Q82.1 151.2 82.1 150.9L82.1 150.9L82.9 145.8L84.1 145.8L84.9 150.9Q84.9 151.2 84.9 151.5Q85.0 151.9 85.0 152.1L85.0 152.1Q85.1 151.9 85.1 151.5Q85.2 151.2 85.2 150.9L85.2 150.9L86.0 145.8L86.9 145.8L85.7 153L84.5 153L83.7 148.1Q83.6 147.7 83.6 147.3Q83.5 147.0 83.5 146.8L83.5 146.8Q83.5 147.0 83.4 147.3Q83.4 147.7 83.3 148.1L83.3 148.1L82.5 153Z M98.1 153L96.8 153L95.7 145.8L96.7 145.8L97.4 150.9Q97.4 151.2 97.5 151.5Q97.5 151.9 97.6 152.1L97.6 152.1Q97.6 151.9 97.7 151.5Q97.7 151.2 97.7 150.9L97.7 150.9L98.5 145.8L99.7 145.8L100.5 150.9Q100.5 151.2 100.5 151.5Q100.6 151.9 100.6 152.1L100.6 152.1Q100.7 151.9 100.7 151.5Q100.8 151.2 100.8 150.9L100.8 150.9L101.6 145.8L102.5 145.8L101.3 153L100.1 153L99.3 148.1Q99.2 147.7 99.2 147.3Q99.1 147.0 99.1 146.8L99.1 146.8Q99.1 147.0 99.0 147.3Q99.0 147.7 98.9 148.1L98.9 148.1L98.1 153ZM106.9 153.1L106.9 153.1Q106.0 153.1 105.4 152.8Q104.8 152.5 104.4 151.8Q104.1 151.2 104.1 150.4L104.1 150.4L104.1 148.5Q104.1 147.6 104.4 147.0Q104.8 146.4 105.4 146.1Q106.0 145.7 106.9 145.7L106.9 145.7Q107.8 145.7 108.4 146.1Q109.0 146.4 109.4 147.0Q109.7 147.6 109.7 148.5L109.7 148.5L109.7 150.4Q109.7 151.2 109.4 151.8Q109.0 152.5 108.4 152.8Q107.8 153.1 106.9 153.1ZM106.9 152.1L106.9 152.1Q107.7 152.1 108.1 151.6Q108.5 151.2 108.5 150.4L108.5 150.4L108.5 148.5Q108.5 147.6 108.1 147.2Q107.7 146.8 106.9 146.8L106.9 146.8Q106.1 146.8 105.7 147.2Q105.3 147.6 105.3 148.5L105.3 148.5L105.3 150.4Q105.3 151.2 105.7 151.6Q106.1 152.1 106.9 152.1ZM113.4 153L112.2 153L112.2 145.8L113.4 145.8L113.4 147.1Q113.5 146.6 113.8 146.3L113.8 146.3Q114.3 145.7 115.3 145.7L115.3 145.7Q116.4 145.7 117.1 146.4Q117.7 147.1 117.7 148.3L117.7 148.3L117.7 148.8L116.6 148.8L116.6 148.4Q116.6 147.6 116.2 147.2Q115.8 146.7 115.0 146.7L115.0 146.7Q114.3 146.7 113.8 147.2Q113.4 147.6 113.4 148.4L113.4 148.4L113.4 153ZM121.0 153L119.8 153L119.8 143.5L121.0 143.5L121.0 148.8L122.4 148.8L124.5 145.8L125.8 145.8L123.4 149.3L125.8 153L124.5 153L122.4 149.8L121.0 149.8L121.0 153ZM130.6 153.1L130.1 153.1Q129.4 153.1 128.8 152.9Q128.3 152.6 128.0 152.2Q127.6 151.8 127.6 151.2L127.6 151.2L128.7 151.2Q128.8 151.6 129.2 151.8Q129.5 152.1 130.1 152.1L130.1 152.1L130.6 152.1Q131.3 152.1 131.7 151.8Q132.0 151.5 132.0 151.0L132.0 151.0Q132.0 150.6 131.7 150.3Q131.4 150.0 130.8 150.0L130.8 150.0L129.8 149.8Q128.8 149.6 128.3 149.1Q127.7 148.7 127.7 147.8L127.7 147.8Q127.7 146.8 128.3 146.3Q129.0 145.7 130.2 145.7L130.2 145.7L130.7 145.7Q131.7 145.7 132.3 146.2Q133.0 146.7 133.1 147.5L133.1 147.5L131.9 147.5Q131.8 147.2 131.5 147.0Q131.2 146.8 130.7 146.8L130.7 146.8L130.2 146.8Q129.5 146.8 129.2 147.0Q128.9 147.3 128.9 147.8L128.9 147.8Q128.9 148.2 129.2 148.4Q129.4 148.6 130.0 148.7L130.0 148.7L130.9 148.9Q132.1 149.1 132.6 149.6Q133.2 150.0 133.2 151.0L133.2 151.0Q133.2 152.0 132.5 152.5Q131.9 153.1 130.6 153.1L130.6 153.1ZM136.6 155.3L135.4 155.3L135.4 145.8L136.6 145.8L136.6 147.2L136.6 147.2Q136.7 146.6 137.1 146.2L137.1 146.2Q137.6 145.7 138.5 145.7L138.5 145.7Q139.6 145.7 140.3 146.4Q140.9 147.1 140.9 148.4L140.9 148.4L140.9 150.5Q140.9 151.3 140.6 151.9Q140.3 152.5 139.8 152.8Q139.3 153.1 138.5 153.1L138.5 153.1Q137.7 153.1 137.1 152.6L137.1 152.6Q136.7 152.2 136.6 151.6L136.6 151.6L136.5 151.6L136.6 153.3L136.6 155.3ZM138.1 152.1L138.1 152.1Q138.9 152.1 139.3 151.7Q139.7 151.2 139.7 150.4L139.7 150.4L139.7 148.4Q139.7 147.6 139.3 147.2Q138.9 146.7 138.1 146.7L138.1 146.7Q137.4 146.7 137.0 147.2Q136.6 147.6 136.6 148.4L136.6 148.4L136.6 150.4Q136.6 151.2 137.0 151.7Q137.4 152.1 138.1 152.1ZM145.3 153.1L145.3 153.1Q144.1 153.1 143.5 152.6Q142.8 152.0 142.8 151.0L142.8 151.0Q142.8 150.0 143.5 149.4Q144.1 148.8 145.3 148.8L145.3 148.8L147.5 148.8L147.5 148.1Q147.5 147.5 147.1 147.1Q146.7 146.7 145.9 146.7L145.9 146.7Q145.3 146.7 144.9 147.0Q144.4 147.3 144.4 147.7L144.4 147.7L143.2 147.7Q143.3 146.8 144.1 146.3Q144.8 145.7 146.0 145.7L146.0 145.7Q147.2 145.7 147.9 146.4Q148.6 147.0 148.6 148.1L148.6 148.1L148.6 153L147.5 153L147.5 151.6L147.5 151.6Q147.4 152.3 146.9 152.7L146.9 152.7Q146.3 153.1 145.3 153.1ZM145.6 152.2L145.6 152.2Q146.4 152.2 146.9 151.8Q147.5 151.4 147.5 150.7L147.5 150.7L147.5 149.7L145.3 149.7Q144.7 149.7 144.4 150.0Q144.0 150.4 144.0 150.9L144.0 150.9Q144.0 151.5 144.4 151.9Q144.8 152.2 145.6 152.2ZM153.8 153.1L153.8 153.1Q152.9 153.1 152.3 152.8Q151.6 152.5 151.3 151.9Q150.9 151.2 150.9 150.4L150.9 150.4L150.9 148.4Q150.9 147.6 151.3 147.0Q151.6 146.4 152.3 146.0Q152.9 145.7 153.8 145.7L153.8 145.7Q155.0 145.7 155.7 146.4Q156.5 147.0 156.5 148.2L156.5 148.2L155.4 148.2Q155.3 147.5 154.9 147.1Q154.5 146.8 153.8 146.8L153.8 146.8Q153.0 146.8 152.5 147.2Q152.1 147.6 152.1 148.4L152.1 148.4L152.1 150.4Q152.1 151.2 152.5 151.6Q153.0 152.1 153.8 152.1L153.8 152.1Q154.5 152.1 154.9 151.7Q155.3 151.3 155.4 150.7L155.4 150.7L156.5 150.7Q156.5 151.8 155.7 152.5Q155.0 153.1 153.8 153.1ZM161.5 153.1L161.5 153.1Q160.7 153.1 160.0 152.8Q159.4 152.5 159.0 151.8Q158.7 151.2 158.7 150.4L158.7 150.4L158.7 148.4Q158.7 147.6 159.0 147.0Q159.4 146.4 160.0 146.1Q160.7 145.7 161.5 145.7Q162.3 145.7 163.0 146.1Q163.6 146.4 164.0 147.0Q164.3 147.6 164.3 148.4L164.3 148.4L164.3 149.7L159.8 149.7L159.8 150.4Q159.8 151.2 160.3 151.7Q160.7 152.1 161.5 152.1L161.5 152.1Q162.2 152.1 162.6 151.9Q163.0 151.7 163.1 151.2L163.1 151.2L164.3 151.2Q164.2 152.1 163.4 152.6Q162.6 153.1 161.5 153.1ZM159.8 148.8L163.2 148.8L163.2 148.4Q163.2 147.6 162.7 147.2Q162.3 146.7 161.5 146.7L161.5 146.7Q160.7 146.7 160.3 147.2Q159.8 147.6 159.8 148.4L159.8 148.4L159.8 148.8Z "/></g><mask id="satori_om-id-11"><rect x="64" y="167" width="109" height="17" fill="#fff"/></mask><g  ><path fill="rgba(0,0,0,1)" d="M67.9 180.1L67.9 180.1Q67.0 180.1 66.4 179.8Q65.8 179.5 65.4 178.8Q65.1 178.2 65.1 177.4L65.1 177.4L65.1 175.5Q65.1 174.6 65.4 174.0Q65.8 173.4 66.4 173.1Q67.0 172.7 67.9 172.7L67.9 172.7Q68.8 172.7 69.4 173.1Q70.0 173.4 70.4 174.0Q70.7 174.6 70.7 175.5L70.7 175.5L70.7 177.4Q70.7 178.2 70.4 178.8Q70.0 179.5 69.4 179.8Q68.8 180.1 67.9 180.1ZM67.9 179.1L67.9 179.1Q68.7 179.1 69.1 178.6Q69.5 178.2 69.5 177.4L69.5 177.4L69.5 175.5Q69.5 174.6 69.1 174.2Q68.7 173.8 67.9 173.8L67.9 173.8Q67.1 173.8 66.7 174.2Q66.3 174.6 66.3 175.5L66.3 175.5L66.3 177.4Q66.3 178.2 66.7 178.6Q67.1 179.1 67.9 179.1ZM74.2 182.3L73.0 182.3L73.0 172.8L74.2 172.8L74.2 174.2L74.2 174.2Q74.3 173.6 74.7 173.2L74.7 173.2Q75.2 172.7 76.1 172.7L76.1 172.7Q77.2 172.7 77.9 173.4Q78.5 174.1 78.5 175.4L78.5 175.4L78.5 177.5Q78.5 178.3 78.2 178.9Q77.9 179.5 77.4 179.8Q76.9 180.1 76.1 180.1L76.1 180.1Q75.3 180.1 74.7 179.6L74.7 179.6Q74.3 179.2 74.2 178.6L74.2 178.6L74.1 178.6L74.2 180.3L74.2 182.3ZM75.7 179.1L75.7 179.1Q76.5 179.1 76.9 178.7Q77.3 178.2 77.3 177.4L77.3 177.4L77.3 175.4Q77.3 174.6 76.9 174.2Q76.5 173.7 75.7 173.7L75.7 173.7Q75.0 173.7 74.6 174.2Q74.2 174.6 74.2 175.4L74.2 175.4L74.2 177.4Q74.2 178.2 74.6 178.7Q75.0 179.1 75.7 179.1ZM83.5 180.1L83.5 180.1Q82.7 180.1 82.0 179.8Q81.4 179.5 81.0 178.8Q80.7 178.2 80.7 177.4L80.7 177.4L80.7 175.4Q80.7 174.6 81.0 174.0Q81.4 173.4 82.0 173.1Q82.7 172.7 83.5 172.7Q84.3 172.7 85.0 173.1Q85.6 173.4 86.0 174.0Q86.3 174.6 86.3 175.4L86.3 175.4L86.3 176.7L81.8 176.7L81.8 177.4Q81.8 178.2 82.3 178.7Q82.7 179.1 83.5 179.1L83.5 179.1Q84.2 179.1 84.6 178.9Q85.0 178.7 85.1 178.2L85.1 178.2L86.3 178.2Q86.2 179.1 85.4 179.6Q84.6 180.1 83.5 180.1ZM81.8 175.8L85.2 175.8L85.2 175.4Q85.2 174.6 84.7 174.2Q84.3 173.7 83.5 173.7L83.5 173.7Q82.7 173.7 82.3 174.2Q81.8 174.6 81.8 175.4L81.8 175.4L81.8 175.8ZM89.8 180L88.6 180L88.6 172.8L89.8 172.8L89.8 174.2L89.8 174.2Q89.9 173.6 90.3 173.2L90.3 173.2Q90.8 172.7 91.7 172.7L91.7 172.7Q92.8 172.7 93.4 173.4Q94.0 174.0 94.0 175.2L94.0 175.2L94.0 180L92.9 180L92.9 175.3Q92.9 174.6 92.5 174.1Q92.0 173.7 91.3 173.7L91.3 173.7Q90.6 173.7 90.2 174.2Q89.8 174.6 89.8 175.4L89.8 175.4L89.8 180Z M105.6 180L104.4 180L104.4 172.8L105.6 172.8L105.6 174.1Q105.7 173.6 106.0 173.3L106.0 173.3Q106.5 172.7 107.5 172.7L107.5 172.7Q108.6 172.7 109.3 173.4Q109.9 174.1 109.9 175.3L109.9 175.3L109.9 175.8L108.8 175.8L108.8 175.4Q108.8 174.6 108.4 174.2Q108.0 173.7 107.2 173.7L107.2 173.7Q106.5 173.7 106.0 174.2Q105.6 174.6 105.6 175.4L105.6 175.4L105.6 180ZM114.7 180.1L114.7 180.1Q113.9 180.1 113.2 179.8Q112.6 179.5 112.2 178.8Q111.9 178.2 111.9 177.4L111.9 177.4L111.9 175.4Q111.9 174.6 112.2 174.0Q112.6 173.4 113.2 173.1Q113.9 172.7 114.7 172.7Q115.5 172.7 116.2 173.1Q116.8 173.4 117.2 174.0Q117.5 174.6 117.5 175.4L117.5 175.4L117.5 176.7L113.0 176.7L113.0 177.4Q113.0 178.2 113.5 178.7Q113.9 179.1 114.7 179.1L114.7 179.1Q115.4 179.1 115.8 178.9Q116.2 178.7 116.3 178.2L116.3 178.2L117.5 178.2Q117.4 179.1 116.6 179.6Q115.8 180.1 114.7 180.1ZM113.0 175.8L116.4 175.8L116.4 175.4Q116.4 174.6 115.9 174.2Q115.5 173.7 114.7 173.7L114.7 173.7Q113.9 173.7 113.5 174.2Q113.0 174.6 113.0 175.4L113.0 175.4L113.0 175.8ZM123.0 182.3L120.7 182.3L120.7 181.3L123.0 181.3Q123.5 181.3 123.8 181.0Q124.0 180.8 124.0 180.3L124.0 180.3L124.0 179.3L124.0 178.1L124.0 178.1Q124.0 178.7 123.5 179.1L123.5 179.1Q123.0 179.5 122.1 179.5L122.1 179.5Q121.0 179.5 120.4 178.8Q119.7 178.1 119.7 176.9L119.7 176.9L119.7 175.4Q119.7 174.2 120.4 173.4Q121.0 172.7 122.1 172.7L122.1 172.7Q123.0 172.7 123.5 173.2L123.5 173.2Q124.0 173.6 124.0 174.2L124.0 174.2L124.0 174.2L124.0 172.8L125.2 172.8L125.2 180.3Q125.2 181.2 124.6 181.8Q124.0 182.3 123.0 182.3L123.0 182.3ZM122.5 178.5L122.5 178.5Q123.2 178.5 123.6 178.1Q124.0 177.6 124.0 176.8L124.0 176.8L124.0 175.4Q124.0 174.6 123.6 174.2Q123.2 173.7 122.5 173.7L122.5 173.7Q121.7 173.7 121.3 174.2Q120.9 174.6 120.9 175.4L120.9 175.4L120.9 176.8Q120.9 177.6 121.3 178.1Q121.7 178.5 122.5 178.5ZM133.6 180L127.5 180L127.5 178.9L130.0 178.9L130.0 173.9L127.8 173.9L127.8 172.8L131.2 172.8L131.2 178.9L133.6 178.9L133.6 180ZM130.5 171.6L130.5 171.6Q130.1 171.6 129.8 171.3Q129.6 171.1 129.6 170.7L129.6 170.7Q129.6 170.4 129.8 170.1Q130.1 169.9 130.5 169.9L130.5 169.9Q130.9 169.9 131.2 170.1Q131.4 170.4 131.4 170.7L131.4 170.7Q131.4 171.1 131.2 171.3Q130.9 171.6 130.5 171.6ZM138.4 180.1L137.9 180.1Q137.2 180.1 136.6 179.9Q136.1 179.6 135.8 179.2Q135.4 178.8 135.4 178.2L135.4 178.2L136.5 178.2Q136.6 178.6 137.0 178.8Q137.3 179.1 137.9 179.1L137.9 179.1L138.4 179.1Q139.1 179.1 139.5 178.8Q139.8 178.5 139.8 178.0L139.8 178.0Q139.8 177.6 139.5 177.3Q139.2 177.0 138.6 177.0L138.6 177.0L137.6 176.8Q136.6 176.6 136.1 176.1Q135.5 175.7 135.5 174.8L135.5 174.8Q135.5 173.8 136.1 173.3Q136.8 172.7 138.0 172.7L138.0 172.7L138.5 172.7Q139.5 172.7 140.1 173.2Q140.8 173.7 140.9 174.5L140.9 174.5L139.7 174.5Q139.6 174.2 139.3 174.0Q139.0 173.8 138.5 173.8L138.5 173.8L138.0 173.8Q137.3 173.8 137.0 174.0Q136.7 174.3 136.7 174.8L136.7 174.8Q136.7 175.2 137.0 175.4Q137.2 175.6 137.8 175.7L137.8 175.7L138.8 175.9Q139.9 176.1 140.4 176.6Q141.0 177.0 141.0 178.0L141.0 178.0Q141.0 179.0 140.3 179.5Q139.7 180.1 138.4 180.1L138.4 180.1ZM148.6 180L146.7 180Q145.8 180 145.2 179.5Q144.7 179.0 144.7 178.1L144.7 178.1L144.7 173.9L142.7 173.9L142.7 172.8L144.7 172.8L144.7 170.8L145.9 170.8L145.9 172.8L148.8 172.8L148.8 173.9L145.9 173.9L145.9 178.1Q145.9 178.9 146.7 178.9L146.7 178.9L148.6 178.9L148.6 180ZM152.4 180L151.2 180L151.2 172.8L152.4 172.8L152.4 174.1Q152.5 173.6 152.8 173.3L152.8 173.3Q153.3 172.7 154.3 172.7L154.3 172.7Q155.4 172.7 156.1 173.4Q156.7 174.1 156.7 175.3L156.7 175.3L156.7 175.8L155.6 175.8L155.6 175.4Q155.6 174.6 155.2 174.2Q154.8 173.7 154.0 173.7L154.0 173.7Q153.3 173.7 152.8 174.2Q152.4 174.6 152.4 175.4L152.4 175.4L152.4 180ZM161.2 182.3L159.9 182.3L161.0 179.6L158.3 172.8L159.6 172.8L161.3 177.3Q161.4 177.5 161.4 177.8Q161.5 178.1 161.6 178.3L161.6 178.3Q161.6 178.1 161.7 177.8Q161.8 177.5 161.9 177.3L161.9 177.3L163.4 172.8L164.7 172.8L161.2 182.3ZM171.8 180.1L171.8 180.1Q171.5 180.1 171.3 179.9Q171.1 179.7 171.1 179.4L171.1 179.4L171.1 178.5Q171.1 178.2 171.3 178.0Q171.5 177.8 171.8 177.8L171.8 177.8Q172.1 177.8 172.2 178.0Q172.4 178.2 172.4 178.5L172.4 178.5L172.4 179.4Q172.4 179.7 172.2 179.9Q172.1 180.1 171.8 180.1ZM166.8 180.1L166.8 180.1Q166.5 180.1 166.4 179.9Q166.2 179.7 166.2 179.4L166.2 179.4L166.2 178.5Q166.2 178.2 166.4 178.0Q166.5 177.8 166.8 177.8L166.8 177.8Q167.1 177.8 167.3 178.0Q167.5 178.2 167.5 178.5L167.5 178.5L167.5 179.4Q167.5 179.7 167.3 179.9Q167.1 180.1 166.8 180.1ZM169.3 180.1L169.3 180.1Q169.0 180.1 168.8 179.9Q168.7 179.7 168.7 179.4L168.7 179.4L168.7 178.5Q168.7 178.2 168.8 178.0Q169.0 177.8 169.3 177.8L169.3 177.8Q169.6 177.8 169.8 178.0Q170.0 178.2 170.0 178.5L170.0 178.5L170.0 179.4Q170.0 179.7 169.8 179.9Q169.6 180.1 169.3 180.1Z "/></g><mask id="satori_om-id-12"><rect x="64" y="195" width="117" height="17" fill="#fff"/></mask><g  ><path fill="rgba(0,0,0,1)" d="M67.9 208.1L67.9 208.1Q67.1 208.1 66.4 207.8Q65.8 207.5 65.4 206.8Q65.1 206.2 65.1 205.4L65.1 205.4L65.1 203.4Q65.1 202.6 65.4 202.0Q65.8 201.4 66.4 201.1Q67.1 200.7 67.9 200.7Q68.7 200.7 69.4 201.1Q70.0 201.4 70.4 202.0Q70.7 202.6 70.7 203.4L70.7 203.4L70.7 204.7L66.2 204.7L66.2 205.4Q66.2 206.2 66.7 206.7Q67.1 207.1 67.9 207.1L67.9 207.1Q68.6 207.1 69.0 206.9Q69.4 206.7 69.5 206.2L69.5 206.2L70.7 206.2Q70.6 207.1 69.8 207.6Q69.0 208.1 67.9 208.1ZM66.2 203.8L69.6 203.8L69.6 203.4Q69.6 202.6 69.1 202.2Q68.7 201.7 67.9 201.7L67.9 201.7Q67.1 201.7 66.7 202.2Q66.2 202.6 66.2 203.4L66.2 203.4L66.2 203.8ZM73.8 208L72.5 208L75.0 204.3L72.6 200.8L74.0 200.8L75.4 203.1Q75.5 203.2 75.6 203.4L75.6 203.4L75.7 203.6Q75.8 203.5 75.8 203.4Q75.9 203.2 76.0 203.1L76.0 203.1L77.4 200.8L78.8 200.8L76.4 204.3L79.0 208L77.6 208L76.0 205.7Q75.9 205.5 75.9 205.3Q75.8 205.1 75.7 205.0L75.7 205.0Q75.7 205.1 75.6 205.3Q75.5 205.5 75.4 205.7L75.4 205.7L73.8 208ZM82.0 210.3L80.8 210.3L80.8 200.8L82.0 200.8L82.0 202.2L82.0 202.2Q82.1 201.6 82.5 201.2L82.5 201.2Q83.0 200.7 83.9 200.7L83.9 200.7Q85.0 200.7 85.7 201.4Q86.3 202.1 86.3 203.4L86.3 203.4L86.3 205.5Q86.3 206.3 86.0 206.9Q85.7 207.5 85.2 207.8Q84.7 208.1 83.9 208.1L83.9 208.1Q83.1 208.1 82.5 207.6L82.5 207.6Q82.1 207.2 82.0 206.6L82.0 206.6L81.9 206.6L82.0 208.3L82.0 210.3ZM83.5 207.1L83.5 207.1Q84.3 207.1 84.7 206.7Q85.1 206.2 85.1 205.4L85.1 205.4L85.1 203.4Q85.1 202.6 84.7 202.2Q84.3 201.7 83.5 201.7L83.5 201.7Q82.8 201.7 82.4 202.2Q82.0 202.6 82.0 203.4L82.0 203.4L82.0 205.4Q82.0 206.2 82.4 206.7Q82.8 207.1 83.5 207.1ZM91.3 208.1L91.3 208.1Q90.4 208.1 89.8 207.8Q89.2 207.5 88.8 206.8Q88.5 206.2 88.5 205.4L88.5 205.4L88.5 203.5Q88.5 202.6 88.8 202.0Q89.2 201.4 89.8 201.1Q90.4 200.7 91.3 200.7L91.3 200.7Q92.2 200.7 92.8 201.1Q93.4 201.4 93.8 202.0Q94.1 202.6 94.1 203.5L94.1 203.5L94.1 205.4Q94.1 206.2 93.8 206.8Q93.4 207.5 92.8 207.8Q92.2 208.1 91.3 208.1ZM91.3 207.1L91.3 207.1Q92.1 207.1 92.5 206.6Q92.9 206.2 92.9 205.4L92.9 205.4L92.9 203.5Q92.9 202.6 92.5 202.2Q92.1 201.8 91.3 201.8L91.3 201.8Q90.5 201.8 90.1 202.2Q89.7 202.6 89.7 203.5L89.7 203.5L89.7 205.4Q89.7 206.2 90.1 206.6Q90.5 207.1 91.3 207.1ZM97.8 208L96.6 208L96.6 200.8L97.8 200.8L97.8 202.1Q97.9 201.6 98.2 201.3L98.2 201.3Q98.7 200.7 99.7 200.7L99.7 200.7Q100.8 200.7 101.5 201.4Q102.1 202.1 102.1 203.3L102.1 203.3L102.1 203.8L101.0 203.8L101.0 203.4Q101.0 202.6 100.6 202.2Q100.2 201.7 99.4 201.7L99.4 201.7Q98.7 201.7 98.2 202.2Q97.8 202.6 97.8 203.4L97.8 203.4L97.8 208ZM109.6 208L107.7 208Q106.8 208 106.2 207.5Q105.7 207.0 105.7 206.1L105.7 206.1L105.7 201.9L103.7 201.9L103.7 200.8L105.7 200.8L105.7 198.8L106.9 198.8L106.9 200.8L109.8 200.8L109.8 201.9L106.9 201.9L106.9 206.1Q106.9 206.9 107.7 206.9L107.7 206.9L109.6 206.9L109.6 208Z M122.8 208.1L122.3 208.1Q121.6 208.1 121.0 207.9Q120.5 207.6 120.2 207.2Q119.8 206.8 119.8 206.2L119.8 206.2L120.9 206.2Q121.0 206.6 121.4 206.8Q121.7 207.1 122.3 207.1L122.3 207.1L122.8 207.1Q123.5 207.1 123.9 206.8Q124.2 206.5 124.2 206.0L124.2 206.0Q124.2 205.6 123.9 205.3Q123.6 205.0 123.0 205.0L123.0 205.0L122.0 204.8Q121.0 204.6 120.5 204.1Q119.9 203.7 119.9 202.8L119.9 202.8Q119.9 201.8 120.5 201.3Q121.2 200.7 122.4 200.7L122.4 200.7L122.9 200.7Q123.9 200.7 124.5 201.2Q125.2 201.7 125.3 202.5L125.3 202.5L124.1 202.5Q124.0 202.2 123.7 202.0Q123.4 201.8 122.9 201.8L122.9 201.8L122.4 201.8Q121.7 201.8 121.4 202.0Q121.1 202.3 121.1 202.8L121.1 202.8Q121.1 203.2 121.4 203.4Q121.6 203.6 122.2 203.7L122.2 203.7L123.1 203.9Q124.3 204.1 124.8 204.6Q125.4 205.0 125.4 206.0L125.4 206.0Q125.4 207.0 124.7 207.5Q124.1 208.1 122.8 208.1L122.8 208.1ZM128.8 208L127.6 208L127.6 200.8L128.8 200.8L128.8 202.2L128.8 202.2Q128.9 201.6 129.3 201.2L129.3 201.2Q129.8 200.7 130.7 200.7L130.7 200.7Q131.8 200.7 132.4 201.4Q133.0 202.0 133.0 203.2L133.0 203.2L133.0 208L131.9 208L131.9 203.3Q131.9 202.6 131.5 202.1Q131.0 201.7 130.3 201.7L130.3 201.7Q129.6 201.7 129.2 202.2Q128.8 202.6 128.8 203.4L128.8 203.4L128.8 208ZM137.5 208.1L137.5 208.1Q136.3 208.1 135.7 207.6Q135.0 207.0 135.0 206.0L135.0 206.0Q135.0 205.0 135.7 204.4Q136.3 203.8 137.4 203.8L137.4 203.8L139.7 203.8L139.7 203.1Q139.7 202.5 139.3 202.1Q138.9 201.7 138.1 201.7L138.1 201.7Q137.5 201.7 137.1 202.0Q136.6 202.3 136.6 202.7L136.6 202.7L135.4 202.7Q135.5 201.8 136.3 201.3Q137.0 200.7 138.2 200.7L138.2 200.7Q139.4 200.7 140.1 201.4Q140.8 202.0 140.8 203.1L140.8 203.1L140.8 208L139.7 208L139.7 206.6L139.7 206.6Q139.6 207.3 139.1 207.7L139.1 207.7Q138.5 208.1 137.5 208.1ZM137.8 207.2L137.8 207.2Q138.6 207.2 139.1 206.8Q139.7 206.4 139.7 205.7L139.7 205.7L139.7 204.7L137.5 204.7Q136.9 204.7 136.6 205.0Q136.2 205.4 136.2 205.9L136.2 205.9Q136.2 206.5 136.6 206.9Q137.0 207.2 137.8 207.2ZM144.4 210.3L143.2 210.3L143.2 200.8L144.4 200.8L144.4 202.2L144.4 202.2Q144.5 201.6 144.9 201.2L144.9 201.2Q145.4 200.7 146.3 200.7L146.3 200.7Q147.4 200.7 148.1 201.4Q148.7 202.1 148.7 203.4L148.7 203.4L148.7 205.5Q148.7 206.3 148.4 206.9Q148.1 207.5 147.6 207.8Q147.1 208.1 146.3 208.1L146.3 208.1Q145.5 208.1 144.9 207.6L144.9 207.6Q144.5 207.2 144.4 206.6L144.4 206.6L144.3 206.6L144.4 208.3L144.4 210.3ZM145.9 207.1L145.9 207.1Q146.7 207.1 147.1 206.7Q147.5 206.2 147.5 205.4L147.5 205.4L147.5 203.4Q147.5 202.6 147.1 202.2Q146.7 201.7 145.9 201.7L145.9 201.7Q145.2 201.7 144.8 202.2Q144.4 202.6 144.4 203.4L144.4 203.4L144.4 205.4Q144.4 206.2 144.8 206.7Q145.2 207.1 145.9 207.1ZM154.0 208.1L153.5 208.1Q152.8 208.1 152.2 207.9Q151.7 207.6 151.4 207.2Q151.0 206.8 151.0 206.2L151.0 206.2L152.1 206.2Q152.2 206.6 152.6 206.8Q152.9 207.1 153.5 207.1L153.5 207.1L154.0 207.1Q154.7 207.1 155.1 206.8Q155.4 206.5 155.4 206.0L155.4 206.0Q155.4 205.6 155.1 205.3Q154.8 205.0 154.2 205.0L154.2 205.0L153.2 204.8Q152.2 204.6 151.7 204.1Q151.1 203.7 151.1 202.8L151.1 202.8Q151.1 201.8 151.8 201.3Q152.4 200.7 153.6 200.7L153.6 200.7L154.1 200.7Q155.1 200.7 155.7 201.2Q156.4 201.7 156.5 202.5L156.5 202.5L155.3 202.5Q155.2 202.2 154.9 202.0Q154.6 201.8 154.1 201.8L154.1 201.8L153.6 201.8Q152.9 201.8 152.6 202.0Q152.3 202.3 152.3 202.8L152.3 202.8Q152.3 203.2 152.6 203.4Q152.8 203.6 153.4 203.7L153.4 203.7L154.4 203.9Q155.5 204.1 156.0 204.6Q156.6 205.0 156.6 206.0L156.6 206.0Q156.6 207.0 155.9 207.5Q155.3 208.1 154.0 208.1L154.0 208.1ZM160.0 208L158.8 208L158.8 198.5L160.0 198.5L160.0 202.2L160.0 202.2Q160.1 201.6 160.5 201.2L160.5 201.2Q161.0 200.7 161.9 200.7L161.9 200.7Q163.0 200.7 163.6 201.4Q164.2 202.0 164.2 203.2L164.2 203.2L164.2 208L163.1 208L163.1 203.3Q163.1 202.6 162.7 202.1Q162.2 201.7 161.5 201.7L161.5 201.7Q160.8 201.7 160.4 202.2Q160.0 202.6 160.0 203.4L160.0 203.4L160.0 208ZM169.3 208.1L169.3 208.1Q168.4 208.1 167.8 207.8Q167.2 207.5 166.8 206.8Q166.5 206.2 166.5 205.4L166.5 205.4L166.5 203.5Q166.5 202.6 166.8 202.0Q167.2 201.4 167.8 201.1Q168.4 200.7 169.3 200.7L169.3 200.7Q170.2 200.7 170.8 201.1Q171.4 201.4 171.8 202.0Q172.1 202.6 172.1 203.5L172.1 203.5L172.1 205.4Q172.1 206.2 171.8 206.8Q171.4 207.5 170.8 207.8Q170.2 208.1 169.3 208.1ZM169.3 207.1L169.3 207.1Q170.1 207.1 170.5 206.6Q170.9 206.2 170.9 205.4L170.9 205.4L170.9 203.5Q170.9 202.6 170.5 202.2Q170.1 201.8 169.3 201.8L169.3 201.8Q168.5 201.8 168.1 202.2Q167.7 202.6 167.7 203.5L167.7 203.5L167.7 205.4Q167.7 206.2 168.1 206.6Q168.5 207.1 169.3 207.1ZM179.8 208L177.9 208Q177.0 208 176.4 207.5Q175.9 207.0 175.9 206.1L175.9 206.1L175.9 201.9L173.9 201.9L173.9 200.8L175.9 200.8L175.9 198.8L177.1 198.8L177.1 200.8L180.0 200.8L180.0 201.9L177.1 201.9L177.1 206.1Q177.1 206.9 177.9 206.9L177.9 206.9L179.8 206.9L179.8 208Z "/></g></svg>